<svg width="169" height="66" viewBox="0 0 169 66" fill="none" xmlns="http://www.w3.org/2000/svg">
<path d="M30.9683 63V46.3335H31.9659V48.9553C32.0837 48.8392 32.1925 48.7158 32.2916 48.5861C32.6993 47.8187 33.3397 47.1725 34.1378 46.7234C34.9359 46.2743 35.8586 46.0409 36.7978 46.0504C39.0713 45.9888 40.9172 46.752 42.0031 48.5861C42.694 49.7254 43.0742 50.9981 43.112 52.298C43.1497 53.5978 42.844 54.8869 42.2202 56.0577C41.209 58.1133 38.7116 59.1349 36.0377 58.7595C35.2057 58.6952 34.4046 58.443 33.7075 58.0259C33.0105 57.6088 32.4397 57.0401 32.0473 56.3716V63H30.9683ZM31.9659 52.2295C32.0541 53.0419 32.088 53.6205 32.1898 54.1867C32.5834 56.4146 34.0357 57.7379 36.316 57.9779C37.3867 58.1375 38.4853 57.9555 39.4245 57.4628C40.3638 56.9701 41.0856 56.1973 41.4669 55.276C41.9051 54.3285 42.116 53.3072 42.0856 52.28C42.0552 51.2529 41.7841 50.2433 41.2905 49.3185C40.8834 48.4928 40.1912 47.8096 39.3183 47.3721C38.4454 46.9347 37.4392 46.7667 36.4517 46.8936C35.5246 46.9545 34.6415 47.2759 33.9251 47.813C33.2087 48.3502 32.6947 49.0765 32.4545 49.8908C32.2419 50.6612 32.0788 51.4421 31.9659 52.2295ZM63.4619 54.4944C63.3107 55.6679 62.6948 56.7516 61.7286 57.544C60.7624 58.3365 59.5117 58.7837 58.2091 58.8026C54.0287 58.9934 52.0674 56.4762 51.7552 53.5712C51.5385 51.9937 51.821 50.3928 52.5696 48.9553C53.0909 47.9693 53.9447 47.1593 55.0074 46.6426C56.0701 46.1259 57.2865 45.9293 58.4806 46.0812C59.6158 46.1684 60.692 46.5773 61.5568 47.25C62.4216 47.9227 63.0311 48.825 63.299 49.8293C63.5114 50.7439 63.6677 51.6685 63.7673 52.5988H52.78C52.5764 55.233 54.1373 57.3501 56.3497 57.861C59.105 58.4764 61.4599 57.3932 62.315 55.0176C62.505 54.4083 62.8511 54.3221 63.4619 54.4944ZM52.78 51.7556H62.6C62.5389 48.9492 60.6116 46.9182 57.9988 46.8874C55.0399 46.8443 52.9089 48.8015 52.78 51.7556ZM65.4842 54.556H66.4479C66.4835 55.199 66.7139 55.8208 67.1138 56.3528C67.5137 56.8848 68.0676 57.3066 68.7146 57.5717C69.5271 57.9033 70.4115 58.0644 71.3022 58.0431C72.1928 58.0218 73.0667 57.8186 73.8588 57.4486C74.2904 57.2721 74.652 56.9798 74.8947 56.6112C75.1374 56.2425 75.2496 55.8151 75.2161 55.3868C75.2409 54.9737 75.1165 54.5646 74.8617 54.2214C74.607 53.8782 74.2358 53.6197 73.8045 53.4851C72.7458 53.1281 71.6192 52.9312 70.5402 52.6173C69.4174 52.3273 68.3196 51.9632 67.2555 51.5279C65.5182 50.7586 65.4096 47.7614 67.3777 46.8136C68.3854 46.2978 69.5195 46.0192 70.6765 46.0031C71.8335 45.9869 72.9765 46.2338 74.0013 46.7212C74.622 47.0324 75.1235 47.5077 75.4387 48.0839C75.754 48.6601 75.868 49.3097 75.7658 49.9462H74.9378C74.9378 49.9093 74.8631 49.8785 74.8631 49.8416C74.7614 47.4475 72.549 46.7089 70.1737 46.9182C69.4646 46.9975 68.7759 47.187 68.1378 47.4782C67.7544 47.6372 67.4348 47.9003 67.2233 48.231C67.0118 48.5617 66.9187 48.9438 66.9569 49.3246C66.9581 49.7055 67.0892 50.0768 67.3322 50.3875C67.5752 50.6983 67.9182 50.9332 68.3142 51.0602C69.3593 51.4048 70.4519 51.6264 71.5242 51.8972C72.3861 52.1126 73.2819 52.2542 74.1166 52.5127C74.7058 52.6878 75.2224 53.0211 75.5981 53.4684C75.9738 53.9157 76.1908 54.4559 76.2204 55.0176C76.3212 55.6329 76.2056 56.2614 75.89 56.8138C75.5745 57.3662 75.0751 57.8144 74.4627 58.0948C72.1961 59.258 68.4635 58.9503 66.8008 57.4794C66.3794 57.095 66.0461 56.6388 65.8202 56.1371C65.5942 55.6353 65.48 55.0979 65.4842 54.556ZM88.4361 49.9462H87.5335C87.5335 49.8354 87.486 49.737 87.4724 49.6446C87.4578 49.0311 87.2111 48.4407 86.7738 47.9724C86.3364 47.504 85.7349 47.1862 85.07 47.072C83.8154 46.7456 82.477 46.804 81.2628 47.2382C80.7828 47.363 80.3603 47.6252 80.0582 47.9857C79.7561 48.3462 79.5906 48.7857 79.5865 49.2384C79.5697 49.6831 79.7225 50.1194 80.0192 50.4738C80.316 50.8281 80.7384 51.0787 81.2153 51.1833C82.5726 51.5649 83.9638 51.7987 85.3415 52.1434C85.7879 52.2406 86.2275 52.3618 86.658 52.5065C87.3009 52.7151 87.8594 53.0947 88.2606 53.5957C88.6618 54.0967 88.887 54.6958 88.9068 55.3147C88.9266 55.9336 88.74 56.5436 88.3715 57.0648C88.003 57.5861 87.4697 57.9944 86.8413 58.2364C85.8836 58.6308 84.8456 58.8394 83.7938 58.849C82.742 58.8585 81.6997 58.6687 80.7334 58.2918C79.9389 57.981 79.2684 57.4569 78.8122 56.7901C78.356 56.1233 78.1359 55.3458 78.1817 54.5621H79.064C79.2272 55.2762 79.5799 55.9435 80.0915 56.5061C80.6032 57.0688 81.2583 57.5098 82.0003 57.7911C82.7422 58.0723 83.5486 58.1853 84.3495 58.1203C85.1505 58.0553 85.9219 57.8142 86.597 57.4178C87.0082 57.2241 87.3495 56.9274 87.5805 56.5631C87.8114 56.1988 87.9223 55.782 87.9 55.3622C87.9204 54.9489 87.7917 54.5408 87.5333 54.1998C87.2748 53.8588 86.9008 53.6036 86.468 53.4728C85.4093 53.1158 84.2828 52.925 83.2037 52.6111C82.0746 52.3257 80.97 51.9657 79.8987 51.5341C78.2021 50.7771 78.0664 47.8044 80.0005 46.8566C81.0208 46.3193 82.177 46.0307 83.3568 46.0188C84.5365 46.0069 85.6996 46.2722 86.7327 46.7889C87.3235 47.1088 87.7991 47.5775 88.1016 48.1381C88.404 48.6987 88.5202 49.3268 88.4361 49.9462ZM29.3191 58.501C28.9638 58.623 28.5715 58.6228 28.2164 58.5003C27.8613 58.3778 27.5679 58.1416 27.3918 57.8363C26.2856 56.3346 25.064 54.9006 23.89 53.4358L23.381 52.8204C21.983 54.519 20.585 56.15 19.3091 57.8425C19.1429 58.1343 18.8654 58.3613 18.5283 58.4813C18.1912 58.6013 17.8175 58.6062 17.4767 58.4949L22.7227 52.1126L17.8432 46.3458C18.1945 46.2308 18.5787 46.2292 18.9311 46.3413C19.2835 46.4535 19.5824 46.6724 19.7774 46.9613C20.9107 48.463 22.1662 49.897 23.4149 51.4171C24.6704 49.9093 25.9123 48.4691 27.0728 46.9797C27.24 46.6927 27.5176 46.4714 27.853 46.3579C28.1883 46.2444 28.558 46.2467 28.8916 46.3643L26.9982 48.6415C26.1499 49.657 25.3151 50.6786 24.4329 51.6695C24.3618 51.7272 24.3049 51.7979 24.266 51.8769C24.2271 51.9559 24.2069 52.0415 24.2069 52.128C24.2069 52.2145 24.2271 52.3001 24.266 52.3791C24.3049 52.4581 24.3618 52.5288 24.4329 52.5865C26.0548 54.5375 27.6632 56.4946 29.3191 58.501ZM51.5923 46.2843V47.1459C50.9059 47.1051 50.2177 47.1952 49.5722 47.4105C48.9266 47.6258 48.3379 47.9615 47.8442 48.3959C47.3505 48.8303 46.9627 49.3537 46.7059 49.9324C46.4491 50.5111 46.3289 51.1322 46.3532 51.7556V58.5256H45.3827V46.3335H46.3328V48.8322C47.5069 47.0105 49.3189 46.3335 51.5923 46.2843ZM4.9082 52.0326C5.05072 51.4171 5.13894 50.7463 5.33575 50.1185C6.50981 46.3335 11.2943 44.7579 14.5857 47.1028C16.5131 48.4753 16.9949 50.4201 16.8999 52.6111H6.04154C5.8651 56.5254 8.98009 58.8888 12.9637 57.6825C13.61 57.4728 14.1884 57.1206 14.6469 56.6575C15.1055 56.1944 15.4296 55.635 15.5901 55.0299C15.8005 54.4144 16.1398 54.3098 16.7845 54.4883C16.6783 55.2375 16.3862 55.9552 15.9301 56.5873C15.4741 57.2195 14.8659 57.7496 14.1514 58.1379C12.9708 58.7234 11.6163 58.9553 10.2816 58.8006C8.94692 58.6458 7.70036 58.1123 6.72019 57.2763C5.75051 56.2875 5.16419 55.0382 5.05072 53.7189C5.05072 53.5097 4.96249 53.3004 4.91499 53.1035C4.91047 52.7383 4.9082 52.3814 4.9082 52.0326ZM6.05512 51.768H15.8751C15.8141 48.9307 13.8392 46.9182 11.206 46.8997C8.27429 46.8628 6.17727 48.8322 6.04833 51.7556L6.05512 51.768Z" fill="black"/>
<path d="M147.345 38.7998C147.673 36.0603 147.575 35.6584 149.607 36.1019L150.123 36.1477C151.686 36.2191 153.731 35.8952 154.931 35.335C157.517 34.1308 159.05 32.1191 156.5 32.6476C150.684 33.8518 150.285 31.8755 150.285 31.8755C156.426 22.7275 158.994 11.1154 156.778 8.2728C150.734 0.519612 140.272 4.18587 140.097 4.28115L140.041 4.29208C138.892 4.05207 137.606 3.90942 136.162 3.88599C133.53 3.84278 131.533 4.57895 130.018 5.73214C130.018 5.73214 111.355 -1.98721 112.223 15.4398C112.407 19.1472 117.516 43.4922 123.609 36.1389C125.836 33.4504 127.988 31.1768 127.988 31.1768C129.056 31.8895 130.336 32.2529 131.678 32.1223L131.782 32.0337C131.749 32.3675 131.763 32.6939 131.824 33.0802C130.254 34.8415 130.715 35.1507 127.577 35.7989C124.402 36.456 126.268 37.6253 127.485 37.9309C128.962 38.3021 132.376 38.8274 134.685 35.5834L134.593 35.9536C135.209 36.4481 135.167 39.5079 135.254 41.694C135.341 43.8801 135.487 45.9199 135.931 47.1236C136.375 48.3263 136.899 51.4245 141.023 50.5374C144.47 49.795 147.105 48.7277 147.345 38.7998" fill="black"/>
<path d="M139.68 52.698C137.855 52.698 136.668 51.9899 135.946 51.3058C134.857 50.2745 134.425 48.9453 134.167 48.1514L134.056 47.8197C133.536 46.4114 133.36 44.3841 133.256 41.7737C133.241 41.3656 133.228 40.9574 133.217 40.5491C133.208 40.2362 133.197 39.8437 133.182 39.4319C132.525 39.7466 131.827 39.968 131.109 40.09C129.823 40.3107 128.44 40.2388 126.999 39.877C125.982 39.6219 124.925 39.0929 124.323 38.2756C122.567 39.8192 120.893 39.6094 119.981 39.3043C118.372 38.7655 116.932 37.252 115.578 34.6759C114.613 32.8418 113.681 30.451 112.805 27.5715C111.28 22.5562 110.311 17.274 110.225 15.5403C109.955 10.1117 111.41 6.22987 114.55 4.00315C119.505 0.489429 127.012 2.55528 129.748 3.49345C131.587 2.38087 133.75 1.8389 136.194 1.87846C137.507 1.89981 138.757 2.01591 139.918 2.22312C141.129 1.84098 143.522 1.29224 146.26 1.32608C151.306 1.38647 155.488 3.36069 158.352 7.03528C160.395 9.65717 159.385 15.1623 158.601 18.2111C157.498 22.4985 155.564 27.0597 153.189 31.03C153.834 31.0347 154.768 30.9566 156.096 30.6817C158.717 30.1381 159.483 31.549 159.691 32.1806C160.525 34.7145 156.902 36.6288 155.772 37.1552C154.324 37.8304 151.964 38.2412 150.031 38.1522L149.947 38.1464L149.439 38.1017L149.389 38.5265L149.34 38.9425C149.211 43.9738 148.495 47.1601 147.021 49.266C145.477 51.473 143.331 52.092 141.441 52.4986C140.862 52.6274 140.272 52.6943 139.68 52.698V52.698ZM135.841 34.3854C137.019 35.3314 137.122 37.1114 137.214 40.4383C137.225 40.8532 137.236 41.2463 137.251 41.6133C137.295 42.7243 137.399 45.3264 137.805 46.426C137.863 46.5811 137.914 46.7394 137.968 46.906C138.42 48.2971 138.647 48.9942 140.603 48.5736C142.245 48.2206 143.089 47.9035 143.75 46.9591C144.71 45.5857 145.247 42.8248 145.346 38.7504L147.343 38.7993L145.359 38.5603L145.417 38.0631C145.608 36.4242 145.745 35.2393 146.836 34.4562C147.711 33.8278 148.71 33.8888 149.505 34.0324C148.631 33.3707 148.39 32.5929 148.325 32.2743L148.159 31.4507L148.627 30.753C151.323 26.7358 153.548 21.7987 154.729 17.2073C155.942 12.4894 155.572 9.9836 155.202 9.50983C150.304 3.22533 141.808 5.81962 140.921 6.11481L140.771 6.19603L140.019 6.33712L139.634 6.25694C138.572 6.03568 137.393 5.91333 136.128 5.89251C134.141 5.85919 132.539 6.33035 131.225 7.33152L130.313 8.02552L129.255 7.58767C126.995 6.65991 120.355 4.7945 116.851 7.28571C114.906 8.66849 114.021 11.3784 114.218 15.3398C114.283 16.6476 115.168 21.5983 116.628 26.4006C118.645 33.0365 120.479 35.2403 121.245 35.497C121.378 35.5423 121.725 35.2715 122.07 34.8561C124.313 32.1473 126.446 29.8893 126.536 29.794L127.693 28.5721L129.092 29.5051C129.655 29.8815 130.277 30.0944 130.916 30.1345L134.252 27.2783L133.769 32.2295C133.758 32.3409 133.753 32.4919 133.796 32.773L133.942 33.7117L133.313 34.4188L133.24 34.5005L135.073 35.3502L135.841 34.3854V34.3854Z" fill="black"/>
<path d="M156.501 32.6476C150.685 33.8518 150.285 31.875 150.285 31.875C156.426 22.727 158.993 11.1144 156.778 8.27229C150.734 0.519099 140.272 4.18588 140.097 4.28116L140.041 4.29105C138.891 4.05208 137.606 3.90943 136.161 3.886C133.529 3.84279 131.532 4.57844 130.017 5.73163C130.017 5.73163 111.354 -1.9872 112.222 15.4398C112.406 19.1472 117.515 43.4923 123.608 36.1389C125.835 33.4504 127.986 31.1768 127.986 31.1768C129.055 31.8895 130.334 32.2529 131.676 32.1223L131.78 32.0338C131.748 32.3675 131.762 32.6939 131.822 33.0802C130.252 34.8415 130.713 35.1508 127.575 35.7989C124.4 36.456 126.265 37.6253 127.484 37.9309C128.96 38.3021 132.375 38.8274 134.683 35.5834L134.591 35.9536C135.206 36.4482 135.638 39.1705 135.565 41.6383C135.493 44.1061 135.444 45.8002 135.929 47.1236C136.414 48.4466 136.897 51.4245 141.022 50.5374C144.468 49.7955 146.254 47.8739 146.503 44.6689C146.679 42.3901 147.078 42.7269 147.104 40.6892L147.424 39.7245C147.793 36.6351 147.483 35.6386 149.606 36.1025L150.122 36.1478C151.685 36.2196 153.731 35.8952 154.931 35.3351C157.517 34.1303 159.05 32.1191 156.501 32.6476V32.6476Z" fill="#336791"/>
<path d="M139.889 51.4609C136.45 51.4614 135.361 48.7276 134.915 47.6098C134.263 45.9719 134.122 39.614 134.267 34.3999C134.277 34.2259 134.354 34.0624 134.482 33.9444C134.609 33.8264 134.778 33.7631 134.952 33.768C135.125 33.7729 135.29 33.8456 135.411 33.9706C135.532 34.0956 135.6 34.2631 135.6 34.4374C135.432 40.4512 135.67 45.9006 136.153 47.1126C136.906 49.0036 138.049 50.6576 141.28 49.9631C144.347 49.3024 145.496 48.1346 146.007 45.1577C146.4 42.8726 147.176 36.3726 147.272 35.0898C147.285 34.9128 147.367 34.7484 147.501 34.6326C147.635 34.5168 147.81 34.4591 147.986 34.4723C148.162 34.4855 148.326 34.5684 148.441 34.7029C148.557 34.8373 148.614 35.0123 148.601 35.1892C148.501 36.5241 147.729 43.0122 147.32 45.3852C146.716 48.902 145.155 50.4972 141.559 51.2714C141.01 51.3932 140.45 51.4567 139.889 51.4609V51.4609ZM121.245 38.1094C120.945 38.1091 120.646 38.0597 120.361 37.9631C118.128 37.215 116.001 33.5633 114.038 27.1086C112.545 22.1949 111.598 17.0667 111.515 15.4001C111.269 10.4594 112.537 6.96337 115.283 5.00998C120.716 1.14536 129.855 4.82568 130.241 4.98395C130.404 5.05207 130.532 5.18173 130.6 5.34471C130.667 5.50769 130.668 5.69078 130.601 5.85412C130.535 6.01746 130.407 6.14783 130.245 6.21682C130.083 6.28582 129.901 6.28787 129.737 6.22252V6.22304C129.649 6.1866 120.885 2.66195 116.051 6.10382C113.703 7.77555 112.625 10.8806 112.846 15.334C112.916 16.7376 113.8 21.7435 115.313 26.7186C117.065 32.4804 119.059 36.117 120.783 36.6938C121.053 36.7849 121.877 37.0604 123.055 35.639C125.27 32.963 127.306 30.8274 127.326 30.8061C127.45 30.6855 127.616 30.6179 127.788 30.6174C127.961 30.6169 128.127 30.6836 128.251 30.8034C128.376 30.9233 128.449 31.0869 128.456 31.2601C128.463 31.4332 128.403 31.6022 128.288 31.7317C128.268 31.7526 126.264 33.8564 124.08 36.4944C123.045 37.7429 122.053 38.1094 121.245 38.1094V38.1094ZM150.244 32.4715C150.123 32.4717 150.004 32.4388 149.901 32.3763C149.797 32.3138 149.712 32.224 149.655 32.1168C149.598 32.0095 149.572 31.8887 149.578 31.7674C149.585 31.6461 149.624 31.5288 149.692 31.4282C155.9 22.1798 158.079 11.0055 156.213 8.61168C153.863 5.59829 150.546 4.02391 146.353 3.93384C143.249 3.86616 140.781 4.6622 140.378 4.80121L140.277 4.84234C139.871 4.97041 139.56 4.74706 139.443 4.48623C139.376 4.33678 139.366 4.16799 139.414 4.0116C139.463 3.85522 139.567 3.72202 139.706 3.63708L139.886 3.56315L139.877 3.56576L139.886 3.56263C140.571 3.31117 143.076 2.55626 146.18 2.59218C150.82 2.64112 154.652 4.43781 157.263 7.78649C158.498 9.37128 158.501 13.0224 157.27 17.8034C156.017 22.6775 153.657 27.9166 150.798 32.1763C150.737 32.2674 150.654 32.342 150.558 32.3935C150.461 32.445 150.354 32.4718 150.244 32.4715V32.4715ZM150.561 36.7527C149.501 36.7527 148.551 36.6032 147.982 36.2607C147.397 35.9092 147.286 35.4308 147.271 35.1772C147.111 32.3638 148.658 31.8739 149.447 31.6505C149.337 31.4839 149.18 31.2876 149.019 31.0851C148.559 30.5083 147.929 29.7179 147.444 28.5361C147.368 28.3518 147.13 27.9223 146.854 27.4256C145.359 24.7345 142.248 19.1341 144.246 16.266C145.171 14.9389 147.012 14.4167 149.726 14.7082C148.928 12.267 145.126 4.62992 136.108 4.48154C133.395 4.43573 131.171 5.27342 129.499 6.96754C125.757 10.7624 125.893 17.6284 125.894 17.6966C125.896 17.7845 125.881 17.8719 125.85 17.9539C125.819 18.0359 125.772 18.1109 125.711 18.1746C125.651 18.2383 125.579 18.2895 125.499 18.3252C125.419 18.361 125.333 18.3805 125.245 18.3828C125.158 18.3851 125.071 18.3701 124.989 18.3386C124.907 18.3071 124.833 18.2598 124.769 18.1993C124.706 18.1388 124.655 18.0664 124.619 17.9861C124.584 17.9059 124.564 17.8193 124.562 17.7315C124.554 17.427 124.414 10.222 128.552 6.02572C130.489 4.06191 133.039 3.09251 136.13 3.14301C141.901 3.23828 145.614 6.18295 147.714 8.63719C150.002 11.3111 151.124 14.261 151.217 15.245C151.286 15.977 150.762 16.1238 150.656 16.1452L150.416 16.1509C147.753 15.7229 146.045 16.0197 145.339 17.0334C143.819 19.2137 146.761 24.5111 148.018 26.7738C148.339 27.3506 148.57 27.7677 148.676 28.0254C149.089 29.0302 149.627 29.7054 150.06 30.2479C150.44 30.7254 150.77 31.1387 150.888 31.625C150.942 31.7213 151.719 32.874 156.327 31.9192C157.482 31.6802 158.174 31.8848 158.385 32.5272C158.802 33.7919 156.466 35.2663 155.172 35.8697C154.012 36.4106 152.162 36.7527 150.561 36.7527V36.7527ZM148.6 35.0669C148.746 35.2152 149.477 35.4704 150.992 35.4053C152.338 35.347 153.759 35.0528 154.611 34.6561C155.701 34.148 156.428 33.58 156.805 33.1921L156.596 33.2306C153.65 33.8413 151.566 33.7601 150.403 32.9885C150.325 32.9368 150.249 32.8806 150.177 32.8204C150.051 32.8703 149.935 32.9031 149.852 32.9266C149.191 33.1124 148.509 33.3045 148.6 35.0669V35.0669ZM129.57 38.8045C128.838 38.8045 128.068 38.705 127.281 38.5067C126.467 38.3021 125.092 37.6861 125.114 36.6746C125.137 35.5391 126.781 35.1986 127.401 35.0705C129.637 34.6082 129.783 34.4229 130.482 33.5321C130.686 33.2723 130.939 32.949 131.285 32.5611C131.798 31.9848 132.359 31.6922 132.953 31.6922C133.365 31.6922 133.705 31.8332 133.928 31.9259C134.642 32.2227 135.237 32.9401 135.482 33.7991C135.703 34.5738 135.597 35.3194 135.185 35.8983C133.833 37.8002 131.891 38.8045 129.57 38.8045V38.8045ZM126.553 36.7324C126.754 36.888 127.157 37.0963 127.604 37.2093C128.286 37.38 128.947 37.467 129.57 37.467C131.469 37.467 132.993 36.6772 134.101 35.121C134.332 34.7961 134.263 34.3843 134.201 34.1672C134.071 33.7132 133.75 33.3004 133.418 33.1619C133.238 33.0869 133.089 33.0297 132.953 33.0297C132.879 33.0297 132.655 33.0297 132.278 33.4529C131.96 33.8101 131.731 34.1016 131.529 34.3593C130.658 35.4688 130.26 35.8452 127.67 36.3809C127.038 36.5121 126.714 36.6444 126.553 36.7324ZM131.678 33.6461C131.519 33.6458 131.365 33.5885 131.244 33.4844C131.124 33.3804 131.044 33.2364 131.02 33.0786C131.003 32.9675 130.992 32.8556 130.987 32.7433C129.289 32.711 127.651 31.9801 126.408 30.6775C124.836 29.0307 124.121 26.7493 124.445 24.4185C124.798 21.8872 124.666 19.6526 124.595 18.4521C124.577 18.2051 124.566 17.9577 124.562 17.7102C124.563 17.4988 124.568 16.937 126.437 15.9859C127.102 15.6474 128.435 15.0571 129.891 14.9056C132.305 14.6557 133.895 15.7344 134.371 17.9439C135.656 23.9103 134.473 26.5494 133.609 28.4762C133.448 28.8344 133.296 29.1739 133.175 29.5019L133.067 29.7919C132.611 31.0205 132.216 32.0821 132.338 32.8755C132.364 33.0509 132.321 33.2298 132.216 33.3729C132.111 33.516 131.955 33.6116 131.78 33.6388L131.678 33.6461V33.6461ZM125.899 17.895L125.926 18.3729C125.999 19.6198 126.136 21.9408 125.765 24.6043C125.497 26.5265 126.082 28.4034 127.37 29.7523C128.388 30.8185 129.728 31.4069 131.104 31.4069H131.133C131.287 30.7545 131.543 30.0662 131.818 29.3243L131.925 29.0364C132.063 28.6657 132.223 28.307 132.394 27.9275C133.225 26.072 134.26 23.7625 133.068 18.2266C132.832 17.1307 132.259 16.4961 131.318 16.2868C129.385 15.8578 126.504 17.3176 125.899 17.895V17.895ZM129.921 17.6113C129.888 17.8476 130.353 18.4791 130.959 18.5635C131.564 18.6483 132.082 18.1548 132.115 17.9184C132.148 17.6815 131.683 17.4212 131.077 17.3364C130.472 17.2515 129.954 17.3744 129.921 17.6113V17.6113ZM131.099 18.7967L130.929 18.7848C130.553 18.7322 130.172 18.4942 129.913 18.148C129.821 18.0267 129.672 17.7904 129.702 17.58C129.744 17.2713 130.119 17.087 130.704 17.087C130.835 17.087 130.971 17.0969 131.109 17.1156C131.428 17.1604 131.725 17.2531 131.944 17.3759C132.325 17.5894 132.353 17.8268 132.335 17.9502C132.288 18.2902 131.748 18.7967 131.099 18.7967V18.7967ZM130.142 17.6508C130.162 17.7966 130.521 18.2782 130.99 18.3433L131.098 18.3511C131.531 18.3511 131.854 18.009 131.892 17.8971C131.852 17.8211 131.574 17.631 131.046 17.5582C130.933 17.5418 130.818 17.5334 130.703 17.5332C130.365 17.5326 130.184 17.6092 130.142 17.6508V17.6508ZM148.356 17.1286C148.388 17.3655 147.924 17.997 147.318 18.0814C146.712 18.1657 146.194 17.6727 146.161 17.4358C146.129 17.1994 146.593 16.9386 147.199 16.8543C147.805 16.7689 148.322 16.8928 148.356 17.1286ZM147.178 18.2022C146.595 18.2022 146.092 17.7466 146.051 17.4514C146.003 17.0969 146.585 16.8272 147.184 16.7439C147.316 16.7251 147.446 16.7158 147.572 16.7158C148.089 16.7158 148.432 16.8683 148.466 17.1135C148.488 17.2728 148.367 17.5181 148.157 17.7388C148.019 17.8846 147.729 18.1371 147.334 18.1918L147.178 18.2022ZM147.572 16.9386C147.456 16.9386 147.336 16.9475 147.214 16.9641C146.612 17.0479 146.253 17.2911 146.27 17.4212C146.291 17.5639 146.675 17.9793 147.178 17.9793L147.302 17.9705C147.631 17.9242 147.877 17.7091 147.995 17.5847C148.18 17.3895 148.253 17.2062 148.245 17.1432C148.234 17.0615 148.012 16.9386 147.572 16.9386V16.9386ZM149.228 30.7108C149.108 30.7107 148.989 30.6777 148.886 30.6154C148.782 30.553 148.698 30.4636 148.641 30.3567C148.584 30.2498 148.557 30.1294 148.563 30.0083C148.569 29.8873 148.608 29.7702 148.675 29.6695C150.094 27.5417 149.834 25.3712 149.583 23.2731C149.476 22.3786 149.365 21.4545 149.394 20.5669C149.423 19.6542 149.538 18.9014 149.65 18.1725C149.783 17.3098 149.908 16.494 149.856 15.5267C149.852 15.3528 149.916 15.1843 150.033 15.0568C150.151 14.9292 150.314 14.8527 150.487 14.8434C150.66 14.834 150.829 14.8926 150.96 15.0067C151.091 15.1209 151.172 15.2816 151.187 15.4548C151.246 16.5606 151.105 17.4832 150.968 18.3761C150.862 19.0648 150.752 19.7771 150.726 20.6096C150.701 21.3952 150.801 22.2297 150.906 23.1127C151.174 25.3447 151.476 27.8744 149.783 30.4135C149.654 30.6061 149.443 30.7108 149.228 30.7108Z" fill="white"/>
<path d="M104.223 52.9135C104.967 52.7922 105.721 52.7334 106.475 52.7375C107.634 52.7375 108.484 53.0082 109.023 53.4955C109.522 53.9287 109.819 54.592 109.819 55.4047C109.819 56.2304 109.575 56.8801 109.117 57.3539C108.497 58.0172 107.486 58.3556 106.34 58.3556C105.989 58.3556 105.665 58.3421 105.396 58.2744V61.9297H104.223V52.9135V52.9135ZM105.396 57.3128C105.652 57.3805 105.976 57.4075 106.367 57.4075C107.782 57.4075 108.646 56.7172 108.646 55.4583C108.646 54.2536 107.796 53.6715 106.502 53.6715C105.989 53.6715 105.598 53.7121 105.396 53.7663V57.3128V57.3128ZM116.924 58.5987C116.924 61.0217 115.252 62.0781 113.674 62.0781C111.908 62.0781 110.546 60.7786 110.546 58.707C110.546 56.5141 111.975 55.2282 113.782 55.2282C115.657 55.2277 116.924 56.5954 116.924 58.5987V58.5987ZM111.747 58.6664C111.747 60.1013 112.569 61.1842 113.729 61.1842C114.861 61.1842 115.71 60.1148 115.71 58.6393C115.71 57.5294 115.158 56.1216 113.755 56.1216C112.352 56.1216 111.747 57.4211 111.747 58.6664ZM118.259 60.7104C118.609 60.9405 119.229 61.1842 119.823 61.1842C120.686 61.1842 121.09 60.751 121.09 60.2096C121.09 59.641 120.754 59.3297 119.877 59.0048C118.704 58.5852 118.151 57.9355 118.151 57.1503C118.151 56.0945 119 55.2282 120.402 55.2282C121.063 55.2282 121.643 55.4177 122.007 55.6343L121.711 56.5006C121.31 56.2523 120.847 56.1211 120.376 56.1216C119.675 56.1216 119.284 56.5277 119.284 57.015C119.284 57.5564 119.675 57.8001 120.525 58.125C121.657 58.5581 122.237 59.1267 122.237 60.1013C122.237 61.2519 121.347 62.064 119.797 62.064C119.082 62.064 118.421 61.8881 117.963 61.6173L118.259 60.7104V60.7104ZM125.189 53.495V55.3766H126.888V56.2835H125.189V59.8165C125.189 60.6287 125.418 61.0889 126.079 61.0889C126.311 61.0923 126.542 61.065 126.767 61.0077L126.821 61.9011C126.592 61.9958 126.228 62.0635 125.77 62.0635C125.217 62.0635 124.771 61.8875 124.488 61.5627C124.152 61.2107 124.03 60.6287 124.03 59.8571V56.2835H123.019V55.3766H124.03V53.8064L125.189 53.495V53.495ZM133.765 55.3771C133.737 55.8509 133.711 56.3788 133.711 57.1774V60.9811C133.711 62.4837 133.414 63.4041 132.78 63.9732C132.147 64.5688 131.23 64.7583 130.407 64.7583C129.625 64.7583 128.763 64.5688 128.236 64.2168L128.533 63.3099C128.964 63.5806 129.638 63.8243 130.447 63.8243C131.661 63.8243 132.551 63.1881 132.551 61.5366V60.8057H132.524C132.16 61.4148 131.459 61.9021 130.447 61.9021C128.829 61.9021 127.67 60.5214 127.67 58.707C127.67 56.4871 129.113 55.2282 130.609 55.2282C131.742 55.2282 132.363 55.8238 132.646 56.3652H132.673L132.727 55.3771H133.765V55.3771ZM132.538 57.9625C132.538 57.7595 132.524 57.5835 132.47 57.4211C132.255 56.7307 131.675 56.1622 130.812 56.1622C129.679 56.1622 128.87 57.1233 128.87 58.6393C128.87 59.9253 129.518 60.9947 130.798 60.9947C131.527 60.9947 132.187 60.5344 132.443 59.7764C132.511 59.5734 132.538 59.3432 132.538 59.1402V57.9625H132.538ZM135.598 57.4211C135.598 56.6495 135.584 55.9862 135.544 55.3771H136.583L136.623 56.663H136.677C136.973 55.7832 137.688 55.2282 138.483 55.2282C138.618 55.2282 138.712 55.2417 138.82 55.2688V56.3923C138.687 56.3633 138.552 56.3497 138.416 56.3517C137.58 56.3517 136.986 56.9879 136.825 57.8813C136.792 58.0645 136.774 58.2501 136.771 58.4363V61.9287H135.598V57.4211ZM140.533 58.8695C140.56 60.4803 141.584 61.1436 142.771 61.1436C143.621 61.1436 144.133 60.9947 144.578 60.8052L144.78 61.6579C144.362 61.8475 143.647 62.064 142.609 62.064C140.6 62.064 139.4 60.7375 139.4 58.7612C139.4 56.7849 140.56 55.2277 142.461 55.2277C144.591 55.2277 145.157 57.1092 145.157 58.314C145.157 58.5576 145.131 58.7471 145.117 58.8689H140.533V58.8695ZM144.012 58.0167C144.025 57.2586 143.701 56.081 142.367 56.081C141.167 56.081 140.641 57.191 140.546 58.0167H144.012V58.0167Z" fill="black"/>
<path d="M146.506 60.4938C147.142 60.8771 147.868 61.0827 148.61 61.0894C149.81 61.0894 150.511 60.4532 150.511 59.5327C150.511 58.6799 150.025 58.1926 148.798 57.7188C147.315 57.1909 146.398 56.4193 146.398 55.1334C146.398 53.7121 147.571 52.6562 149.338 52.6562C150.268 52.6562 150.942 52.8728 151.347 53.1029L151.023 54.064C150.493 53.7778 149.899 53.6289 149.297 53.6309C148.057 53.6309 147.585 54.3754 147.585 54.998C147.585 55.8508 148.137 56.2704 149.392 56.7578C150.929 57.3539 151.711 58.0979 151.711 59.4379C151.711 60.8457 150.672 62.064 148.529 62.064C147.652 62.064 146.695 61.8068 146.209 61.4819L146.506 60.4938V60.4938ZM160.812 63.2687C159.64 62.9599 158.479 62.6077 157.333 62.2129C157.144 62.1452 156.956 62.0775 156.78 62.0775C154.623 61.9963 152.776 60.399 152.776 57.4616C152.776 54.5378 154.556 52.6562 157.01 52.6562C159.477 52.6562 161.082 54.5784 161.082 57.2721C161.082 59.6139 160.003 61.1165 158.493 61.6444V61.6985C159.397 61.9286 160.381 62.1452 161.149 62.2806L160.812 63.2687V63.2687ZM159.841 57.3263C159.841 55.4989 158.898 53.6168 156.969 53.6168C154.987 53.6168 154.016 55.4577 154.03 57.4346C154.016 59.3703 155.081 61.1165 156.915 61.1165C158.79 61.1165 159.841 59.4109 159.841 57.3263V57.3263ZM162.604 52.8051H163.778V60.9405H167.661V61.9286H162.604V52.8051Z" fill="#336791"/>
<path d="M0 27.4282L0.183648 27.171L8.86897 10.6909L8.88731 10.5164L5.05874 3.32476C4.73781 2.72235 3.83471 2.87459 3.72952 3.54898L0 27.4282Z" fill="#FFC24A"/>
<path d="M0.108398 27.232L0.247237 26.9612L8.8407 10.6538L5.02259 3.4329C4.70512 2.83671 3.89917 2.9887 3.79424 3.65608L0.108398 27.232Z" fill="#FFA712"/>
<path d="M0.108398 27.232L0.247237 26.9612L8.8407 10.6538L5.02259 3.4329C4.70512 2.83671 3.89917 2.9887 3.79424 3.65608L0.108398 27.232Z" fill="black"/>
<path d="M11.6781 15.9563L14.5288 13.0368L11.6773 7.59308C11.4066 7.07778 10.6508 7.07631 10.383 7.59308L8.85938 10.4996V10.747L11.6781 15.9563Z" fill="#F4BD62"/>
<path d="M11.628 15.8346L14.3994 12.9962L11.628 7.71885C11.3648 7.21713 10.7255 7.1654 10.4651 7.66695L8.93354 10.6167L8.8877 10.7676L11.628 15.8346Z" fill="#FFA50E"/>
<path d="M11.628 15.8346L14.3994 12.9962L11.628 7.71885C11.3648 7.21713 10.7255 7.1654 10.4651 7.66695L8.93354 10.6167L8.8877 10.7676L11.628 15.8346Z" fill="black"/>
<path d="M8.86776 10.4827L0 27.4282L0.0832167 27.3444L0.385634 27.2216L11.4995 16.1491L11.6401 15.7659L8.86776 10.4827Z" fill="#F6820C"/>
<path d="M12.0344 33.0121L22.0926 27.4025L19.2211 9.71232C19.1312 9.15887 18.4523 8.94002 18.0562 9.33689L0 27.4281L10.0005 33.0118C10.3114 33.1853 10.6615 33.2764 11.0175 33.2765C11.3735 33.2766 11.7236 33.1856 12.0345 33.0122" fill="#FDE068"/>
<path d="M22.0024 27.3557L19.152 9.80044C19.0629 9.25114 18.498 9.02389 18.1049 9.41774L0.112305 27.3938L10.003 32.9213C10.6301 33.2715 11.394 33.2717 12.0215 32.9219L22.0024 27.3557Z" fill="#FCCA3F"/>
<path d="M12.0344 32.8469C11.4029 33.1995 10.6324 33.1994 10.0004 32.8464L0.0804485 27.3431L0 27.4282L10.0005 33.0118C10.6325 33.3648 11.4022 33.3648 12.0345 33.0123L22.0927 27.4027L22.0681 27.2511L12.0344 32.8469Z" fill="#EEAB37"/>
<path d="M29.7079 24.8303H27.9961V11.5081H35.7639V13.145H29.7079V17.518H35.1789V19.1196H29.7079V24.8303ZM38.7732 13.4241C38.5373 13.66 38.2525 13.7789 37.9178 13.7789C37.7585 13.7817 37.6003 13.7516 37.4532 13.6906C37.306 13.6295 37.173 13.5388 37.0624 13.4241C36.9481 13.3132 36.8577 13.1801 36.7967 13.033C36.7357 12.8859 36.7054 12.7279 36.7076 12.5687C36.7048 12.4094 36.7349 12.2512 36.7959 12.1041C36.857 11.9569 36.9477 11.8239 37.0624 11.7133C37.1733 11.599 37.3064 11.5086 37.4535 11.4476C37.6006 11.3866 37.7586 11.3563 37.9178 11.3584C38.0771 11.3557 38.2353 11.3858 38.3824 11.4468C38.5296 11.5079 38.6626 11.5986 38.7732 11.7133C38.8875 11.8242 38.9779 11.9573 39.0389 12.1044C39.0999 12.2515 39.1302 12.4095 39.1281 12.5687C39.1308 12.728 39.1007 12.8862 39.0397 13.0333C38.9786 13.1805 38.8879 13.3135 38.7732 13.4241V13.4241ZM38.7732 24.8303H37.0614V15.7132H38.7732V24.8303ZM42.4682 24.8303H40.7555V15.7132H42.3925V17.2016H42.4663C42.6389 16.7058 42.9966 16.2963 43.5365 15.9741C44.0764 15.6519 44.5914 15.4898 45.1093 15.4898C45.6271 15.4898 46.0462 15.5646 46.3943 15.7132L45.7422 17.3147C45.5188 17.2188 45.2148 17.1843 44.8312 17.1843C44.2107 17.1843 43.6612 17.4289 43.1846 17.9189C42.708 18.4089 42.4682 19.0505 42.4682 19.8446V24.8313V24.8303ZM50.8958 25.118C49.5187 25.118 48.3996 24.6596 47.5374 23.7409C46.6753 22.8222 46.2428 21.6638 46.2428 20.2617C46.2428 18.9345 46.6609 17.7933 47.4895 16.8381C48.3181 15.883 49.4075 15.4054 50.6992 15.4054C52.0418 15.4054 53.1331 15.8465 53.9464 16.7269C54.7596 17.6072 55.1643 18.7858 55.1643 20.2627L55.1451 20.5791H47.9527C48.0025 21.4969 48.3094 22.2229 48.8733 22.7561C49.1349 23.0131 49.4447 23.216 49.7848 23.3533C50.1249 23.4905 50.4888 23.5593 50.8555 23.5558C52.0831 23.5558 52.9145 23.0351 53.3489 21.9927L54.8833 22.6256C54.5956 23.3324 54.095 23.9251 53.4132 24.4026C52.7313 24.8802 51.8932 25.119 50.9006 25.119L50.8958 25.118ZM53.3508 19.1723C53.3125 18.6516 53.0746 18.1558 52.6345 17.684C52.1943 17.2121 51.5393 16.9772 50.6714 16.9772C50.0385 16.9772 49.4899 17.1757 49.0248 17.5717C48.5597 17.9678 48.2404 18.502 48.0658 19.1733H53.3403L53.3508 19.1723ZM61.3709 25.118C60.6756 25.118 60.0523 24.9694 59.5008 24.6712C58.9494 24.3729 58.5361 24.0018 58.2542 23.5549H58.1899V24.8208H56.5529V11.5081H58.2647V15.7132L58.1899 16.9791H58.2647C58.538 16.5322 58.9504 16.1601 59.5114 15.8628C60.0724 15.5655 60.6871 15.4159 61.3814 15.4159C62.561 15.4159 63.5871 15.881 64.4329 16.8113C65.2788 17.7415 65.718 18.8952 65.718 20.2636C65.718 21.6321 65.2903 22.7954 64.4329 23.716C63.5756 24.6366 62.56 25.1113 61.3814 25.1113L61.3709 25.118ZM61.0832 23.5549C61.8772 23.5549 62.56 23.2538 63.1297 22.6534C63.6993 22.0531 63.9851 21.2552 63.9851 20.2627C63.9851 19.2701 63.6993 18.4732 63.1297 17.8719C62.56 17.2706 61.8763 16.9705 61.0832 16.9705C60.6965 16.9629 60.3128 17.0386 59.958 17.1925C59.6032 17.3464 59.2858 17.5748 59.0271 17.8623C58.4632 18.4665 58.1803 19.2577 58.1803 20.2627C58.1803 21.2677 58.4623 22.0675 59.0271 22.663C59.5919 23.2586 60.2767 23.5568 61.0832 23.5568V23.5549ZM70.206 25.118C69.2471 25.118 68.429 24.8303 67.7779 24.2808C67.1267 23.7313 66.7997 22.9843 66.7997 22.0752C66.7997 21.0826 67.1833 20.3049 67.9534 19.74C68.7234 19.1752 69.6719 18.8932 70.8016 18.8932C71.8066 18.8932 72.6313 19.0793 73.2758 19.4514V19.1905C73.2758 18.5192 73.0456 17.9841 72.5872 17.5813C72.1288 17.1786 71.564 16.9772 70.8936 16.9772C70.3969 16.9772 69.9471 17.0951 69.5443 17.332C69.1611 17.5445 68.8673 17.8881 68.7167 18.2996L67.1536 17.6302C67.3646 17.0836 67.7798 16.5792 68.4003 16.115C69.0207 15.6509 69.8388 15.4169 70.8553 15.4169C72.0214 15.4169 72.989 15.7583 73.7581 16.4401C74.5273 17.122 74.9118 18.0838 74.9118 19.3238V24.8313H73.2844V23.5654H73.2096C72.5268 24.6069 71.5285 25.1286 70.2137 25.1286L70.206 25.118ZM70.4937 23.5549C71.2005 23.5549 71.843 23.2912 72.4194 22.7637C72.9958 22.2363 73.2844 21.6129 73.2844 20.8937C72.8011 20.4967 72.0761 20.2991 71.1075 20.2991C70.2761 20.2991 69.6498 20.4794 69.2279 20.839C68.8059 21.1987 68.5949 21.6206 68.5949 22.1049C68.5949 22.5518 68.7867 22.9047 69.1723 23.1655C69.5578 23.4264 69.997 23.5568 70.4937 23.5568V23.5549ZM79.8919 25.118C78.8753 25.118 78.0343 24.8687 77.3697 24.3739C76.7222 23.8986 76.2172 23.2552 75.9092 22.5134L77.4436 21.8805C77.9269 23.0313 78.7526 23.5923 79.9177 23.5923C80.4509 23.5923 80.8882 23.4743 81.2296 23.2375C81.571 23.0006 81.7417 22.6908 81.7417 22.3072C81.7417 21.7127 81.3265 21.3099 80.4951 21.0989L78.6538 20.652C78.0707 20.5034 77.5183 20.2205 76.9976 19.8052C76.4769 19.39 76.2189 18.8491 76.2189 18.1318C76.2189 17.3262 76.5757 16.6713 77.2892 16.1687C78.0026 15.6662 78.8494 15.415 79.8305 15.415C80.636 15.415 81.3649 15.6068 81.9882 15.9635C82.6115 16.3203 83.0738 16.8535 83.3471 17.5363L81.8587 18.15C81.5231 17.3445 80.8288 16.9417 79.7749 16.9417C79.2666 16.9417 78.8379 17.0376 78.4898 17.2582C78.1417 17.4787 77.9691 17.754 77.9691 18.1136C77.9691 18.6343 78.3719 18.9882 79.1774 19.1742L80.9822 19.6019C81.8376 19.8004 82.4706 20.1418 82.881 20.6252C83.2915 21.1085 83.4948 21.6551 83.4948 22.2622C83.4948 23.0811 83.1591 23.763 82.4898 24.3087C81.8204 24.8543 80.9573 25.1276 79.9034 25.1276L79.8919 25.118ZM89.009 25.118C87.6319 25.118 86.5118 24.6596 85.6506 23.7409C84.7894 22.8222 84.356 21.6638 84.356 20.2617C84.356 18.9345 84.7741 17.7933 85.6026 16.8381C86.4312 15.883 87.5206 15.4054 88.8124 15.4054C90.155 15.4054 91.2463 15.8465 92.0595 16.7269C92.8727 17.6072 93.2774 18.7858 93.2774 20.2627V20.5791H86.085C86.133 21.4969 86.4418 22.2229 87.0056 22.7561C87.2672 23.013 87.5767 23.2158 87.9167 23.3531C88.2567 23.4903 88.6203 23.5592 88.9869 23.5558C90.2144 23.5558 91.0459 23.0351 91.4803 21.9927L93.0147 22.6256C92.727 23.3324 92.2264 23.9251 91.5445 24.4026C90.8627 24.8802 90.0245 25.119 89.032 25.119L89.009 25.118ZM91.464 19.1723C91.4256 18.6516 91.1878 18.1558 90.7476 17.684C90.3074 17.2121 89.6525 16.9772 88.7846 16.9772C88.1812 16.9666 87.595 17.1786 87.138 17.5727C86.6729 17.9697 86.3535 18.5029 86.179 19.1742H91.4534L91.464 19.1723Z" fill="#63666A"/>
</svg>
