<svg width="118" height="134" viewBox="0 0 118 134" fill="none" xmlns="http://www.w3.org/2000/svg">
<g clip-path="url(#clip0_94_269)">
<path d="M117.801 39.4144C117.8 37.1673 117.324 35.1817 116.361 33.4776C115.416 31.8018 113.999 30.3973 112.099 29.2868C96.4157 20.1594 80.7171 11.0599 65.0387 1.92327C60.8119 -0.539664 56.7138 -0.449874 52.5183 2.04842C46.2758 5.76422 15.022 23.8371 5.70871 29.2817C1.87325 31.5227 0.00691406 34.9524 0.00599219 39.4102C0 57.7659 0.00599219 76.1211 0 94.4773C0.000921875 96.6751 0.456789 98.622 1.37728 100.301C2.32359 102.027 3.75987 103.47 5.70364 104.606C15.0173 110.05 46.2754 128.122 52.5165 131.839C56.7138 134.338 60.812 134.428 65.0401 131.964C80.7189 122.827 96.4185 113.728 112.104 104.6C114.048 103.465 115.484 102.021 116.431 100.296C117.35 98.6174 117.806 96.6704 117.807 94.4722C117.807 94.4722 117.807 57.7706 117.801 39.4144" fill="#5C8DBC"/>
<path d="M59.0836 66.7646L1.37695 100.3C2.32326 102.027 3.75954 103.47 5.70331 104.606C15.017 110.05 46.275 128.122 52.5161 131.838C56.7134 134.338 60.8116 134.427 65.0398 131.964C80.7186 122.826 96.4181 113.727 112.104 104.6C114.048 103.465 115.484 102.021 116.43 100.296L59.0836 66.7646" fill="#1A4674"/>
<path d="M41.9922 76.6983C45.3501 82.6151 51.6627 86.6058 58.904 86.6058C66.19 86.6058 72.5385 82.5644 75.8794 76.5843L59.0842 66.7646L41.9922 76.6983" fill="#1A4674"/>
<path d="M117.801 39.4144C117.801 37.1673 117.324 35.1817 116.361 33.4775L59.084 66.7648L116.431 100.296C117.35 98.6174 117.806 96.6704 117.807 94.4721C117.807 94.4721 117.807 57.7705 117.801 39.4144" fill="#1B598E"/>
<path d="M114.649 69.1617H110.167V73.6856H105.685V69.1617H101.204V64.6392H105.685V60.1162H110.167V64.6392H114.649V69.1617ZM98.2968 69.1617H93.816V73.6856H89.3347V69.1617H84.8535V64.6392H89.3347V60.1162H93.816V64.6392H98.2968V69.1617Z" fill="white"/>
<path d="M75.8787 76.5845C72.5379 82.5646 66.1894 86.6061 58.9033 86.6061C51.662 86.6061 45.3495 82.6153 41.9915 76.6985C40.3047 73.7296 39.4188 70.366 39.4223 66.9436C39.4223 56.0846 48.1446 47.2815 58.9033 47.2815C66.0981 47.2815 72.3774 51.2225 75.752 57.0788L92.7795 47.1824C86.0115 35.3906 73.3758 27.4575 58.9033 27.4575C37.2964 27.4575 19.7812 45.1363 19.7812 66.9436C19.7812 74.0979 21.6669 80.807 24.9626 86.594C31.7135 98.4481 44.3852 106.43 58.9033 106.43C73.4482 106.43 86.1397 98.416 92.8809 86.527L75.8787 76.5845Z" fill="white"/>
</g>
<defs>
<clipPath id="clip0_94_269">
<rect width="118" height="134" fill="white"/>
</clipPath>
</defs>
</svg>
