<svg width="126" height="126" viewBox="0 0 126 126" fill="none" xmlns="http://www.w3.org/2000/svg">
<g clip-path="url(#clip0_94_318)">
<path d="M26.4635 115.748L18.3545 24.7153H107.497L99.3883 115.714L62.8571 125.851L26.4635 115.748Z" fill="#1F72B5"/>
<path d="M62.9258 118.125L92.432 109.945L99.3882 32.1606H62.9258V118.125Z" fill="#51A3DC"/>
<path d="M33.9453 53.1722L32.8613 42.6494H92.9896L92.2916 54.8511L66.8755 66.072H91.242L88.6193 100.681L64.0439 107.288L38.559 101.101L36.9859 83.551H48.2437L48.8729 92.8153L63.6236 95.5781L77.2582 91.3823L77.8875 76.5604H36.0076L35.2382 65.5484L62.9255 53.418L33.9453 53.1722Z" fill="#EBEBEB"/>
<path d="M35.2383 65.5483L36.0076 76.5603H62.9255V53.418L35.2383 65.5483Z" fill="#CECECE"/>
<path d="M48.8734 92.8151L48.2441 83.5508H36.9863L38.5595 101.101L62.9259 107.008V95.4378L48.8734 92.8151Z" fill="#CECECE"/>
<path d="M32.8613 42.6494L33.9453 53.1722L62.9255 53.418V42.6494H32.8613Z" fill="#CECECE"/>
<path d="M71.3146 4.19586V0H54.5361V9.78787H66.0716V12.9341H54.1846V16.781H70.9655V6.64159H59.081V4.19586H71.3146Z" fill="black"/>
<path d="M40.9017 9.89357V12.9341H52.7888V16.781H36.0078V6.74729V0H52.4373V4.19586H40.9017V9.89357Z" fill="black"/>
<path d="M89.8439 4.19586V0H73.0629V9.78787H84.6009V12.9341H72.7139V16.781H89.4948V6.64159H77.6078V4.19586H89.8439Z" fill="black"/>
</g>
<defs>
<clipPath id="clip0_94_318">
<rect width="125.851" height="125.851" fill="white"/>
</clipPath>
</defs>
</svg>
