<svg width="247" height="53" viewBox="0 0 247 53" fill="none" xmlns="http://www.w3.org/2000/svg">
<path d="M76.629 53V1.03973H79.5624V9.21369C79.9089 8.85159 80.2289 8.46693 80.5203 8.06243C81.7189 5.66995 83.602 3.65558 85.9489 2.25544C88.2957 0.855303 91.009 0.127413 93.7707 0.157094C100.456 -0.0347827 105.884 2.3445 109.077 8.06243C111.108 11.6145 112.226 15.5825 112.337 19.6348C112.448 23.6872 111.549 27.7062 109.715 31.3563C106.742 37.765 99.3981 40.9501 91.5357 39.7797C89.089 39.5793 86.7333 38.793 84.6838 37.4926C82.6342 36.1922 80.9558 34.419 79.8019 32.3349V53H76.629ZM79.5624 19.4215C79.8218 21.9543 79.9216 23.758 80.2209 25.5232C81.3784 32.4692 85.6488 36.5945 92.3539 37.3428C95.5022 37.8405 98.7325 37.2729 101.494 35.7369C104.256 34.2009 106.379 31.7916 107.5 28.9194C108.789 25.9652 109.409 22.7812 109.319 19.5789C109.23 16.3766 108.433 13.2292 106.981 10.3458C105.784 7.77153 103.749 5.64167 101.182 4.27785C98.6152 2.91404 95.6566 2.39033 92.753 2.78581C90.0268 2.97573 87.4299 3.9777 85.3234 5.6524C83.2169 7.32711 81.7055 9.59132 80.9992 12.1302C80.3742 14.5319 79.8945 16.9665 79.5624 19.4215ZM172.176 26.4826C171.731 30.141 169.92 33.5196 167.079 35.9902C164.238 38.4608 160.56 39.8552 156.73 39.914C144.438 40.5088 138.67 32.661 137.753 23.6045C137.115 18.6862 137.946 13.6952 140.147 9.21369C141.68 6.13962 144.191 3.61436 147.316 2.00341C150.44 0.392472 154.017 -0.220564 157.528 0.253038C160.867 0.525076 164.031 1.79995 166.574 3.89712C169.117 5.9943 170.909 8.80749 171.697 11.9383C172.321 14.7898 172.781 17.6724 173.074 20.5728H140.766C140.167 28.7851 144.757 35.3857 151.262 36.9783C159.364 38.897 166.289 35.52 168.803 28.1136C169.362 26.214 170.38 25.9454 172.176 26.4826ZM140.766 17.9441H169.641C169.462 9.1945 163.794 2.86256 156.112 2.76662C147.411 2.63231 141.145 8.73399 140.766 17.9441ZM178.122 26.6745H180.956C181.061 28.6793 181.738 30.6177 182.914 32.2763C184.09 33.935 185.719 35.2499 187.621 36.0765C190.01 37.1102 192.611 37.6125 195.23 37.5461C197.849 37.4797 200.418 36.8461 202.747 35.6927C204.017 35.1425 205.08 34.2313 205.794 33.0818C206.507 31.9324 206.837 30.6001 206.739 29.2648C206.812 27.9769 206.446 26.7013 205.697 25.6314C204.948 24.5614 203.856 23.7555 202.588 23.3358C199.475 22.2229 196.162 21.6089 192.989 20.6304C189.688 19.7264 186.46 18.5913 183.331 17.2341C178.222 14.8357 177.903 5.49128 183.69 2.53637C186.653 0.928512 189.988 0.0598073 193.39 0.00953259C196.792 -0.0407421 200.153 0.729012 203.167 2.24855C204.992 3.21854 206.466 4.7005 207.393 6.49685C208.32 8.29319 208.656 10.3186 208.355 12.3029H205.92C205.92 12.1878 205.701 12.0918 205.701 11.9767C205.402 4.5127 198.896 2.21018 191.912 2.86256C189.827 3.10985 187.802 3.70051 185.925 4.60864C184.798 5.10437 183.858 5.92438 183.236 6.95547C182.614 7.98657 182.34 9.17788 182.453 10.3649C182.456 11.5526 182.842 12.7101 183.556 13.6788C184.271 14.6475 185.279 15.38 186.444 15.7759C189.517 16.8504 192.73 17.5411 195.883 18.3854C198.417 19.057 201.051 19.4983 203.506 20.3042C205.238 20.8502 206.757 21.8893 207.862 23.2838C208.967 24.6783 209.605 26.3626 209.692 28.1136C209.988 30.0321 209.648 31.9915 208.72 33.7137C207.793 35.4359 206.324 36.8333 204.523 37.7074C197.858 41.3339 186.883 40.3745 181.994 35.7886C180.755 34.5904 179.775 33.1681 179.11 31.6038C178.446 30.0395 178.11 28.3642 178.122 26.6745ZM245.612 12.3029H242.958C242.958 11.9575 242.818 11.6505 242.778 11.3627C242.735 9.44981 242.01 7.6092 240.724 6.1491C239.438 4.68901 237.669 3.69808 235.714 3.34225C232.025 2.3245 228.089 2.50662 224.519 3.86032C223.108 4.24941 221.865 5.06692 220.977 6.19082C220.088 7.31472 219.602 8.68472 219.59 10.0963C219.54 11.4826 219.99 12.8429 220.862 13.9476C221.735 15.0522 222.977 15.8335 224.379 16.1596C228.37 17.3493 232.461 18.0784 236.512 19.1529C237.825 19.4559 239.118 19.8339 240.383 20.285C242.274 20.9353 243.916 22.1187 245.096 23.6807C246.275 25.2426 246.938 27.1104 246.996 29.04C247.054 30.9695 246.505 32.8711 245.422 34.4962C244.338 36.1212 242.77 37.3942 240.922 38.1487C238.106 39.3783 235.054 40.0288 231.961 40.0585C228.869 40.0883 225.803 39.4966 222.962 38.3214C220.626 37.3525 218.654 35.7187 217.313 33.6398C215.971 31.5609 215.324 29.1368 215.459 26.6937H218.053C218.533 28.92 219.57 31.0003 221.075 32.7544C222.579 34.5085 224.506 35.8835 226.687 36.7604C228.869 37.6373 231.24 37.9896 233.595 37.7869C235.951 37.5841 238.219 36.8324 240.204 35.5968C241.413 34.9927 242.417 34.0679 243.096 32.932C243.775 31.7961 244.101 30.4968 244.035 29.1881C244.095 27.8995 243.717 26.6271 242.957 25.5641C242.197 24.501 241.097 23.7053 239.825 23.2975C236.712 22.1846 233.399 21.5897 230.226 20.6112C226.906 19.7212 223.658 18.5989 220.508 17.2533C215.519 14.8932 215.12 5.62559 220.807 2.67068C223.807 0.995464 227.207 0.0955676 230.676 0.0585807C234.145 0.0215938 237.565 0.848775 240.603 2.45962C242.34 3.45688 243.739 4.91824 244.628 6.66584C245.517 8.41344 245.859 10.3719 245.612 12.3029ZM71.7798 38.9738C70.735 39.3542 69.5814 39.3534 68.5372 38.9716C67.4929 38.5898 66.6303 37.8533 66.1124 36.9015C62.8597 32.2197 59.2677 27.749 55.8154 23.1823L54.3188 21.2636C50.2079 26.5594 46.0971 31.6441 42.3455 36.9207C41.8567 37.8304 41.0407 38.5382 40.0495 38.9124C39.0583 39.2865 37.9594 39.3016 36.9575 38.9546L52.3831 19.057L38.0351 1.0781C39.0679 0.719523 40.1978 0.714607 41.2339 1.06418C42.2701 1.41375 43.149 2.0964 43.7224 2.99687C47.055 7.67867 50.7467 12.1494 54.4185 16.8888C58.1103 12.1878 61.7621 7.69786 65.1745 3.05444C65.666 2.15955 66.4824 1.46959 67.4685 1.1158C68.4546 0.76201 69.5416 0.769083 70.5226 1.13567L64.955 8.23512C62.4606 11.4011 60.0061 14.5862 57.4118 17.6755C57.2028 17.8554 57.0356 18.0758 56.9211 18.3221C56.8066 18.5684 56.7475 18.8351 56.7475 19.1049C56.7475 19.3747 56.8066 19.6415 56.9211 19.8878C57.0356 20.1341 57.2028 20.3545 57.4118 20.5344C62.1812 26.6169 66.9106 32.7186 71.7798 38.9738ZM137.274 0.886228V3.57251C135.255 3.44522 133.232 3.72627 131.333 4.39751C129.435 5.06876 127.704 6.11528 126.252 7.46953C124.801 8.82379 123.66 10.4557 122.905 12.2599C122.15 14.0641 121.797 16.0005 121.868 17.9441V39.0506H119.014V1.03973H121.808V8.82993C125.26 3.15037 130.589 1.03973 137.274 0.886228ZM0 18.8075C0.419065 16.8888 0.678485 14.7973 1.25719 12.8402C4.70949 1.03973 18.7781 -3.87231 28.4565 3.43819C34.1238 7.71705 35.5407 13.7804 35.2613 20.6112H3.33256C2.81372 32.8145 11.9733 40.1826 23.6871 36.4218C25.5873 35.7683 27.2883 34.6701 28.6365 33.2263C29.9848 31.7825 30.938 30.0386 31.4099 28.1519C32.0285 26.2332 33.0263 25.907 34.922 26.4634C34.6098 28.7994 33.7508 31.0368 32.4097 33.0076C31.0687 34.9784 29.2804 36.6312 27.1793 37.8417C23.7079 39.667 19.7251 40.3901 15.8004 39.9077C11.8758 39.4252 8.21028 37.7618 5.32811 35.1554C2.47679 32.0728 0.752729 28.1779 0.419064 24.065C0.419064 23.4126 0.159644 22.7602 0.0199554 22.1462C0.0066518 21.0077 0 19.8948 0 18.8075ZM3.37247 17.9825H32.248C32.0684 9.13693 26.2614 2.86256 18.5187 2.805C9.89791 2.68987 3.73167 8.82993 3.35252 17.9441L3.37247 17.9825Z" fill="black"/>
</svg>
