<svg width="277" height="90" viewBox="0 0 277 90" fill="none" xmlns="http://www.w3.org/2000/svg">
<path d="M0 72.5385L0.54417 71.7765L26.2799 22.9439L26.3342 22.4269L14.9897 1.11711C14.0387 -0.667911 11.3627 -0.216785 11.051 1.7815L0 72.5385Z" fill="#FFC24A"/>
<path d="M0.321289 71.9572L0.732685 71.1549L26.1962 22.834L14.8827 1.43754C13.942 -0.329026 11.5538 0.121331 11.2429 2.09885L0.321289 71.9572Z" fill="#FFA712"/>
<path d="M0.321289 71.9572L0.732685 71.1549L26.1962 22.834L14.8827 1.43754C13.942 -0.329026 11.5538 0.121331 11.2429 2.09885L0.321289 71.9572Z" fill="black"/>
<path d="M34.6042 38.5457L43.0513 29.8948L34.6019 13.7645C33.7996 12.2376 31.5601 12.2332 30.7665 13.7645L26.252 22.3769V23.11L34.6042 38.5457Z" fill="#F4BD62"/>
<path d="M34.4532 38.1849L42.6653 29.7745L34.4532 14.1371C33.6735 12.6504 31.779 12.4971 31.0075 13.9833L26.4693 22.7238L26.3335 23.1708L34.4532 38.1849Z" fill="#FFA50E"/>
<path d="M34.4532 38.1849L42.6653 29.7745L34.4532 14.1371C33.6735 12.6504 31.779 12.4971 31.0075 13.9833L26.4693 22.7238L26.3335 23.1708L34.4532 38.1849Z" fill="black"/>
<path d="M26.2763 22.3267L0 72.5382L0.246581 72.2901L1.14268 71.9261L34.0743 39.117L34.4911 37.9815L26.2763 22.3267Z" fill="#F6820C"/>
<path d="M35.6594 89.0847L65.4632 72.4627L56.9546 20.0445C56.6881 18.4045 54.6764 17.756 53.5027 18.932L0 72.5386L29.6328 89.0836C30.5539 89.5978 31.5912 89.8678 32.6461 89.868C33.701 89.8683 34.7384 89.5987 35.6597 89.0849" fill="#FDE068"/>
<path d="M65.1967 72.3235L56.7503 20.3051C56.4863 18.6774 54.8126 18.0041 53.6478 19.1711L0.333496 72.4362L29.6408 88.8152C31.4991 89.8528 33.7624 89.8533 35.6218 88.8167L65.1967 72.3235Z" fill="#FCCA3F"/>
<path d="M35.6594 88.5949C33.7883 89.6396 31.5052 89.6391 29.6326 88.5933L0.238379 72.2864L0 72.5384L29.6328 89.0834C31.5055 90.1292 33.7862 90.1292 35.6597 89.0847L65.4635 72.4628L65.3904 72.0137L35.6594 88.5949Z" fill="#EEAB37"/>
<path d="M88.0293 64.8408H82.957V25.3652H105.974V30.2158H88.0293V43.1735H104.241V47.919H88.0293V64.8408ZM114.891 31.0427C114.192 31.7418 113.348 32.0941 112.356 32.0941C111.884 32.1023 111.416 32.0131 110.98 31.8322C110.543 31.6514 110.149 31.3826 109.822 31.0427C109.483 30.714 109.215 30.3197 109.034 29.8838C108.854 29.448 108.764 28.9798 108.77 28.508C108.762 28.036 108.851 27.5673 109.032 27.1312C109.213 26.6951 109.482 26.301 109.822 25.9733C110.15 25.6348 110.545 25.3669 110.98 25.1861C111.416 25.0053 111.884 24.9154 112.356 24.9219C112.828 24.9137 113.297 25.0029 113.733 25.1838C114.169 25.3647 114.563 25.6334 114.891 25.9733C115.23 26.302 115.497 26.6964 115.678 27.1322C115.859 27.568 115.949 28.0362 115.942 28.508C115.951 28.9801 115.861 29.4487 115.681 29.8848C115.5 30.3209 115.231 30.715 114.891 31.0427ZM114.891 64.8408H109.819V37.8256H114.891V64.8408ZM125.84 64.8408H120.765V37.8256H125.615V42.2358H125.834C126.346 40.7667 127.405 39.5533 129.005 38.5986C130.605 37.6438 132.131 37.1635 133.665 37.1635C135.2 37.1635 136.442 37.3852 137.473 37.8256L135.541 42.5711C134.879 42.287 133.978 42.1847 132.841 42.1847C131.003 42.1847 129.375 42.9093 127.962 44.3613C126.55 45.8134 125.84 47.7144 125.84 50.0673V64.8436V64.8408ZM150.812 65.6933C146.731 65.6933 143.415 64.335 140.86 61.6127C138.306 58.8905 137.024 55.4578 137.024 51.3034C137.024 47.3706 138.263 43.9891 140.718 41.1588C143.174 38.3286 146.402 36.9135 150.229 36.9135C154.207 36.9135 157.441 38.2206 159.851 40.8292C162.261 43.4378 163.46 46.9301 163.46 51.3062L163.403 52.244H142.091C142.239 54.9634 143.148 57.1145 144.819 58.6944C145.594 59.456 146.512 60.0574 147.52 60.464C148.528 60.8706 149.606 61.0746 150.692 61.0643C154.33 61.0643 156.793 59.5213 158.081 56.4325L162.627 58.3079C161.775 60.4022 160.291 62.1583 158.271 63.5734C156.251 64.9886 153.767 65.6961 150.826 65.6961L150.812 65.6933ZM158.086 48.0753C157.973 46.5323 157.268 45.0632 155.964 43.6651C154.659 42.2671 152.718 41.5709 150.147 41.5709C148.271 41.5709 146.646 42.1591 145.268 43.3327C143.89 44.5063 142.943 46.089 142.426 48.0782H158.055L158.086 48.0753ZM181.851 65.6933C179.79 65.6933 177.943 65.2528 176.31 64.3691C174.676 63.4853 173.451 62.3856 172.615 61.0615H172.425V64.8124H167.574V25.3652H172.647V37.8256L172.425 41.5766H172.647C173.457 40.2524 174.678 39.1498 176.341 38.2689C178.003 37.388 179.825 36.9447 181.882 36.9447C185.377 36.9447 188.418 38.3229 190.924 41.0793C193.43 43.8356 194.732 47.2541 194.732 51.3091C194.732 55.364 193.464 58.8109 190.924 61.5388C188.383 64.2668 185.374 65.6734 181.882 65.6734L181.851 65.6933ZM180.998 61.0615C183.351 61.0615 185.374 60.1692 187.062 58.3903C188.75 56.6115 189.597 54.2473 189.597 51.3062C189.597 48.3652 188.75 46.0038 187.062 44.2221C185.374 42.4404 183.348 41.551 180.998 41.551C179.852 41.5285 178.715 41.7529 177.664 42.2089C176.613 42.6649 175.672 43.3418 174.906 44.1937C173.235 45.9839 172.397 48.3282 172.397 51.3062C172.397 54.2842 173.232 56.6541 174.906 58.4188C176.579 60.1834 178.608 61.0671 180.998 61.0671V61.0615ZM208.03 65.6933C205.189 65.6933 202.765 64.8408 200.835 63.2126C198.906 61.5843 197.937 59.3707 197.937 56.6769C197.937 53.7358 199.074 51.4313 201.355 49.7575C203.637 48.0838 206.448 47.2484 209.795 47.2484C212.773 47.2484 215.217 47.7997 217.126 48.9022V48.1293C217.126 46.1402 216.444 44.5546 215.086 43.3611C213.728 42.1676 212.054 41.5709 210.068 41.5709C208.596 41.5709 207.263 41.9204 206.07 42.6223C204.934 43.252 204.063 44.2699 203.617 45.4895L198.986 43.506C199.611 41.8863 200.841 40.3916 202.68 39.0163C204.518 37.6409 206.942 36.9476 209.954 36.9476C213.41 36.9476 216.277 37.9592 218.556 39.9796C220.835 42 221.974 44.8501 221.974 48.5243V64.8436H217.152V61.0927H216.93C214.907 64.1787 211.949 65.7245 208.053 65.7245L208.03 65.6933ZM208.883 61.0615C210.977 61.0615 212.881 60.28 214.589 58.7171C216.297 57.1542 217.152 55.3072 217.152 53.176C215.72 51.9996 213.571 51.4142 210.701 51.4142C208.238 51.4142 206.382 51.9484 205.132 53.014C203.882 54.0796 203.256 55.3299 203.256 56.7649C203.256 58.0891 203.825 59.1348 204.967 59.9078C206.109 60.6807 207.411 61.0671 208.883 61.0671V61.0615ZM236.731 65.6933C233.718 65.6933 231.226 64.9545 229.257 63.4882C227.339 62.0799 225.842 60.1735 224.929 57.9755L229.476 56.1C230.908 59.5099 233.355 61.1723 236.807 61.1723C238.387 61.1723 239.683 60.8228 240.695 60.1209C241.706 59.419 242.212 58.5012 242.212 57.3645C242.212 55.6027 240.982 54.4093 238.518 53.7841L233.062 52.4599C231.334 52.0195 229.698 51.1812 228.155 49.9508C226.612 48.7204 225.847 47.1177 225.847 44.9922C225.847 42.6052 226.904 40.6644 229.018 39.1754C231.133 37.6864 233.642 36.9419 236.549 36.9419C238.936 36.9419 241.095 37.5102 242.942 38.5673C244.789 39.6244 246.159 41.2043 246.969 43.2275L242.559 45.0462C241.564 42.6592 239.507 41.4657 236.384 41.4657C234.878 41.4657 233.608 41.7499 232.576 42.4035C231.545 43.057 231.033 43.8726 231.033 44.9382C231.033 46.4812 232.227 47.5297 234.614 48.081L239.961 49.3484C242.496 49.9366 244.372 50.9482 245.588 52.3804C246.804 53.8125 247.406 55.4322 247.406 57.231C247.406 59.6577 246.412 61.6781 244.428 63.295C242.445 64.9118 239.888 65.7217 236.765 65.7217L236.731 65.6933ZM263.746 65.6933C259.665 65.6933 256.346 64.335 253.794 61.6127C251.243 58.8905 249.958 55.4578 249.958 51.3034C249.958 47.3706 251.197 43.9891 253.652 41.1588C256.107 38.3286 259.336 36.9135 263.163 36.9135C267.141 36.9135 270.375 38.2206 272.785 40.8292C275.195 43.4378 276.394 46.9301 276.394 51.3062V52.244H255.082C255.224 54.9634 256.139 57.1145 257.81 58.6944C258.585 59.4557 259.502 60.0568 260.509 60.4634C261.517 60.8701 262.594 61.0743 263.68 61.0643C267.318 61.0643 269.781 59.5213 271.069 56.4325L275.615 58.3079C274.763 60.4022 273.279 62.1583 271.259 63.5734C269.239 64.9886 266.755 65.6961 263.814 65.6961L263.746 65.6933ZM271.02 48.0753C270.907 46.5323 270.202 45.0632 268.898 43.6651C267.593 42.2671 265.652 41.5709 263.081 41.5709C261.293 41.5394 259.556 42.1676 258.202 43.3355C256.824 44.5119 255.877 46.0919 255.36 48.081H270.989L271.02 48.0753Z" fill="#63666A"/>
</svg>
