<svg width="220" height="215" viewBox="0 0 220 215" fill="none" xmlns="http://www.w3.org/2000/svg">
<path d="M32.1002 52.3727L77.5668 24.3882L168.5 31.7525L191.967 74.4657L197.833 151.055L145.034 214.388H77.5668L32.1002 177.566L21.8335 111.287L32.1002 52.3727Z" fill="white" stroke="white"/>
<path fill-rule="evenodd" clip-rule="evenodd" d="M109.901 0C49.1994 0 0 49.1994 0 109.901C0 158.438 31.4948 199.628 75.1541 214.201C80.634 215.225 82.6815 211.792 82.6815 208.902C82.6815 206.252 82.5611 197.641 82.5611 188.427C51.9695 195.051 45.526 175.48 45.526 175.48C40.5278 162.774 33.3014 159.401 33.3014 159.401C23.305 152.596 34.0241 152.717 34.0241 152.717C45.0443 153.5 50.8856 164.038 50.8856 164.038C60.7013 180.839 76.5993 175.962 82.8622 173.192C83.8257 166.086 86.7162 161.268 89.8476 158.498C65.4587 155.728 39.7449 146.273 39.7449 104.18C39.7449 92.1962 44.0205 82.3804 51.0662 74.6723C49.922 71.9022 46.1884 60.7013 52.1502 45.5862C52.1502 45.5862 61.3638 42.6355 82.3804 56.8473C91.1725 54.4385 100.567 53.1739 109.901 53.1739C119.235 53.2341 128.629 54.4385 137.421 56.8473C158.378 42.6355 167.591 45.5862 167.591 45.5862C173.553 60.7013 169.819 71.9022 168.675 74.6723C175.721 82.3804 179.996 92.1962 179.996 104.18C179.996 146.394 154.283 155.668 129.833 158.378C133.748 161.81 137.301 168.494 137.301 178.732C137.301 193.425 137.18 205.289 137.18 208.902C137.18 211.852 139.167 215.225 144.708 214.201C188.367 199.628 219.802 158.498 219.802 109.901C219.802 49.1994 170.602 0 109.901 0Z" fill="black"/>
<path d="M41.6119 157.775C41.371 158.317 40.5279 158.498 39.7451 158.137C38.9622 157.775 38.4804 157.053 38.7815 156.511C39.0224 155.969 39.8655 155.788 40.6484 156.15C41.4312 156.511 41.913 157.233 41.6119 157.775Z" fill="black"/>
<path d="M46.0682 162.774C45.5262 163.255 44.5025 163.014 43.8401 162.292C43.1174 161.509 42.997 160.485 43.539 160.003C44.0809 159.522 45.0445 159.763 45.7671 160.485C46.4897 161.268 46.6102 162.292 46.0682 162.774Z" fill="black"/>
<path d="M50.404 169.096C49.7416 169.578 48.6577 169.157 47.935 168.133C47.2726 167.169 47.2726 165.965 47.935 165.483C48.5975 165.001 49.6814 165.423 50.404 166.387C51.1267 167.41 51.1267 168.615 50.404 169.096Z" fill="black"/>
<path d="M56.3656 175.179C55.7634 175.842 54.4988 175.661 53.5352 174.758C52.5717 173.854 52.3309 172.59 52.933 171.927C53.5352 171.265 54.8601 171.446 55.7634 172.349C56.7269 173.312 56.9678 174.577 56.3656 175.179Z" fill="black"/>
<path d="M64.5552 178.732C64.3143 179.575 63.0497 179.996 61.7851 179.635C60.5205 179.274 59.7376 178.25 59.9785 177.407C60.2194 176.564 61.484 176.142 62.7486 176.504C63.953 176.865 64.7961 177.889 64.5552 178.732Z" fill="black"/>
<path d="M73.5281 179.394C73.5883 180.298 72.5044 181.08 71.1795 181.08C69.8547 181.141 68.831 180.358 68.7708 179.454C68.7708 178.551 69.7945 177.768 71.1193 177.768C72.4442 177.768 73.5281 178.491 73.5281 179.394Z" fill="black"/>
<path d="M81.899 178.009C82.0796 178.912 81.1763 179.816 79.8515 180.057C78.5869 180.297 77.3825 179.755 77.2621 178.852C77.0814 177.949 78.0449 177.046 79.3095 176.805C80.5741 176.564 81.7183 177.106 81.899 178.009Z" fill="black"/>
</svg>
