<svg width="335" height="50" viewBox="0 0 335 50" fill="none" xmlns="http://www.w3.org/2000/svg">
<path d="M28.2161 30.1077C31.0202 30.1077 33.2935 27.8345 33.2935 25.0303C33.2935 22.2261 31.0202 19.9529 28.2161 19.9529C25.4119 19.9529 23.1387 22.2261 23.1387 25.0303C23.1387 27.8345 25.4119 30.1077 28.2161 30.1077Z" fill="#00D8FF"/>
<path fill-rule="evenodd" clip-rule="evenodd" d="M28.2164 14.7068C35.0335 14.7068 41.3664 15.685 46.1414 17.3288C51.8946 19.3095 55.4319 22.3117 55.4319 25.0302C55.4319 27.8631 51.683 31.0525 45.5049 33.0995C40.834 34.647 34.6876 35.4548 28.2164 35.4548C21.5817 35.4548 15.299 34.6966 10.5755 33.0825C4.59943 31.0399 1 27.8091 1 25.0302C1 22.3338 4.37738 19.3548 10.0497 17.3771C14.8425 15.7061 21.3318 14.7068 28.2155 14.7068H28.2164Z" stroke="#00D8FF" stroke-width="1.66272"/>
<path fill-rule="evenodd" clip-rule="evenodd" d="M19.23 19.8983C22.6357 13.9929 26.6467 8.99558 30.4562 5.68035C35.0461 1.68599 39.414 0.121691 41.7689 1.47963C44.223 2.89485 45.113 7.73582 43.7998 14.1102C42.808 18.9297 40.4362 24.6575 37.2034 30.2634C33.8888 36.0109 30.0934 41.0746 26.3357 44.3591C21.5809 48.5156 16.9839 50.0197 14.5767 48.6315C12.2407 47.2854 11.3475 42.8706 12.4681 36.9687C13.4149 31.9821 15.791 25.8614 19.2289 19.8982L19.23 19.8983Z" stroke="#00D8FF" stroke-width="1.66272"/>
<path fill-rule="evenodd" clip-rule="evenodd" d="M19.238 30.2785C15.8226 24.3798 13.4973 18.4079 12.5267 13.4518C11.3583 7.48044 12.1844 2.91485 14.5372 1.55297C16.9889 0.133602 21.6274 1.78009 26.4941 6.10135C30.1737 9.36841 33.9521 14.2829 37.1943 19.8834C40.5185 25.6254 43.0099 31.4426 43.979 36.3384C45.2054 42.5337 44.2128 47.2674 41.8078 48.6597C39.4742 50.0106 35.2038 48.5803 30.6504 44.6619C26.8031 41.3513 22.687 36.2358 19.238 30.2784V30.2785Z" stroke="#00D8FF" stroke-width="1.66272"/>
<path fill-rule="evenodd" clip-rule="evenodd" d="M84.5767 38.0026L78.3534 28.6004C81.4986 28.3228 84.3328 26.0439 84.3328 21.8803C84.3328 17.6438 81.3263 14.9324 77.1087 14.9324H67.8467V37.9851H70.7159V28.8254H75.3133L81.1889 37.9851L84.5767 38.0026ZM76.7654 26.32H70.7173V17.5065H76.7654C79.4972 17.5065 81.3628 19.3033 81.3628 21.8964C81.3628 24.4895 79.4958 26.3229 76.7654 26.3229V26.32ZM95.2572 38.4161C97.9891 38.4161 100.234 37.5176 101.894 35.8595L100.649 34.1649C99.3346 35.5133 97.4004 36.273 95.4997 36.273C91.906 36.273 89.6927 33.6463 89.4853 30.5025H102.998V29.8451C102.998 24.8342 100.026 20.8928 94.9782 20.8928C90.2084 20.8928 86.7534 24.7992 86.7534 29.6376C86.7534 34.8574 90.3136 38.4029 95.2558 38.4029L95.2572 38.4161ZM100.443 28.5989H89.4868C89.6255 26.0424 91.3859 23.033 94.9475 23.033C98.7502 23.033 100.408 26.1096 100.443 28.5989ZM120.215 38.0012V26.5259C120.215 22.4822 117.279 20.8913 113.752 20.8913C111.02 20.8913 108.879 21.7898 107.082 23.6568L108.291 25.4537C109.777 23.8642 111.403 23.1382 113.407 23.1382C115.826 23.1382 117.625 24.4164 117.625 26.6633V29.6698C116.276 28.1139 114.376 27.3879 112.094 27.3879C109.26 27.3879 106.25 29.1512 106.25 32.8837C106.25 36.5125 109.257 38.4146 112.094 38.4146C114.341 38.4146 116.243 37.6199 117.625 36.0991V37.9983L120.215 38.0012ZM113.027 36.5491C110.608 36.5491 108.914 35.0297 108.914 32.9202C108.914 30.7771 110.608 29.2563 113.027 29.2563C114.859 29.2563 116.621 29.9473 117.625 31.3308V34.4761C116.623 35.8581 114.859 36.5505 113.027 36.5505V36.5491ZM132.749 38.4161C135.791 38.4161 137.588 37.1714 138.868 35.5133L137.139 33.9239C136.033 35.4096 134.616 36.1006 132.903 36.1006C129.343 36.1006 127.132 33.3351 127.132 29.6376C127.132 25.9401 129.344 23.2097 132.903 23.2097C134.631 23.2097 136.048 23.8671 137.139 25.3865L138.868 23.797C137.589 22.1375 135.791 20.8942 132.749 20.8942C127.772 20.8942 124.419 24.6969 124.419 29.6391C124.419 34.6163 127.772 38.4044 132.749 38.4044V38.4161ZM146.715 38.4161C148.235 38.4161 149.17 37.9661 149.827 37.3452L149.067 35.4096C148.721 35.7894 148.045 36.1006 147.304 36.1006C146.165 36.1006 145.61 35.2021 145.61 33.9575V23.5881H148.999V21.3077H145.61V16.7453H143.016V21.3077H140.251V23.5896H143.016V34.5126C143.016 37.0019 144.261 38.419 146.715 38.419V38.4161Z" fill="#00D8FF"/>
<path d="M213.667 20.3973C213.667 17.5122 210.054 14.7779 204.515 13.0823C205.793 7.43621 205.225 2.94419 202.722 1.50602C202.145 1.16867 201.47 1.00887 200.734 1.00887V2.98857C201.142 2.98857 201.47 3.06847 201.745 3.21938C202.953 3.91182 203.476 6.54845 203.068 9.93966C202.971 10.7742 202.811 11.653 202.615 12.5496C200.875 12.1235 198.976 11.7951 196.979 11.582C195.78 9.93966 194.538 8.44823 193.286 7.14325C196.18 4.45336 198.896 2.97968 200.742 2.97968V1C198.301 1 195.106 2.74 191.875 5.75834C188.644 2.75775 185.448 1.03551 183.007 1.03551V3.01519C184.844 3.01519 187.57 4.48 190.463 7.15212C189.221 8.45712 187.978 9.93966 186.797 11.582C184.791 11.7951 182.892 12.1235 181.152 12.5585C180.948 11.6708 180.797 10.8096 180.69 9.98404C180.273 6.59284 180.788 3.95621 181.986 3.25489C182.252 3.09509 182.599 3.02409 183.007 3.02409V1.04439C182.261 1.04439 181.587 1.20419 181.001 1.54154C178.507 2.97968 177.947 7.46283 179.234 13.0912C173.713 14.7957 170.118 17.5211 170.118 20.3973C170.118 23.2826 173.731 26.0169 179.27 27.7124C177.992 33.3586 178.56 37.8505 181.063 39.2887C181.64 39.626 182.315 39.7858 183.06 39.7858C185.501 39.7858 188.697 38.0458 191.928 35.0275C195.159 38.0282 198.355 39.7504 200.796 39.7504C201.541 39.7504 202.216 39.5906 202.802 39.2532C205.296 37.815 205.855 33.3318 204.568 27.7037C210.072 26.008 213.667 23.2737 213.667 20.3973V20.3973ZM202.109 14.4761C201.781 15.6213 201.373 16.8019 200.911 17.9826C200.547 17.2726 200.165 16.5623 199.748 15.852C199.34 15.1419 198.905 14.4494 198.47 13.7747C199.73 13.9612 200.947 14.192 202.109 14.4761V14.4761ZM198.044 23.9306C197.351 25.1292 196.641 26.2655 195.905 27.3219C194.582 27.4373 193.242 27.4994 191.892 27.4994C190.552 27.4994 189.212 27.4373 187.898 27.3307C187.161 26.2742 186.442 25.1468 185.75 23.9572C185.075 22.7943 184.463 21.6136 183.903 20.4241C184.454 19.2344 185.075 18.0448 185.741 16.8819C186.433 15.6835 187.143 14.5471 187.88 13.4907C189.203 13.3752 190.543 13.3131 191.892 13.3131C193.233 13.3131 194.573 13.3752 195.887 13.4818C196.624 14.5382 197.343 15.6656 198.035 16.8553C198.71 18.0182 199.322 19.1989 199.881 20.3886C199.322 21.578 198.71 22.7677 198.044 23.9306V23.9306ZM200.911 22.7766C201.377 23.9336 201.786 25.1127 202.136 26.3097C200.973 26.5938 199.748 26.8336 198.479 27.02C198.914 26.3365 199.349 25.6352 199.757 24.916C200.165 24.2059 200.547 23.4867 200.911 22.7766ZM191.91 32.2489C191.085 31.3965 190.259 30.4467 189.442 29.4081C190.241 29.4436 191.058 29.4702 191.884 29.4702C192.718 29.4702 193.543 29.4525 194.351 29.4081C193.589 30.3983 192.774 31.3467 191.91 32.2489V32.2489ZM185.306 27.02C184.046 26.8336 182.829 26.6027 181.667 26.3187C181.995 25.1734 182.403 23.9927 182.865 22.812C183.229 23.5222 183.611 24.2325 184.028 24.9426C184.445 25.6528 184.871 26.3452 185.306 27.02ZM191.866 8.5459C192.691 9.39812 193.517 10.348 194.333 11.3867C193.535 11.3512 192.718 11.3246 191.892 11.3246C191.058 11.3246 190.232 11.3423 189.425 11.3867C190.187 10.3965 191.002 9.44814 191.866 8.5459V8.5459ZM185.297 13.7747C184.862 14.4583 184.427 15.1596 184.019 15.8786C183.611 16.5889 183.229 17.2992 182.865 18.0092C182.399 16.8523 181.99 15.6732 181.64 14.4761C182.803 14.2009 184.028 13.9612 185.297 13.7747V13.7747ZM177.264 24.8894C174.122 23.5488 172.089 21.7912 172.089 20.3973C172.089 19.0036 174.122 17.237 177.264 15.9054C178.027 15.5769 178.862 15.2839 179.723 15.0087C180.229 16.7487 180.894 18.5597 181.72 20.4152C180.903 22.2617 180.246 24.0638 179.749 25.795C178.871 25.5196 178.036 25.2179 177.264 24.8894ZM182.039 37.5754C180.832 36.883 180.308 34.2463 180.717 30.855C180.815 30.0207 180.974 29.1417 181.169 28.245C182.909 28.6712 184.809 28.9997 186.806 29.2127C188.004 30.855 189.247 32.3464 190.499 33.6514C187.605 36.3414 184.889 37.815 183.042 37.815C182.643 37.8062 182.306 37.7262 182.039 37.5754V37.5754ZM203.095 30.8107C203.512 34.2019 202.997 36.8385 201.799 37.5398C201.532 37.6996 201.186 37.7707 200.778 37.7707C198.94 37.7707 196.215 36.3059 193.322 33.6337C194.564 32.3287 195.807 30.8463 196.988 29.2038C198.994 28.9908 200.893 28.6623 202.633 28.2273C202.837 29.124 202.997 29.9851 203.095 30.8107ZM206.512 24.8894C205.749 25.2179 204.914 25.5109 204.053 25.786C203.547 24.0461 202.882 22.2351 202.056 20.3796C202.873 18.5331 203.53 16.731 204.027 14.9998C204.906 15.275 205.74 15.5769 206.521 15.9054C209.663 17.2458 211.696 19.0036 211.696 20.3973C211.687 21.7912 209.654 23.5578 206.512 24.8894V24.8894Z" fill="#61DAFB"/>
<path d="M191.883 24.4544C194.123 24.4544 195.939 22.6381 195.939 20.3973C195.939 18.1567 194.123 16.3403 191.883 16.3403C189.642 16.3403 187.826 18.1567 187.826 20.3973C187.826 22.6381 189.642 24.4544 191.883 24.4544V24.4544ZM172.095 46.7711H170.756V49.0776H170V43.376H171.887C172.529 43.376 173.023 43.5223 173.367 43.8147C173.715 44.1069 173.888 44.5325 173.888 45.0911C173.888 45.4463 173.792 45.7555 173.598 46.0194C173.408 46.283 173.142 46.4801 172.8 46.6105L174.139 49.0305V49.0776H173.332L172.095 46.7711ZM170.756 46.1563H171.911C172.284 46.1563 172.58 46.0596 172.8 45.8665C173.021 45.6733 173.132 45.4149 173.132 45.0911C173.132 44.7388 173.027 44.4686 172.815 44.2806C172.606 44.0926 172.304 43.9973 171.907 43.9947H170.756V46.1563ZM176.59 49.156C176.016 49.156 175.548 48.968 175.188 48.592C174.828 48.2135 174.648 47.7083 174.648 47.0766V46.9434C174.648 46.5232 174.727 46.1486 174.887 45.8196C175.048 45.4879 175.273 45.2295 175.56 45.0443C175.85 44.8563 176.163 44.7622 176.5 44.7622C177.051 44.7622 177.479 44.9436 177.784 45.3065C178.089 45.6694 178.242 46.1889 178.242 46.865V47.1665H175.372C175.383 47.5844 175.504 47.9225 175.736 48.1809C175.971 48.4366 176.269 48.5646 176.629 48.5646C176.885 48.5646 177.101 48.5124 177.279 48.408C177.456 48.3036 177.612 48.1652 177.745 47.9929L178.187 48.3375C177.832 48.8831 177.3 49.156 176.59 49.156V49.156ZM176.5 45.3575C176.207 45.3575 175.962 45.4645 175.764 45.6785C175.565 45.8901 175.443 46.1877 175.396 46.5714H177.518V46.5166C177.497 46.1486 177.398 45.8639 177.22 45.6628C177.043 45.4594 176.802 45.3575 176.5 45.3575V45.3575ZM181.7 49.0776C181.658 48.994 181.624 48.8453 181.598 48.6311C181.261 48.9809 180.859 49.156 180.392 49.156C179.974 49.156 179.631 49.0385 179.362 48.8035C179.096 48.5658 178.963 48.2657 178.963 47.9028C178.963 47.4617 179.13 47.1197 179.464 46.8769C179.8 46.6314 180.273 46.5087 180.881 46.5087H181.586V46.176C181.586 45.9227 181.51 45.7216 181.359 45.5729C181.208 45.4214 180.984 45.3458 180.689 45.3458C180.431 45.3458 180.214 45.4109 180.039 45.5415C179.865 45.672 179.777 45.83 179.777 46.0154H179.049C179.049 45.804 179.123 45.6003 179.272 45.4044C179.423 45.2061 179.627 45.0494 179.883 44.9345C180.141 44.8198 180.424 44.7622 180.732 44.7622C181.221 44.7622 181.603 44.8849 181.88 45.1304C182.156 45.3732 182.3 45.7087 182.31 46.1367V48.0868C182.31 48.4759 182.36 48.7852 182.459 49.0149V49.0776H181.7ZM180.498 48.5255C180.725 48.5255 180.94 48.4668 181.144 48.3493C181.347 48.2317 181.495 48.0791 181.586 47.8911V47.0218H181.018C180.131 47.0218 179.687 47.2815 179.687 47.801C179.687 48.0281 179.763 48.2057 179.914 48.3336C180.065 48.4614 180.26 48.5255 180.498 48.5255V48.5255ZM185.145 48.5646C185.404 48.5646 185.629 48.4862 185.823 48.3296C186.016 48.173 186.123 47.9773 186.144 47.7422H186.829C186.816 47.985 186.732 48.2161 186.578 48.4354C186.424 48.6548 186.218 48.8297 185.96 48.9601C185.704 49.0907 185.432 49.156 185.145 49.156C184.568 49.156 184.109 48.964 183.767 48.5803C183.428 48.1938 183.258 47.6666 183.258 46.9982V46.8769C183.258 46.4644 183.334 46.0976 183.485 45.7766C183.636 45.4554 183.853 45.2061 184.135 45.0286C184.419 44.8509 184.755 44.7622 185.141 44.7622C185.616 44.7622 186.011 44.9045 186.324 45.1892C186.64 45.4737 186.808 45.8431 186.829 46.2973H186.144C186.123 46.0231 186.018 45.7986 185.83 45.6237C185.645 45.4463 185.415 45.3575 185.141 45.3575C184.773 45.3575 184.487 45.4905 184.284 45.7569C184.083 46.0205 183.982 46.4031 183.982 46.9043V47.0413C183.982 47.5294 184.083 47.9054 184.284 48.169C184.485 48.4328 184.772 48.5646 185.145 48.5646V48.5646ZM188.626 43.8147V44.8406H189.417V45.4006H188.626V48.0281C188.626 48.1978 188.661 48.3256 188.732 48.4118C188.802 48.4954 188.922 48.5373 189.092 48.5373C189.175 48.5373 189.29 48.5216 189.437 48.4902V49.0776C189.246 49.1298 189.061 49.156 188.881 49.156C188.557 49.156 188.313 49.0579 188.148 48.8622C187.984 48.6665 187.902 48.3884 187.902 48.0281V45.4006H187.13V44.8406H187.902V43.8147H188.626ZM196.751 49.0776H195.995L193.125 44.684V49.0776H192.369V43.376H193.125L196.003 47.7893V43.376H196.751V49.0776ZM200.588 49.0776C200.546 48.994 200.512 48.8453 200.486 48.6311C200.149 48.9809 199.747 49.156 199.28 49.156C198.863 49.156 198.519 49.0385 198.25 48.8035C197.984 48.5658 197.851 48.2657 197.851 47.9028C197.851 47.4617 198.018 47.1197 198.352 46.8769C198.689 46.6314 199.161 46.5087 199.77 46.5087H200.474V46.176C200.474 45.9227 200.399 45.7216 200.247 45.5729C200.096 45.4214 199.873 45.3458 199.578 45.3458C199.319 45.3458 199.103 45.4109 198.928 45.5415C198.753 45.672 198.665 45.83 198.665 46.0154H197.937C197.937 45.804 198.012 45.6003 198.16 45.4044C198.312 45.2061 198.515 45.0494 198.771 44.9345C199.03 44.8198 199.313 44.7622 199.621 44.7622C200.109 44.7622 200.491 44.8849 200.768 45.1304C201.045 45.3732 201.188 45.7087 201.199 46.1367V48.0868C201.199 48.4759 201.248 48.7852 201.348 49.0149V49.0776H200.588ZM199.386 48.5255C199.613 48.5255 199.828 48.4668 200.032 48.3493C200.236 48.2317 200.383 48.0791 200.474 47.8911V47.0218H199.907C199.019 47.0218 198.575 47.2815 198.575 47.801C198.575 48.0281 198.651 48.2057 198.802 48.3336C198.954 48.4614 199.148 48.5255 199.386 48.5255ZM203.317 43.8147V44.8406H204.108V45.4006H203.317V48.0281C203.317 48.1978 203.352 48.3256 203.423 48.4118C203.493 48.4954 203.613 48.5373 203.783 48.5373C203.866 48.5373 203.981 48.5216 204.128 48.4902V49.0776C203.937 49.1298 203.752 49.156 203.572 49.156C203.248 49.156 203.004 49.0579 202.839 48.8622C202.675 48.6665 202.593 48.3884 202.593 48.0281V45.4006H201.821V44.8406H202.593V43.8147H203.317ZM205.745 49.0776H205.02V44.8406H205.745V49.0776ZM204.962 43.7166C204.962 43.5993 204.997 43.5001 205.067 43.4191C205.14 43.3381 205.247 43.2978 205.388 43.2978C205.529 43.2978 205.636 43.3381 205.709 43.4191C205.782 43.5001 205.819 43.5993 205.819 43.7166C205.819 43.8342 205.782 43.932 205.709 44.0104C205.636 44.0886 205.529 44.1279 205.388 44.1279C205.247 44.1279 205.14 44.0886 205.067 44.0104C204.997 43.932 204.962 43.8342 204.962 43.7166ZM208.305 48.0948L209.355 44.8406H210.095L208.576 49.0776H208.023L206.489 44.8406H207.229L208.305 48.0948ZM212.495 49.156C211.921 49.156 211.454 48.968 211.093 48.592C210.733 48.2135 210.553 47.7083 210.553 47.0766V46.9434C210.553 46.5232 210.633 46.1486 210.792 45.8196C210.954 45.4879 211.178 45.2295 211.465 45.0443C211.755 44.8563 212.068 44.7622 212.405 44.7622C212.956 44.7622 213.384 44.9436 213.689 45.3065C213.995 45.6694 214.147 46.1889 214.147 46.865V47.1665H211.277C211.288 47.5844 211.409 47.9225 211.641 48.1809C211.876 48.4366 212.174 48.5646 212.534 48.5646C212.79 48.5646 213.007 48.5124 213.184 48.408C213.362 48.3036 213.517 48.1652 213.65 47.9929L214.093 48.3375C213.738 48.8831 213.205 49.156 212.495 49.156V49.156ZM212.405 45.3575C212.113 45.3575 211.867 45.4645 211.669 45.6785C211.47 45.8901 211.348 46.1877 211.301 46.5714H213.423V46.5166C213.402 46.1486 213.303 45.8639 213.125 45.6628C212.948 45.4594 212.708 45.3575 212.405 45.3575V45.3575Z" fill="#61DAFB"/>
<g clip-path="url(#clip0_113_367)">
<path d="M334.8 10.4399L331.7 45.171L317.764 49.0344L303.867 45.1763L300.77 10.4399H334.8Z" fill="#E44D26"/>
<path d="M317.785 46.0812L329.046 42.9594L331.695 13.28H317.785V46.0812Z" fill="#F16529"/>
<path d="M311.757 21.8008H317.784V17.5405H307.102L307.203 18.6835L308.251 30.4237H317.784V26.1634H312.147L311.757 21.8008V21.8008ZM312.718 32.5539H308.441L309.038 39.2432L317.765 41.6656L317.784 41.6603V37.2278L317.766 37.2327L313.021 35.9516L312.718 32.5539V32.5539Z" fill="#EBEBEB"/>
<path d="M303.936 1H306.101V3.13901H308.081V1H310.246V7.47745H308.081V5.30843H306.101V7.47745H303.936V1H303.936ZM313.093 3.14808H311.187V1H317.166V3.14808H315.259V7.47745H313.094V3.14808H313.093H313.093ZM318.114 1H320.372L321.76 3.27601L323.148 1H325.406V7.47745H323.25V4.26687L321.76 6.56996H321.723L320.233 4.26687V7.47745H318.114V1ZM326.484 1H328.649V5.33644H331.694V7.47745H326.483V1H326.484Z" fill="black"/>
<path d="M317.77 30.4237H323.016L322.521 35.9489L317.77 37.2314V41.6636L326.503 39.2432L326.567 38.5234L327.569 27.3074L327.673 26.1634H317.77V30.4237ZM317.77 21.7904V21.8008H328.06L328.146 20.8433L328.34 18.6835L328.442 17.5405H317.77V21.7905V21.7904Z" fill="white"/>
</g>
<g clip-path="url(#clip1_113_367)">
<path d="M243.417 45.2905L240.314 10.4573H274.424L271.321 45.2773L257.343 49.1561L243.417 45.2905Z" fill="#1F72B5"/>
<path d="M257.369 46.1999L268.659 43.0698L271.321 13.3062H257.369V46.1999Z" fill="#51A3DC"/>
<path d="M246.28 21.3458L245.865 17.3193H268.873L268.606 21.9882L258.881 26.2818H268.204L267.201 39.5247L257.797 42.0529L248.045 39.6856L247.443 32.97H251.751L251.992 36.515L257.636 37.5721L262.853 35.9666L263.094 30.2951H247.069L246.775 26.0815L257.369 21.4399L246.28 21.3458Z" fill="#EBEBEB"/>
<path d="M246.774 26.0815L247.069 30.2952H257.369V21.4399L246.774 26.0815Z" fill="#CECECE"/>
<path d="M251.992 36.5149L251.751 32.97H247.443L248.045 39.6855L257.369 41.9456V37.5185L251.992 36.5149Z" fill="#CECECE"/>
<path d="M245.865 17.3193L246.28 21.3458L257.369 21.4399V17.3193H245.865Z" fill="#CECECE"/>
<path d="M260.579 2.60551V1H254.159V4.74526H258.573V5.94916H254.024V7.42112H260.446V3.54136H255.898V2.60551H260.579Z" fill="black"/>
<path d="M248.942 4.7857V5.94916H253.49V7.42112H247.069V3.5818V1H253.356V2.60551H248.942V4.7857Z" fill="black"/>
<path d="M267.669 2.60551V1H261.248V4.74526H265.663V5.94916H261.114V7.42112H267.535V3.54136H262.987V2.60551H267.669Z" fill="black"/>
</g>
<defs>
<clipPath id="clip0_113_367">
<rect width="34.1523" height="48.156" fill="white" transform="translate(300.71 1)"/>
</clipPath>
<clipPath id="clip1_113_367">
<rect width="48.156" height="48.156" fill="white" transform="translate(233.291 1)"/>
</clipPath>
</defs>
</svg>
