<svg width="166" height="115" viewBox="0 0 166 115" fill="none" xmlns="http://www.w3.org/2000/svg">
<path d="M35.5422 30.7532C38.3464 30.7532 40.6197 28.48 40.6197 25.6758C40.6197 22.8716 38.3464 20.5984 35.5422 20.5984C32.7381 20.5984 30.4648 22.8716 30.4648 25.6758C30.4648 28.48 32.7381 30.7532 35.5422 30.7532Z" fill="#00D8FF"/>
<path fill-rule="evenodd" clip-rule="evenodd" d="M35.5426 15.3523C42.3597 15.3523 48.6926 16.3305 53.4676 17.9743C59.2207 19.955 62.758 22.9572 62.758 25.6757C62.758 28.5086 59.0092 31.698 52.831 33.745C48.1602 35.2925 42.0137 36.1003 35.5426 36.1003C28.9078 36.1003 22.6251 35.3421 17.9017 33.728C11.9256 31.6854 8.32617 28.4546 8.32617 25.6757C8.32617 22.9793 11.7036 20.0003 17.3759 18.0226C22.1687 16.3516 28.6579 15.3523 35.5416 15.3523H35.5426Z" stroke="#00D8FF" stroke-width="1.66272"/>
<path fill-rule="evenodd" clip-rule="evenodd" d="M26.5562 20.5438C29.9619 14.6384 33.9728 9.64109 37.7824 6.32586C42.3723 2.3315 46.7402 0.767199 49.095 2.12513C51.5492 3.54035 52.4392 8.38133 51.126 14.7557C50.1342 19.5752 47.7624 25.303 44.5296 30.9089C41.2149 36.6564 37.4195 41.7201 33.6619 45.0046C28.9071 49.1611 24.3101 50.6653 21.9028 49.277C19.5669 47.9309 18.6736 43.5161 19.7942 37.6142C20.741 32.6276 23.1172 26.5069 26.5551 20.5437L26.5562 20.5438Z" stroke="#00D8FF" stroke-width="1.66272"/>
<path fill-rule="evenodd" clip-rule="evenodd" d="M26.5641 30.924C23.1488 25.0253 20.8235 19.0534 19.8529 14.0973C18.6845 8.12595 19.5106 3.56036 21.8633 2.19848C24.315 0.779109 28.9536 2.42559 33.8203 6.74686C37.4999 10.0139 41.2782 14.9284 44.5205 20.5289C47.8446 26.2709 50.336 32.0881 51.3052 36.9839C52.5316 43.1792 51.539 47.9129 49.134 49.3052C46.8004 50.6561 42.53 49.2258 37.9766 45.3074C34.1293 41.9968 30.0132 36.8813 26.5641 30.9239V30.924Z" stroke="#00D8FF" stroke-width="1.66272"/>
<path fill-rule="evenodd" clip-rule="evenodd" d="M91.9029 38.6482L85.6795 29.2459C88.8248 28.9683 91.6589 26.6894 91.6589 22.5258C91.6589 18.2893 88.6524 15.5779 84.4349 15.5779H75.1729V38.6306H78.042V29.4709H82.6394L88.5151 38.6306L91.9029 38.6482ZM84.0915 26.9655H78.0435V18.152H84.0915C86.8234 18.152 88.6889 19.9488 88.6889 22.5419C88.6889 25.135 86.8219 26.9684 84.0915 26.9684V26.9655ZM102.583 39.0616C105.315 39.0616 107.561 38.1631 109.22 36.505L107.976 34.8104C106.661 36.1588 104.727 36.9185 102.826 36.9185C99.2321 36.9185 97.0189 34.2918 96.8115 31.148H110.325V30.4906C110.325 25.4797 107.352 21.5383 102.304 21.5383C97.5346 21.5383 94.0796 25.4447 94.0796 30.2831C94.0796 35.5029 97.6398 39.0484 102.582 39.0484L102.583 39.0616ZM107.77 29.2444H96.8129C96.9517 26.6879 98.7121 23.6785 102.274 23.6785C106.076 23.6785 107.734 26.7551 107.77 29.2444ZM127.541 38.6467V27.1715C127.541 23.1277 124.605 21.5368 121.078 21.5368C118.346 21.5368 116.205 22.4353 114.408 24.3023L115.617 26.0992C117.103 24.5097 118.729 23.7837 120.733 23.7837C123.153 23.7837 124.951 25.0619 124.951 27.3088V30.3153C123.603 28.7594 121.702 28.0334 119.42 28.0334C116.586 28.0334 113.577 29.7967 113.577 33.5292C113.577 37.1581 116.583 39.0601 119.42 39.0601C121.667 39.0601 123.569 38.2654 124.951 36.7446V38.6438L127.541 38.6467ZM120.354 37.1946C117.934 37.1946 116.24 35.6753 116.24 33.5657C116.24 31.4226 117.934 29.9018 120.354 29.9018C122.186 29.9018 123.947 30.5928 124.951 31.9763V35.1216C123.949 36.5036 122.186 37.196 120.354 37.196V37.1946ZM140.076 39.0616C143.117 39.0616 144.914 37.8169 146.194 36.1588L144.465 34.5694C143.36 36.0551 141.943 36.7461 140.229 36.7461C136.669 36.7461 134.458 33.9806 134.458 30.2831C134.458 26.5856 136.67 23.8552 140.229 23.8552C141.957 23.8552 143.374 24.5126 144.465 26.032L146.194 24.4425C144.915 22.783 143.117 21.5397 140.076 21.5397C135.098 21.5397 131.746 25.3424 131.746 30.2846C131.746 35.2618 135.098 39.0499 140.076 39.0499V39.0616ZM154.042 39.0616C155.561 39.0616 156.496 38.6116 157.153 37.9908L156.394 36.0551C156.047 36.4349 155.371 36.7461 154.63 36.7461C153.491 36.7461 152.936 35.8476 152.936 34.603V24.2336H156.325V21.9532H152.936V17.3908H150.343V21.9532H147.577V24.2351H150.343V35.1581C150.343 37.6474 151.587 39.0645 154.042 39.0645V39.0616Z" fill="#00D8FF"/>
<path d="M44.4255 85.7093C44.4255 82.8242 40.8128 80.0899 35.2738 78.3943C36.552 72.7482 35.984 68.2562 33.4806 66.818C32.9036 66.4807 32.2291 66.3209 31.4923 66.3209V68.3006C31.9006 68.3006 32.2291 68.3805 32.5042 68.5314C33.7115 69.2238 34.2353 71.8605 33.8268 75.2517C33.7293 76.0862 33.5695 76.965 33.3742 77.8617C31.6343 77.4355 29.7347 77.1071 27.7375 76.894C26.5392 75.2517 25.2965 73.7602 24.0448 72.4553C26.9386 69.7654 29.6549 68.2917 31.5013 68.2917V66.312C29.0601 66.312 25.8646 68.052 22.6336 71.0704C19.4024 68.0698 16.2069 66.3475 13.7659 66.3475V68.3272C15.6033 68.3272 18.3283 69.792 21.2221 72.4641C19.9794 73.7691 18.7366 75.2517 17.556 76.894C15.5499 77.1071 13.6503 77.4355 11.9106 77.8705C11.7063 76.9828 11.5555 76.1217 11.4489 75.2961C11.0319 71.9048 11.5465 69.2682 12.745 68.5669C13.0112 68.4071 13.3574 68.3361 13.7659 68.3361V66.3564C13.0201 66.3564 12.3455 66.5162 11.7597 66.8535C9.26531 68.2917 8.70617 72.7748 9.99317 78.4032C4.47197 80.1077 0.876953 82.8331 0.876953 85.7093C0.876953 88.5946 4.48972 91.3289 10.0287 93.0244C8.75043 98.6706 9.31851 103.162 11.8219 104.601C12.3989 104.938 13.0733 105.098 13.8191 105.098C16.2601 105.098 19.4558 103.358 22.6868 100.339C25.9178 103.34 29.1134 105.062 31.5545 105.062C32.3 105.062 32.9747 104.903 33.5606 104.565C36.0548 103.127 36.6142 98.6438 35.327 93.0157C40.8305 91.32 44.4255 88.5857 44.4255 85.7093V85.7093ZM32.8683 79.7881C32.5398 80.9334 32.1315 82.1139 31.6698 83.2946C31.306 82.5846 30.9243 81.8743 30.507 81.164C30.0987 80.4539 29.6637 79.7615 29.2288 79.0868C30.4892 79.2732 31.7053 79.504 32.8683 79.7881V79.7881ZM28.8026 89.2426C28.1103 90.4412 27.4003 91.5775 26.6635 92.6339C25.3408 92.7493 24.0006 92.8114 22.6512 92.8114C21.3108 92.8114 19.9704 92.7493 18.6568 92.6427C17.92 91.5862 17.2009 90.4589 16.5086 89.2692C15.8339 88.1063 15.2216 86.9256 14.6622 85.7361C15.2126 84.5464 15.8339 83.3568 16.4998 82.1939C17.1922 80.9955 17.9022 79.8591 18.639 78.8027C19.9617 78.6873 21.3019 78.6251 22.6512 78.6251C23.9916 78.6251 25.332 78.6873 26.6456 78.7938C27.3824 79.8502 28.1015 80.9776 28.7939 82.1673C29.4685 83.3302 30.0809 84.5109 30.6402 85.7006C30.0809 86.89 29.4685 88.0797 28.8026 89.2426V89.2426ZM31.6698 88.0886C32.1358 89.2456 32.5446 90.4247 32.8949 91.6217C31.7319 91.9058 30.507 92.1456 29.2377 92.332C29.6726 91.6485 30.1075 90.9472 30.516 90.228C30.9243 89.5179 31.306 88.7987 31.6698 88.0886ZM22.6689 97.5609C21.8434 96.7085 21.0179 95.7587 20.2013 94.7201C21.0002 94.7556 21.8168 94.7822 22.6423 94.7822C23.4767 94.7822 24.3023 94.7645 25.1101 94.7201C24.3482 95.7103 23.5332 96.6587 22.6689 97.5609V97.5609ZM16.0648 92.332C14.8044 92.1456 13.5882 91.9147 12.4255 91.6307C12.7538 90.4855 13.1622 89.3047 13.6237 88.124C13.9878 88.8343 14.3695 89.5445 14.7865 90.2546C15.2037 90.9649 15.6299 91.6573 16.0648 92.332ZM22.6246 73.8579C23.4502 74.7101 24.2757 75.66 25.0923 76.6987C24.2933 76.6632 23.4767 76.6366 22.6512 76.6366C21.8168 76.6366 20.9913 76.6543 20.1836 76.6987C20.9455 75.7085 21.7604 74.7602 22.6246 73.8579V73.8579ZM16.0558 79.0868C15.6209 79.7703 15.186 80.4716 14.7778 81.1906C14.3695 81.9009 13.9878 82.6112 13.6237 83.3212C13.1577 82.1643 12.7489 80.9852 12.3989 79.7881C13.5616 79.5129 14.7865 79.2732 16.0558 79.0868V79.0868ZM8.02257 90.2014C4.8803 88.8609 2.84756 87.1032 2.84756 85.7093C2.84756 84.3156 4.8803 82.549 8.02257 81.2174C8.78596 80.8889 9.62041 80.5959 10.4815 80.3207C10.9874 82.0607 11.6531 83.8717 12.4787 85.7272C11.6621 87.5737 11.0051 89.3758 10.5081 91.107C9.62934 90.8317 8.79489 90.5299 8.02257 90.2014ZM12.7982 102.887C11.591 102.195 11.0672 99.5584 11.4757 96.167C11.5733 95.3327 11.7329 94.4537 11.9282 93.557C13.6682 93.9832 15.5677 94.3117 17.5649 94.5247C18.7632 96.167 20.006 97.6584 21.2576 98.9634C18.3639 101.653 15.6475 103.127 13.8012 103.127C13.4018 103.118 13.0646 103.038 12.7982 102.887V102.887ZM33.8536 96.1227C34.2706 99.5139 33.7559 102.15 32.5574 102.852C32.2913 103.012 31.9451 103.083 31.5366 103.083C29.6992 103.083 26.9741 101.618 24.0804 98.9458C25.3231 97.6407 26.5658 96.1583 27.7465 94.5158C29.7526 94.3028 31.6521 93.9743 33.3919 93.5393C33.5961 94.436 33.7559 95.2971 33.8536 96.1227ZM37.271 90.2014C36.5076 90.5299 35.6731 90.8229 34.8121 91.0981C34.3061 89.3581 33.6404 87.5471 32.8149 85.6916C33.6317 83.8451 34.2885 82.043 34.7855 80.3118C35.6644 80.5871 36.4986 80.8889 37.2799 81.2174C40.4222 82.5578 42.4549 84.3156 42.4549 85.7093C42.446 87.1032 40.4132 88.8698 37.271 90.2014V90.2014Z" fill="#61DAFB"/>
<path d="M22.6415 89.7664C24.882 89.7664 26.6982 87.9501 26.6982 85.7093C26.6982 83.4687 24.882 81.6523 22.6415 81.6523C20.4011 81.6523 18.585 83.4687 18.585 85.7093C18.585 87.9501 20.4011 89.7664 22.6415 89.7664V89.7664ZM2.85359 112.083H1.51448V114.39H0.758789V108.688H2.64606C3.2882 108.688 3.78156 108.834 4.12612 109.127C4.4733 109.419 4.6469 109.845 4.6469 110.403C4.6469 110.758 4.55031 111.068 4.35714 111.331C4.16659 111.595 3.90034 111.792 3.55838 111.923L4.89749 114.343V114.39H4.09089L2.85359 112.083ZM1.51448 111.468H2.66957C3.04284 111.468 3.33911 111.372 3.55838 111.179C3.78025 110.985 3.89119 110.727 3.89119 110.403C3.89119 110.051 3.78547 109.781 3.57404 109.593C3.36521 109.405 3.06242 109.309 2.66564 109.307H1.51448V111.468ZM7.34867 114.468C6.77432 114.468 6.30706 114.28 5.94684 113.904C5.5866 113.525 5.40649 113.02 5.40649 112.389V112.255C5.40649 111.835 5.48611 111.461 5.64534 111.132C5.80719 110.8 6.03168 110.541 6.31881 110.356C6.60857 110.168 6.9218 110.074 7.25854 110.074C7.80937 110.074 8.23751 110.256 8.54278 110.619C8.84826 110.981 9.0009 111.501 9.0009 112.177V112.479H6.13086C6.1413 112.896 6.2627 113.234 6.49501 113.493C6.72994 113.749 7.02752 113.877 7.38777 113.877C7.64363 113.877 7.86018 113.824 8.03763 113.72C8.21528 113.616 8.3705 113.477 8.50368 113.305L8.94611 113.65C8.59102 114.195 8.05867 114.468 7.34867 114.468V114.468ZM7.25854 110.67C6.96618 110.67 6.72081 110.777 6.52242 110.991C6.32403 111.202 6.20134 111.5 6.15436 111.883H8.27661V111.829C8.25577 111.461 8.15652 111.176 7.97907 110.975C7.80143 110.771 7.56125 110.67 7.25854 110.67V110.67ZM12.4584 114.39C12.4165 114.306 12.3826 114.157 12.3566 113.943C12.0197 114.293 11.6178 114.468 11.1505 114.468C10.7329 114.468 10.3897 114.35 10.1208 114.115C9.8546 113.878 9.72141 113.578 9.72141 113.215C9.72141 112.774 9.88854 112.432 10.2226 112.189C10.5592 111.943 11.0318 111.821 11.64 111.821H12.3448V111.488C12.3448 111.235 12.269 111.034 12.1178 110.885C11.9663 110.733 11.743 110.658 11.4481 110.658C11.1896 110.658 10.9731 110.723 10.7982 110.854C10.6233 110.984 10.5358 111.142 10.5358 111.327H9.80756C9.80756 111.116 9.88199 110.912 10.0307 110.716C10.1821 110.518 10.3858 110.361 10.6416 110.247C10.9 110.132 11.1831 110.074 11.4911 110.074C11.9794 110.074 12.3617 110.197 12.6384 110.442C12.9151 110.685 13.0586 111.021 13.0691 111.449V113.399C13.0691 113.788 13.1188 114.097 13.218 114.327V114.39H12.4584ZM11.2563 113.838C11.4834 113.838 11.6988 113.779 11.9024 113.661C12.1059 113.544 12.2533 113.391 12.3448 113.203V112.334H11.777C10.8895 112.334 10.4457 112.593 10.4457 113.113C10.4457 113.34 10.5215 113.518 10.6728 113.646C10.8242 113.773 11.0187 113.838 11.2563 113.838V113.838ZM15.904 113.877C16.1624 113.877 16.3883 113.798 16.5814 113.642C16.7745 113.485 16.8815 113.289 16.9024 113.054H17.5877C17.5746 113.297 17.4911 113.528 17.3371 113.747C17.183 113.967 16.9768 114.142 16.7184 114.272C16.4625 114.403 16.1912 114.468 15.904 114.468C15.3271 114.468 14.8676 114.276 14.5256 113.892C14.1864 113.506 14.0167 112.979 14.0167 112.31V112.189C14.0167 111.776 14.0923 111.41 14.2438 111.089C14.3952 110.767 14.6118 110.518 14.8938 110.341C15.1783 110.163 15.5137 110.074 15.9 110.074C16.3752 110.074 16.7694 110.217 17.0826 110.501C17.3984 110.786 17.5667 111.155 17.5877 111.609H16.9024C16.8815 111.335 16.7771 111.111 16.5891 110.936C16.404 110.758 16.1741 110.67 15.9 110.67C15.532 110.67 15.2462 110.803 15.0425 111.069C14.8416 111.333 14.741 111.715 14.741 112.216V112.353C14.741 112.841 14.8416 113.217 15.0425 113.481C15.2436 113.745 15.5308 113.877 15.904 113.877V113.877ZM19.3849 109.127V110.153H20.1758V110.713H19.3849V113.34C19.3849 113.51 19.4202 113.638 19.4907 113.724C19.5611 113.807 19.6812 113.849 19.8509 113.849C19.9343 113.849 20.0492 113.834 20.1953 113.802V114.39C20.0047 114.442 19.8196 114.468 19.6393 114.468C19.3158 114.468 19.0716 114.37 18.9071 114.174C18.7428 113.978 18.6606 113.7 18.6606 113.34V110.713H17.889V110.153H18.6606V109.127H19.3849ZM27.5096 114.39H26.7538L23.8838 109.996V114.39H23.1282V108.688H23.8838L26.7617 113.101V108.688H27.5096V114.39ZM31.3468 114.39C31.3049 114.306 31.271 114.157 31.245 113.943C30.9082 114.293 30.5062 114.468 30.039 114.468C29.6214 114.468 29.278 114.35 29.0092 114.115C28.743 113.878 28.6099 113.578 28.6099 113.215C28.6099 112.774 28.7768 112.432 29.111 112.189C29.4477 111.943 29.9203 111.821 30.5284 111.821H31.2333V111.488C31.2333 111.235 31.1575 111.034 31.006 110.885C30.8548 110.733 30.6315 110.658 30.3365 110.658C30.0781 110.658 29.8615 110.723 29.6867 110.854C29.5118 110.984 29.4243 111.142 29.4243 111.327H28.696C28.696 111.116 28.7704 110.912 28.9191 110.716C29.0705 110.518 29.2742 110.361 29.53 110.247C29.7885 110.132 30.0715 110.074 30.3796 110.074C30.8677 110.074 31.2502 110.197 31.5268 110.442C31.8035 110.685 31.947 111.021 31.9576 111.449V113.399C31.9576 113.788 32.0072 114.097 32.1064 114.327V114.39H31.3468ZM30.1448 113.838C30.3718 113.838 30.5872 113.779 30.7909 113.661C30.9943 113.544 31.1418 113.391 31.2333 113.203V112.334H30.6654C29.778 112.334 29.3341 112.593 29.3341 113.113C29.3341 113.34 29.41 113.518 29.5612 113.646C29.7127 113.773 29.9072 113.838 30.1448 113.838ZM34.0759 109.127V110.153H34.8668V110.713H34.0759V113.34C34.0759 113.51 34.1112 113.638 34.1816 113.724C34.2521 113.807 34.3722 113.849 34.5419 113.849C34.6253 113.849 34.7402 113.834 34.8865 113.802V114.39C34.6957 114.442 34.5105 114.468 34.3303 114.468C34.0068 114.468 33.7626 114.37 33.5981 114.174C33.4337 113.978 33.3516 113.7 33.3516 113.34V110.713H32.5802V110.153H33.3516V109.127H34.0759ZM36.5036 114.39H35.7791V110.153H36.5036V114.39ZM35.7203 109.029C35.7203 108.911 35.7557 108.812 35.8261 108.731C35.8992 108.65 36.0062 108.61 36.1471 108.61C36.2882 108.61 36.3952 108.65 36.4682 108.731C36.5413 108.812 36.5778 108.911 36.5778 109.029C36.5778 109.146 36.5413 109.244 36.4682 109.322C36.3952 109.401 36.2882 109.44 36.1471 109.44C36.0062 109.44 35.8992 109.401 35.8261 109.322C35.7557 109.244 35.7203 109.146 35.7203 109.029ZM39.0643 113.407L40.1135 110.153H40.8537L39.3344 114.39H38.7822L37.2475 110.153H37.9875L39.0643 113.407ZM43.2538 114.468C42.6796 114.468 42.2123 114.28 41.8521 113.904C41.4918 113.525 41.3118 113.02 41.3118 112.389V112.255C41.3118 111.835 41.3914 111.461 41.5506 111.132C41.7123 110.8 41.9368 110.541 42.224 110.356C42.5138 110.168 42.827 110.074 43.1637 110.074C43.7145 110.074 44.1426 110.256 44.4481 110.619C44.7534 110.981 44.9062 111.501 44.9062 112.177V112.479H42.0361C42.0466 112.896 42.1679 113.234 42.4003 113.493C42.6351 113.749 42.9328 113.877 43.2929 113.877C43.5488 113.877 43.7655 113.824 43.943 113.72C44.1204 113.616 44.2758 113.477 44.409 113.305L44.8514 113.65C44.4963 114.195 43.9638 114.468 43.2538 114.468V114.468ZM43.1637 110.67C42.8715 110.67 42.626 110.777 42.4277 110.991C42.2292 111.202 42.1065 111.5 42.0597 111.883H44.1817V111.829C44.1609 111.461 44.0616 111.176 43.8842 110.975C43.7068 110.771 43.4666 110.67 43.1637 110.67V110.67Z" fill="#61DAFB"/>
<g clip-path="url(#clip0_113_336)">
<path d="M165.559 75.752L162.459 110.483L148.523 114.346L134.625 110.488L131.528 75.752H165.559Z" fill="#E44D26"/>
<path d="M148.544 111.393L159.805 108.271L162.454 78.592H148.544V111.393Z" fill="#F16529"/>
<path d="M142.516 87.1128H148.543V82.8525H137.86L137.962 83.9955L139.009 95.7357H148.543V91.4754H142.906L142.516 87.1128V87.1128ZM143.476 97.8659H139.2L139.797 104.555L148.524 106.978L148.543 106.972V102.54L148.524 102.545L143.78 101.264L143.476 97.8659V97.8659Z" fill="#EBEBEB"/>
<path d="M134.694 66.312H136.859V68.451H138.84V66.312H141.005V72.7895H138.84V70.6204H136.859V72.7895H134.694V66.312H134.694ZM143.852 68.4601H141.946V66.312H147.924V68.4601H146.017V72.7895H143.852V68.4601H143.852H143.852ZM148.873 66.312H151.13L152.519 68.588L153.906 66.312H156.165V72.7895H154.009V69.5789L152.519 71.882H152.482L150.991 69.5789V72.7895H148.873V66.312ZM157.242 66.312H159.408V70.6485H162.453V72.7895H157.242V66.312H157.242Z" fill="black"/>
<path d="M148.528 95.7357H153.775L153.28 101.261L148.528 102.543V106.976L157.262 104.555L157.326 103.835L158.327 92.6194L158.431 91.4754H148.528V95.7357ZM148.528 87.1024V87.1128H158.819L158.904 86.1553L159.099 83.9955L159.2 82.8525H148.528V87.1025V87.1024Z" fill="white"/>
</g>
<g clip-path="url(#clip1_113_336)">
<path d="M74.1761 110.602L71.0732 75.7693H105.183L102.08 110.589L88.1019 114.468L74.1761 110.602Z" fill="#1F72B5"/>
<path d="M88.1279 111.512L99.4183 108.382L102.08 78.6182H88.1279V111.512Z" fill="#51A3DC"/>
<path d="M77.0388 86.6578L76.624 82.6313H99.6317L99.3646 87.3002L89.6393 91.5938H98.963L97.9594 104.837L88.5558 107.365L78.8042 104.998L78.2023 98.2821H82.51L82.7508 101.827L88.395 102.884L93.6122 101.279L93.853 95.6071H77.8279L77.5335 91.3935L88.1279 86.7519L77.0388 86.6578Z" fill="#EBEBEB"/>
<path d="M77.5332 91.3936L77.8276 95.6072H88.1275V86.752L77.5332 91.3936Z" fill="#CECECE"/>
<path d="M82.7506 101.827L82.5099 98.282H78.2021L78.8041 104.997L88.1277 107.258V102.83L82.7506 101.827Z" fill="#CECECE"/>
<path d="M76.624 82.6313L77.0388 86.6578L88.1279 86.7519V82.6313H76.624Z" fill="#CECECE"/>
<path d="M91.3379 67.9175V66.312H84.9177V70.0573H89.3317V71.2612H84.7832V72.7331H91.2043V68.8534H86.6568V67.9175H91.3379Z" fill="black"/>
<path d="M79.7008 70.0977V71.2612H84.2492V72.7331H77.8281V68.8938V66.312H84.1147V67.9175H79.7008V70.0977Z" fill="black"/>
<path d="M98.4277 67.9175V66.312H92.0066V70.0573H96.4215V71.2612H91.873V72.7331H98.2942V68.8534H93.7457V67.9175H98.4277Z" fill="black"/>
</g>
<defs>
<clipPath id="clip0_113_336">
<rect width="34.1523" height="48.156" fill="white" transform="translate(131.469 66.312)"/>
</clipPath>
<clipPath id="clip1_113_336">
<rect width="48.156" height="48.156" fill="white" transform="translate(64.0498 66.312)"/>
</clipPath>
</defs>
</svg>
