<svg width="90" height="126" viewBox="0 0 90 126" fill="none" xmlns="http://www.w3.org/2000/svg">
<g clip-path="url(#clip0_94_312)">
<path d="M89.0912 24.6704L80.9889 115.437L44.5688 125.533L8.24913 115.451L0.155273 24.6704H89.0912Z" fill="#E44D26"/>
<path d="M44.623 117.815L74.0523 109.657L80.9759 32.0928H44.623V117.815Z" fill="#F16529"/>
<path d="M28.8729 54.3609H44.6234V43.2271H16.7051L16.9714 46.214L19.7081 76.8959H44.6234V65.7621H29.8905L28.8729 54.3609ZM31.3822 82.463H20.2056L21.7653 99.9447L44.5722 106.276L44.6234 106.262V94.6778L44.5746 94.6907L32.175 91.3426L31.3822 82.463Z" fill="#EBEBEB"/>
<path d="M8.42969 0H14.0878V5.59009H19.2637V0H24.9221V16.9282H19.264V11.2597H14.0881V16.9282H8.43004V0H8.42969ZM32.3623 5.61379H27.382V0H43.0049V5.61379H38.0214V16.9282H32.3634V5.61379H32.363H32.3623ZM45.4843 0H51.3839L55.0131 5.94812L58.6387 0H64.5408V16.9282H58.9057V8.53765L55.0131 14.5565H54.9154L51.0203 8.53765V16.9282H45.4843V0ZM67.3566 0H73.0164V11.3329H80.9732V16.9282H67.3562V0H67.3566Z" fill="black"/>
<path d="M44.5843 76.8959H58.2944L57.0018 91.3356L44.584 94.6872V106.27L67.409 99.9447L67.5764 98.0636L70.1931 68.7518L70.4647 65.7621H44.5843V76.8959ZM44.5843 54.3337V54.3609H71.4778L71.7009 51.8585L72.2085 46.214L72.4745 43.2271H44.5843V54.334V54.3337Z" fill="white"/>
</g>
<defs>
<clipPath id="clip0_94_312">
<rect width="89.2536" height="125.851" fill="white"/>
</clipPath>
</defs>
</svg>
