<svg width="188" height="90" viewBox="0 0 188 90" fill="none" xmlns="http://www.w3.org/2000/svg">
<path d="M78.6515 43.9363C78.6458 41.3786 77.794 38.8947 76.2289 36.8718C74.6638 34.8488 72.4734 33.4005 69.9992 32.7527L81.1024 0H26.061L37.1935 32.8566C34.7878 33.555 32.6739 35.0155 31.1694 37.0185C29.665 39.0215 28.8514 41.4587 28.851 43.9637C28.851 47.838 30.7881 51.273 33.7526 53.3748C32.5899 55.0277 31.2469 56.5511 29.7235 57.9981C26.857 60.6842 23.6788 62.7507 20.2437 64.1192C17.1459 62.0272 15.8009 58.3353 17.0145 55.0277C21.7201 53.5807 25.1767 49.1457 25.1767 43.9696C25.1715 40.9084 23.9532 37.9741 21.7886 35.8095C19.624 33.6449 16.6897 32.4265 13.6285 32.4213C10.5607 32.4255 7.6198 33.646 5.45057 35.8152C3.28134 37.9845 2.06084 40.9254 2.05669 43.9931C2.05669 47.1439 3.35072 50.0378 5.41529 52.1043L4.87219 53.2141C3.14093 56.7785 1.17832 60.8077 0.429351 65.3309C-1.06859 74.3499 1.38419 81.6298 7.29948 85.7374C10.6326 88.0353 14.299 89.1979 18.2517 89.1979C25.0453 89.1979 31.941 85.7864 38.6033 82.4827C43.3559 80.1299 48.2634 77.6791 53.1121 76.4909C54.8767 76.0518 56.755 75.7929 58.7196 75.5106C62.6997 74.9224 66.8053 74.3479 70.4972 72.2049C74.8106 69.6992 77.7555 65.5152 78.6084 60.7116C79.2554 57.0177 78.6084 53.3003 76.9556 50.0457C78.0963 48.2084 78.6963 46.087 78.6868 43.9245L78.6515 43.9363ZM73.6127 43.9363C73.6127 47.5243 70.6717 50.4456 67.1033 50.4456C65.9673 50.4348 64.8537 50.1286 63.8718 49.5572C62.89 48.9858 62.0736 48.1688 61.5031 47.1864C60.9325 46.2041 60.6273 45.0902 60.6174 43.9542C60.6075 42.8182 60.8934 41.6992 61.4468 40.7071C61.6527 40.3463 61.9115 39.9816 62.1723 39.6738C62.4415 39.3573 62.7446 39.0713 63.0761 38.8209L63.1016 38.7954C63.3075 38.6386 63.5408 38.4856 63.7741 38.3308C63.9035 38.2523 64.0094 38.1739 64.1074 38.1249C64.1329 38.1249 64.1584 38.0994 64.1858 38.0994C64.2898 38.0484 64.4211 37.9955 64.5466 37.9426C64.6721 37.8896 64.8054 37.8386 64.9074 37.7857C64.9329 37.7857 64.9583 37.7602 64.9858 37.7602C65.0897 37.7347 65.1917 37.6818 65.2956 37.6563C65.3211 37.6563 65.374 37.6308 65.3995 37.6308L65.7603 37.5524H65.7857L66.174 37.4739C66.1994 37.4739 66.2524 37.4739 66.2779 37.4485C66.3818 37.4485 66.4837 37.423 66.5876 37.423H66.717C66.8465 37.423 66.9759 37.3975 67.1092 37.3975H67.4425C67.538 37.3931 67.6336 37.4017 67.7268 37.423H67.7778C67.9863 37.4444 68.1932 37.4791 68.3973 37.5269C69.8641 37.8412 71.179 38.6481 72.1235 39.8135C73.0681 40.9788 73.5853 42.4323 73.5891 43.9323L73.6127 43.9363ZM33.2664 5.16632H73.897L64.5721 32.6743C64.1839 32.7527 63.7976 32.8801 63.4094 33.0076L53.5944 13.0089L43.7519 32.8841C43.3637 32.7547 42.952 32.6782 42.5363 32.5998L33.2664 5.16632ZM51.7357 41.6894C51.2602 39.3047 50.0378 37.1333 48.2457 35.4898L53.5924 24.6925L58.9901 35.7211C57.3883 37.323 56.2452 39.364 55.7609 41.6874L51.7357 41.6894ZM38.7954 37.6073L39.1562 37.5288H39.2346C39.3385 37.5034 39.4404 37.5034 39.5444 37.4779H39.6483C39.7522 37.4779 39.8287 37.4524 39.9326 37.4524H40.9404C41.0443 37.4524 41.1207 37.4779 41.1992 37.4779C41.2501 37.4779 41.2776 37.4779 41.3286 37.5034C41.4325 37.5288 41.5089 37.5288 41.6129 37.5543C41.6383 37.5543 41.6638 37.5543 41.7168 37.5798L42.0775 37.6583C42.1935 37.6773 42.3064 37.7122 42.4128 37.7622C42.4383 37.7622 42.4638 37.7877 42.5167 37.7877C42.5951 37.8131 42.6971 37.8386 42.7755 37.8916C42.801 37.8916 42.8265 37.9171 42.8539 37.9171C42.9579 37.968 43.0598 37.9955 43.1637 38.0465H43.1892C43.3087 38.0909 43.4215 38.1516 43.5245 38.2268C43.6539 38.2778 43.7598 38.3562 43.8578 38.4072C43.8833 38.4072 43.8833 38.4327 43.9088 38.4327C44.0127 38.4837 44.0892 38.5621 44.1931 38.6131L44.2186 38.6386C44.5224 38.875 44.8155 39.1249 45.0969 39.3876L45.1224 39.413C45.3917 39.6999 45.6339 40.011 45.8459 40.3424C46.5389 41.4018 46.907 42.6409 46.9047 43.9069C46.9047 47.4948 43.9637 50.4162 40.3953 50.4162C38.6721 50.4059 37.0224 49.7168 35.8038 48.4983C34.5853 47.2798 33.8962 45.6301 33.8859 43.9069C33.8604 40.8874 35.9524 38.3268 38.7934 37.6053L38.7954 37.6073ZM13.3795 37.4269C16.9675 37.4269 19.8888 40.3679 19.8888 43.9363C19.8785 45.6595 19.1894 47.3092 17.9709 48.5277C16.7524 49.7462 15.1027 50.4353 13.3795 50.4456C11.6562 50.4353 10.0065 49.7462 8.78801 48.5277C7.56949 47.3092 6.88038 45.6595 6.87009 43.9363C6.88038 42.213 7.56949 40.5633 8.78801 39.3448C10.0065 38.1263 11.6562 37.4372 13.3795 37.4269ZM73.4558 59.8234C72.8676 63.1291 70.8481 66.023 67.8483 67.7523C65.0328 69.3796 61.5743 69.8953 57.9274 70.4129C55.9393 70.6972 53.8454 71.007 51.8494 71.4972C46.4772 72.8147 41.3109 75.4184 36.3014 77.8771C29.896 81.0534 23.8513 84.0532 18.2634 84.0532C15.3225 84.0532 12.7344 83.2258 10.2561 81.4965C4.54476 77.5477 4.82906 70.2051 5.51921 66.1759C6.13877 62.4056 7.87199 58.8666 9.52286 55.4825C9.62677 55.2767 9.70324 55.0943 9.80715 54.8885C10.3873 55.0948 10.9843 55.2503 11.5913 55.3531C10.611 60.8292 13.3991 66.4857 18.8458 69.2738L19.8261 69.7894L20.8848 69.4012C25.4041 67.7994 29.5901 65.1917 33.284 61.7037C35.3251 59.8011 37.1289 57.659 38.6562 55.3237C39.2395 55.4178 39.8299 55.4611 40.4208 55.4531C42.9785 55.4474 45.4624 54.5956 47.4853 53.0305C49.5082 51.4654 50.9565 49.275 51.6043 46.8008H55.9433C57.2373 51.7867 61.7546 55.4531 67.1268 55.4531C69.181 55.4534 71.1973 54.9 72.9637 53.8513C73.6362 55.7884 73.8421 57.804 73.4793 59.8175L73.4558 59.8234ZM114.851 57.0079C114.497 58.1933 113.888 59.2868 113.067 60.2116C112.238 61.141 111.13 61.89 109.734 62.4585C108.338 63.0271 106.636 63.3114 104.593 63.3114C101.181 63.3114 98.5482 62.4095 96.715 60.6253C94.8818 58.8411 93.9701 56.1825 93.9701 52.7239V50.4907H98.8463V52.0592C98.8359 53.0457 98.9225 54.0308 99.1051 55.0002C99.2854 55.9021 99.5697 56.653 100.007 57.3001C100.455 57.9574 101.07 58.4833 101.789 58.8235C102.564 59.1843 103.546 59.3666 104.734 59.3666C106.956 59.3666 108.459 58.7725 109.332 57.602C110.159 56.4138 110.598 54.812 110.598 52.7984V25.9081H115.455V53.3925C115.436 54.6198 115.238 55.8378 114.867 57.0079H114.851ZM141.432 60.8037C139.444 62.3017 136.961 63.0507 133.942 63.0507C131.824 63.0507 129.989 62.7174 128.44 62.0174C126.929 61.3767 125.585 60.3958 124.515 59.1509C123.456 57.9118 122.653 56.4648 122.139 54.7336C121.596 53.0278 121.311 51.1691 121.237 49.1536C121.237 47.138 121.547 45.3048 122.166 43.6245C122.741 42.0185 123.618 40.5372 124.748 39.2601C125.844 38.0306 127.192 37.0527 128.701 36.3936C130.227 35.7231 131.877 35.3604 133.687 35.3604C136.04 35.3604 138 35.8505 139.569 36.8309C141.138 37.8112 142.359 39.0523 143.294 40.5502C144.225 42.0587 144.881 43.7203 145.231 45.4577C145.575 47.1223 145.722 48.8213 145.671 50.5201H125.868C125.836 51.6353 125.968 52.7492 126.26 53.8258C126.548 54.8571 127.06 55.7864 127.758 56.5707C128.431 57.3707 129.327 58.0177 130.366 58.4823C131.424 58.9725 132.666 59.2078 134.091 59.2078C135.924 59.2078 137.45 58.7686 138.64 57.9137C139.83 57.0589 140.6 55.7708 140.965 53.9924H145.278C144.684 57.0118 143.416 59.2627 141.43 60.7606L141.432 60.8037ZM140.373 43.8049C139.985 42.8755 139.444 42.0991 138.796 41.4286C138.122 40.7562 137.324 40.2209 136.446 39.8522C135.544 39.464 134.534 39.2581 133.45 39.2581C132.313 39.2581 131.307 39.464 130.401 39.8522C129.495 40.2404 128.723 40.7816 128.076 41.4541C127.419 42.1493 126.888 42.9534 126.507 43.8304C126.101 44.7362 125.913 45.693 125.835 46.7243H141.049C140.98 45.7193 140.744 44.7328 140.351 43.8049H140.373ZM153.519 56.5491C153.917 57.1972 154.466 57.7384 155.121 58.1255C155.821 58.5241 156.579 58.8118 157.368 58.9784C158.195 59.1588 159.074 59.2372 159.95 59.2372C160.667 59.2342 161.383 59.1825 162.093 59.0823C162.806 58.9945 163.502 58.8029 164.16 58.5137C164.779 58.2294 165.322 57.8412 165.728 57.2981C166.12 56.7825 166.348 56.0825 166.348 55.2826C166.348 54.1454 165.908 53.2945 165.054 52.7259C164.199 52.1573 163.142 51.6671 161.85 51.3044L157.666 50.3241C156.168 50.0398 154.772 49.6261 153.482 49.0849C152.254 48.6069 151.156 47.8458 150.278 46.8635C149.427 45.9087 148.984 44.5637 148.984 42.8599C148.984 41.5168 149.294 40.3796 149.886 39.4248C150.467 38.4856 151.253 37.6905 152.186 37.0995C153.117 36.5054 154.174 36.0662 155.362 35.7564C156.512 35.4722 157.691 35.3248 158.876 35.3172C160.271 35.3069 161.663 35.437 163.032 35.7054C164.295 35.9642 165.408 36.4034 166.391 37.0485C167.371 37.6681 168.147 38.5464 168.716 39.6052C169.304 40.6894 169.645 42.0325 169.749 43.6343H165.385C165.306 42.7814 165.101 42.0658 164.712 41.5168C164.331 40.9646 163.838 40.4984 163.265 40.1483C162.677 39.815 162.05 39.5542 161.354 39.3993C160.658 39.2444 159.932 39.164 159.236 39.164C158.579 39.1643 157.923 39.2161 157.274 39.3189C156.648 39.4101 156.039 39.5931 155.466 39.862C154.947 40.1017 154.488 40.4548 154.123 40.8953C153.79 41.3345 153.607 41.8756 153.607 42.5481C153.607 43.2971 153.866 43.9167 154.407 44.4107C154.923 44.9009 155.623 45.3126 156.423 45.6499C157.25 45.9832 158.154 46.2439 159.168 46.4773L162.242 47.1753C163.324 47.4132 164.393 47.7064 165.446 48.0536C166.427 48.363 167.353 48.8248 168.191 49.4222C168.984 49.9776 169.645 50.7004 170.128 51.5397C170.618 52.3926 170.877 53.4513 170.877 54.7159C170.877 56.3178 170.543 57.6608 169.869 58.7196C169.209 59.7626 168.316 60.6379 167.259 61.2763C166.175 61.9233 164.959 62.386 163.616 62.6448C162.289 62.9019 160.94 63.0319 159.587 63.033C158.171 63.0376 156.759 62.8818 155.378 62.5683C154.11 62.2972 152.907 61.7796 151.839 61.0449C150.805 60.3469 150.006 59.4176 149.384 58.3C148.762 57.1824 148.429 55.7511 148.351 54.116H152.715C152.845 55.0963 153.076 55.9237 153.49 56.5707L153.519 56.5491ZM187.125 36.0074V39.8561H181.854V56.3099C181.854 56.8256 181.905 57.2393 181.984 57.5491C182.062 57.8588 182.243 58.0922 182.474 58.2745C182.705 58.4569 183.062 58.5588 183.482 58.6078C183.901 58.6568 184.462 58.6862 185.135 58.6862H187.123V62.535H183.79C182.652 62.535 181.698 62.4566 180.896 62.2997C180.094 62.1429 179.449 61.8605 178.958 61.4468C178.468 61.0331 178.106 60.4665 177.849 59.7156C177.614 58.9666 177.488 57.9843 177.488 56.7452V39.8836H172.969V36.0348H177.488V28.0805H181.852V36.0093L187.125 36.0074Z" fill="#99424F"/>
</svg>
