<svg width="135" height="133" viewBox="0 0 135 133" fill="none" xmlns="http://www.w3.org/2000/svg">
<rect x="15" y="10" width="120" height="113" fill="black"/>
<path d="M0 0H135V133H0V0ZM35.475 111.129C38.475 117.409 44.4 122.582 54.525 122.582C65.775 122.582 73.5 116.671 73.5 103.74V61.0322H60.75V103.444C60.75 109.799 58.125 111.424 54 111.424C49.65 111.424 47.85 108.469 45.825 104.996L35.475 111.129ZM80.325 109.799C84.075 117.04 91.65 122.582 103.5 122.582C115.5 122.582 124.5 116.449 124.5 105.144C124.5 94.7256 118.425 90.0705 107.625 85.4894L104.475 84.1594C99 81.8689 96.675 80.3172 96.675 76.6228C96.675 73.5933 99 71.2289 102.75 71.2289C106.35 71.2289 108.75 72.7805 110.925 76.6228L120.75 70.1944C116.625 63.1011 110.775 60.3672 102.75 60.3672C91.425 60.3672 84.15 67.4606 84.15 76.8444C84.15 87.0411 90.225 91.8439 99.375 95.6861L102.525 97.0161C108.375 99.5283 111.825 101.08 111.825 105.366C111.825 108.912 108.45 111.498 103.2 111.498C96.975 111.498 93.375 108.321 90.675 103.888L80.325 109.799Z" fill="#FFCA28"/>
</svg>
