<svg width="88" height="300" viewBox="0 0 88 300" fill="none" xmlns="http://www.w3.org/2000/svg">
<g clip-path="url(#clip0_113_334)">
<path d="M81.5257 131.955C81.5251 130.508 81.2178 129.229 80.5963 128.131C79.9859 127.052 79.0716 126.147 77.8453 125.432C67.7229 119.552 57.5907 113.691 47.4716 107.806C44.7435 106.219 42.0984 106.277 39.3906 107.886C35.3616 110.28 15.1896 121.921 9.17867 125.428C6.70318 126.872 5.4986 129.081 5.49801 131.953C5.49414 143.776 5.49801 155.6 5.49414 167.423C5.49474 168.839 5.78896 170.093 6.38307 171.174C6.99383 172.286 7.92084 173.216 9.1754 173.948C15.1867 177.455 35.3613 189.095 39.3894 191.489C42.0984 193.099 44.7435 193.157 47.4725 191.57C57.5919 185.684 67.7247 179.823 77.8486 173.944C79.1032 173.213 80.0302 172.283 80.6409 171.171C81.2342 170.09 81.529 168.836 81.5296 167.42C81.5296 167.42 81.5296 143.779 81.5257 131.955" fill="#5C8DBC"/>
<path d="M43.6279 149.573L6.38281 171.175C6.99358 172.287 7.92059 173.216 9.17514 173.948C15.1864 177.455 35.361 189.095 39.3892 191.489C42.0982 193.1 44.7432 193.157 47.4722 191.57C57.5916 185.684 67.7245 179.823 77.8484 173.944C79.1029 173.213 80.0299 172.283 80.6407 171.172L43.6279 149.573" fill="#1A4674"/>
<path d="M32.5967 155.972C34.764 159.783 38.8382 162.353 43.5119 162.353C48.2145 162.353 52.312 159.75 54.4682 155.898L43.6283 149.573L32.5967 155.972" fill="#1A4674"/>
<path d="M81.5255 131.955C81.5249 130.508 81.2175 129.229 80.5961 128.131L43.6279 149.573L80.6407 171.172C81.2339 170.09 81.5287 168.836 81.5293 167.42C81.5293 167.42 81.5293 143.779 81.5255 131.955" fill="#1B598E"/>
<path d="M79.4901 151.117H76.5978V154.031H73.7049V151.117H70.813V148.204H73.7049V145.29H76.5978V148.204H79.4901V151.117ZM68.9363 151.117H66.0443V154.031H63.1521V151.117H60.2598V148.204H63.1521V145.29H66.0443V148.204H68.9363V151.117Z" fill="white"/>
<path d="M54.4683 155.898C52.312 159.75 48.2145 162.353 43.512 162.353C38.8382 162.353 34.764 159.783 32.5967 155.971C31.508 154.059 30.9362 151.892 30.9385 149.688C30.9385 142.693 36.568 137.023 43.512 137.023C48.1556 137.023 52.2085 139.561 54.3864 143.334L65.3764 136.959C61.0082 129.363 52.8528 124.253 43.512 124.253C29.5664 124.253 18.2617 135.641 18.2617 149.688C18.2617 154.296 19.4788 158.618 21.6059 162.345C25.9631 169.981 34.1416 175.123 43.512 175.123C52.8995 175.123 61.0909 169.96 65.4418 162.302L54.4683 155.898Z" fill="white"/>
</g>
<path d="M34.987 213C28.1545 213 22.6218 218.533 22.6218 225.365V232.629H41.1696C42.8562 232.629 44.244 235.098 44.244 236.785H13.3652C6.53264 236.785 1 242.317 1 249.15V265.501C1 272.334 6.53264 277.866 13.3652 277.866H18.4667V266.278C18.4667 259.446 23.9656 253.913 30.7982 253.913H53.5013C60.3339 253.913 65.8665 248.414 65.8665 241.582V225.365C65.8665 218.533 60.3339 213 53.5013 213L34.987 213ZM31.8789 219.96C33.6086 219.96 34.987 220.483 34.987 223.034C34.987 225.586 33.6086 226.886 31.8789 226.886C30.1924 226.886 28.8045 225.586 28.8045 223.034C28.8045 220.483 30.1924 219.96 31.8789 219.96Z" fill="#3C78AA"/>
<path d="M70.0135 234.622V246.21C70.0135 253.043 64.5232 258.576 57.6906 258.576H34.9873C28.1547 258.576 22.6221 264.066 22.6221 270.898V287.115C22.6206 290.396 23.9226 293.543 26.2416 295.863C28.5607 298.184 31.7067 299.488 34.9873 299.489H53.5011C56.7818 299.488 59.9278 298.184 62.2468 295.863C64.5658 293.543 65.8678 290.396 65.8663 287.115V279.851H47.3102C45.6237 279.851 44.2443 277.391 44.2443 275.704H75.1233C78.404 275.704 81.55 274.399 83.869 272.079C86.188 269.758 87.4901 266.611 87.4886 263.331V246.987C87.4871 240.159 81.9518 234.624 75.1233 234.622L70.0135 234.622ZM28.3316 254.141L28.3147 254.158C28.3666 254.148 28.4232 254.151 28.4752 254.141H28.3316ZM56.6095 285.603C58.296 285.603 59.6839 286.903 59.6839 289.455C59.6814 291.15 58.305 292.523 56.6095 292.521C54.8797 292.521 53.5013 292.006 53.5013 289.455C53.5013 286.903 54.8797 285.603 56.6095 285.603Z" fill="#FDD835"/>
<rect x="6" y="10" width="78" height="73" fill="black"/>
<path d="M0.417969 0.834961H86.7324V86.1339H0.417969V0.834961ZM23.0995 72.107C25.0176 76.135 28.8058 79.4522 35.2794 79.4522C42.4723 79.4522 47.4114 75.6611 47.4114 67.3681V39.9777H39.2595V67.1786C39.2595 71.254 37.5811 72.2965 34.9437 72.2965C32.1625 72.2965 31.0116 70.401 29.7169 68.1738L23.0995 72.107ZM51.7751 71.254C54.1727 75.898 59.0159 79.4522 66.5924 79.4522C74.2648 79.4522 80.0191 75.5189 80.0191 68.2685C80.0191 61.5868 76.1349 58.6013 69.2298 55.6632L67.2158 54.8102C63.7152 53.3412 62.2287 52.3461 62.2287 49.9766C62.2287 48.0337 63.7152 46.5173 66.1128 46.5173C68.4146 46.5173 69.949 47.5124 71.3397 49.9766L77.6214 45.8539C74.9841 41.3046 71.2438 39.5512 66.1128 39.5512C58.872 39.5512 54.2206 44.1005 54.2206 50.1188C54.2206 56.6584 58.1048 59.7386 63.955 62.2028L65.969 63.0558C69.7093 64.667 71.9151 65.6622 71.9151 68.4107C71.9151 70.6853 69.7572 72.3439 66.4006 72.3439C62.4205 72.3439 60.1188 70.3062 58.3925 67.4629L51.7751 71.254Z" fill="#FFCA28"/>
<defs>
<clipPath id="clip0_113_334">
<rect width="76.1598" height="86.3144" fill="white" transform="translate(5.49414 106.567)"/>
</clipPath>
</defs>
</svg>
