<svg width="209" height="210" viewBox="0 0 209 210" fill="none" xmlns="http://www.w3.org/2000/svg">
<path d="M193.091 0H15.3801C6.89452 0 0 6.7586 0 15.0988V194.285C0 202.623 6.89452 209.394 15.3801 209.394H193.091C201.592 209.394 208.515 202.623 208.515 194.285V15.0988C208.515 6.7586 201.592 0 193.091 0Z" fill="#007BB6"/>
<path d="M46.3824 28.827C56.2769 28.827 64.3082 36.8959 64.3082 46.8359C64.3082 56.7799 56.2769 64.8488 46.3824 64.8488C36.4499 64.8488 28.4407 56.7799 28.4407 46.8359C28.4407 36.8959 36.4499 28.827 46.3824 28.827ZM30.8963 78.5006H61.8546V178.427H30.8963V78.5006Z" fill="white"/>
<path d="M81.2544 78.5006H110.9V92.1605H111.324C115.449 84.3046 125.539 76.0206 140.585 76.0206C171.9 76.0206 177.686 96.7104 177.686 123.622V178.427H146.763V129.832C146.763 118.244 146.563 103.336 130.693 103.336C114.6 103.336 112.145 115.967 112.145 129.002V178.427H81.2544V78.5006Z" fill="white"/>
</svg>
