<svg width="193" height="194" viewBox="0 0 193 194" fill="none" xmlns="http://www.w3.org/2000/svg">
<path d="M129.943 114.048C130.901 105.995 130.614 104.814 136.557 106.118L138.066 106.252C142.637 106.462 148.616 105.51 152.127 103.863C159.688 100.324 164.171 94.4106 156.716 95.9639C139.709 99.5035 138.539 93.6944 138.539 93.6944C156.499 66.805 164.007 32.6725 157.527 24.3169C139.854 1.52717 109.261 12.3038 108.749 12.5838L108.585 12.6159C105.224 11.9105 101.465 11.4912 97.2401 11.4223C89.5441 11.2953 83.7042 13.4592 79.2746 16.8488C79.2746 16.8488 24.6987 -5.84137 27.2373 45.3834C27.7771 56.2809 42.7158 127.841 60.5327 106.226C67.0444 98.3236 73.3377 91.6407 73.3377 91.6407C76.4631 93.7357 80.2042 94.8039 84.1288 94.4198L84.4321 94.1596C84.3381 95.1406 84.379 96.1001 84.5549 97.2356C79.9646 102.413 81.3143 103.322 72.1366 105.227C62.8529 107.158 68.3076 110.595 71.8667 111.494C76.1856 112.585 86.1715 114.129 92.9213 104.593L92.6528 105.681C94.4544 107.135 94.3316 116.129 94.5863 122.555C94.8411 128.981 95.2687 134.977 96.5668 138.515C97.8649 142.05 99.3965 151.157 111.457 148.549C121.535 146.367 129.24 143.23 129.943 114.048" fill="black"/>
<path d="M107.529 154.9C102.194 154.9 98.7213 152.819 96.6103 150.808C93.4258 147.777 92.1626 143.87 91.4089 141.536L91.0828 140.561C89.5633 136.422 89.0493 130.462 88.7444 122.789C88.6995 121.59 88.6616 120.39 88.6307 119.19C88.6049 118.27 88.5731 117.116 88.5276 115.906C86.6057 116.831 84.5658 117.482 82.4663 117.84C78.7055 118.489 74.6626 118.278 70.4468 117.214C67.473 116.464 64.3825 114.91 62.6219 112.507C57.4887 117.044 52.592 116.428 49.9246 115.531C45.219 113.947 41.0078 109.498 37.0483 101.926C34.2292 96.535 31.5011 89.5077 28.9398 81.0434C24.4814 66.3018 21.6486 50.775 21.3969 45.679C20.6053 29.7223 24.8605 18.3121 34.0442 11.7669C48.534 1.4387 70.4847 7.51105 78.4871 10.2687C83.863 6.99839 90.1881 5.40532 97.3367 5.52162C101.176 5.58437 104.831 5.92563 108.226 6.5347C111.767 5.41144 118.764 3.79847 126.773 3.89794C141.528 4.07546 153.755 9.87847 162.131 20.6795C168.107 28.3863 165.153 44.568 162.858 53.5296C159.633 66.1319 153.978 79.5391 147.033 91.2094C148.919 91.2232 151.65 90.9936 155.535 90.1856C163.2 88.588 165.439 92.7352 166.048 94.5914C168.485 102.04 157.892 107.667 154.588 109.214C150.354 111.199 143.452 112.406 137.799 112.144L137.552 112.128L136.067 111.996L135.92 113.245L135.779 114.467C135.4 129.256 133.306 138.622 128.997 144.812C124.483 151.299 118.206 153.119 112.679 154.314C110.987 154.693 109.261 154.889 107.529 154.9V154.9ZM96.304 101.072C99.7479 103.853 100.05 109.085 100.318 118.864C100.351 120.084 100.383 121.239 100.426 122.318C100.556 125.584 100.861 133.232 102.047 136.464C102.215 136.92 102.365 137.386 102.523 137.875C103.845 141.964 104.51 144.013 110.228 142.777C115.031 141.739 117.498 140.807 119.43 138.031C122.239 133.994 123.81 125.879 124.098 113.903L129.939 114.047L124.137 113.344L124.307 111.883C124.864 107.065 125.264 103.582 128.456 101.281C131.016 99.4334 133.935 99.6125 136.26 100.035C133.706 98.0898 132.999 95.8035 132.811 94.8669L132.325 92.4459L133.692 90.3953C141.578 78.5873 148.082 64.0751 151.537 50.5791C155.085 36.7113 154.002 29.3458 152.921 27.9532C138.597 9.48059 113.752 17.1062 111.159 17.9739L110.719 18.2127L108.521 18.6274L107.394 18.3917C104.29 17.7413 100.841 17.3817 97.1426 17.3205C91.333 17.2225 86.6472 18.6075 82.8045 21.5503L80.1385 23.5902L77.0434 22.3032C70.4347 19.5762 51.0179 14.093 40.7727 21.4156C35.086 25.4802 32.4959 33.4456 33.0721 45.0898C33.2617 48.934 35.8518 63.4859 40.1191 77.6017C46.0197 97.1073 51.3819 103.585 53.6202 104.34C54.0099 104.473 55.0244 103.677 56.0329 102.456C62.5931 94.4935 68.8318 87.8565 69.0941 87.5764L72.4774 83.9847L76.5673 86.7271C78.2157 87.8335 80.0339 88.4594 81.9022 88.5772L91.6576 80.1819L90.2442 94.7353C90.2124 95.0628 90.1972 95.5066 90.3246 96.333L90.7492 99.0922L88.9097 101.17L88.6974 101.411L94.0566 103.908L96.304 101.072V101.072Z" fill="black"/>
<path d="M156.72 95.9641C139.711 99.5038 138.542 93.6931 138.542 93.6931C156.5 66.8037 164.006 32.6697 157.528 24.3156C139.854 1.52589 109.261 12.304 108.75 12.5841L108.584 12.6131C105.224 11.9107 101.465 11.4914 97.2382 11.4225C89.5421 11.2955 83.7038 13.4579 79.2742 16.8476C79.2742 16.8476 24.6967 -5.84112 27.2353 45.3836C27.7752 56.2811 42.7138 127.841 60.5307 106.227C67.0424 98.3239 73.3342 91.6409 73.3342 91.6409C76.4596 93.736 80.2007 94.8041 84.1238 94.42L84.4286 94.1599C84.3346 95.1408 84.3771 96.1003 84.55 97.2358C79.9611 102.413 81.3078 103.322 72.1332 105.227C62.8479 107.158 68.3026 110.596 71.8648 111.494C76.1821 112.585 86.1695 114.129 92.9178 104.594L92.6479 105.682C94.4464 107.136 95.7096 115.138 95.4973 122.391C95.285 129.645 95.144 134.625 96.5618 138.515C97.9797 142.404 99.3916 151.157 111.453 148.549C121.532 146.369 126.755 140.72 127.482 131.299C127.998 124.601 129.164 125.591 129.239 119.602L130.176 116.766C131.254 107.685 130.347 104.756 136.557 106.119L138.066 106.253C142.636 106.464 148.617 105.51 152.128 103.864C159.689 100.323 164.173 94.4109 156.72 95.9641V95.9641Z" fill="#336791"/>
<path d="M108.139 151.264C98.0835 151.265 94.8989 143.23 93.5948 139.944C91.6886 135.13 91.2761 116.441 91.7007 101.115C91.729 100.603 91.954 100.123 92.3278 99.776C92.7016 99.4291 93.1948 99.243 93.7024 99.2574C94.2101 99.2717 94.6922 99.4854 95.0461 99.8528C95.4001 100.22 95.5981 100.713 95.598 101.225C95.1082 118.902 95.8042 134.92 97.2145 138.483C99.418 144.041 102.759 148.903 112.208 146.861C121.178 144.919 124.537 141.487 126.032 132.736C127.181 126.02 129.45 106.913 129.729 103.143C129.767 102.622 130.009 102.139 130.401 101.799C130.792 101.458 131.302 101.289 131.817 101.328C132.333 101.366 132.812 101.61 133.149 102.005C133.486 102.401 133.654 102.915 133.616 103.435C133.325 107.359 131.065 126.43 129.872 133.405C128.105 143.742 123.539 148.431 113.024 150.707C111.419 151.065 109.782 151.251 108.139 151.264V151.264ZM53.6208 112.019C52.7421 112.018 51.8693 111.872 51.0368 111.588C44.5054 109.389 38.2849 98.6557 32.5466 79.6826C28.1792 65.2394 25.4116 50.1656 25.169 45.267C24.4487 30.7442 28.1564 20.468 36.1861 14.7262C52.0725 3.36658 78.7986 14.1845 79.9284 14.6497C80.4025 14.8499 80.779 15.2311 80.976 15.7101C81.173 16.1892 81.1744 16.7274 80.98 17.2075C80.7856 17.6876 80.4111 18.0708 79.9381 18.2736C79.4651 18.4764 78.9318 18.4824 78.4544 18.2904V18.2919C78.1966 18.1848 52.5684 7.82443 38.432 17.9414C31.5654 22.8553 28.4127 31.9822 29.0602 45.0727C29.265 49.1984 31.8505 63.9126 36.274 78.5364C41.3966 95.4726 47.2274 106.162 52.2697 107.858C53.0597 108.125 55.4679 108.935 58.9133 104.757C65.3916 96.8912 71.3437 90.6138 71.4029 90.551C71.7653 90.1967 72.2497 89.9979 72.7544 89.9964C73.259 89.995 73.7446 90.191 74.109 90.5433C74.4734 90.8956 74.6883 91.3767 74.7085 91.8855C74.7288 92.3944 74.5527 92.8914 74.2174 93.272C74.1583 93.3332 68.2971 99.5173 61.9098 107.271C58.8845 110.941 55.9835 112.019 53.6208 112.019V112.019ZM138.421 95.4466C138.067 95.4471 137.72 95.3503 137.417 95.1665C137.113 94.9828 136.865 94.7191 136.699 94.4037C136.533 94.0884 136.455 93.7333 136.474 93.3767C136.493 93.0201 136.608 92.6755 136.806 92.3798C154.96 65.195 161.332 32.3495 155.874 25.313C149.005 16.4555 139.304 11.8278 127.043 11.563C117.964 11.3641 110.747 13.704 109.569 14.1126L109.273 14.2335C108.088 14.6099 107.178 13.9534 106.835 13.1867C106.64 12.7474 106.61 12.2513 106.752 11.7916C106.894 11.3319 107.197 10.9404 107.605 10.6907L108.13 10.4734L108.104 10.4811L108.132 10.4719C110.135 9.73275 117.461 7.51377 126.537 7.61937C140.105 7.76322 151.311 13.0444 158.945 22.8875C162.557 27.5458 162.565 38.278 158.968 52.331C155.301 66.658 148.401 82.0577 140.039 94.5789C139.861 94.8466 139.62 95.0658 139.338 95.2172C139.056 95.3685 138.741 95.4473 138.421 95.4466V95.4466ZM139.348 108.03C136.248 108.03 133.47 107.591 131.807 106.584C130.096 105.551 129.77 104.145 129.727 103.4C129.26 95.1298 133.782 93.6897 136.089 93.0332C135.768 92.5435 135.31 91.9666 134.838 91.3713C133.493 89.6757 131.652 87.3526 130.232 83.8788C130.011 83.3371 129.313 82.0745 128.507 80.6146C124.135 72.7043 115.039 56.2426 120.882 47.812C123.587 43.9112 128.971 42.3762 136.905 43.2332C134.571 36.0575 123.455 13.6091 97.0841 13.1729C89.1515 13.0383 82.6459 15.5006 77.7584 20.4803C66.8141 31.6348 67.2114 51.8168 67.2159 52.0173C67.2226 52.2755 67.1788 52.5324 67.0871 52.7735C66.9954 53.0145 66.8575 53.235 66.6813 53.4223C66.5051 53.6096 66.2942 53.76 66.0604 53.865C65.8266 53.97 65.5746 54.0276 65.3188 54.0343C65.063 54.041 64.8084 53.9968 64.5695 53.9043C64.3306 53.8117 64.1122 53.6726 63.9266 53.4948C63.741 53.317 63.5919 53.1041 63.4878 52.8682C63.3838 52.6323 63.3268 52.378 63.3201 52.1199C63.2959 51.2246 62.8864 30.0464 74.9893 17.7119C80.6533 11.9395 88.1082 9.09001 97.1478 9.23846C114.023 9.51851 124.882 18.1741 131.023 25.388C137.713 33.2478 140.995 41.9187 141.265 44.811C141.466 46.9626 139.936 47.3942 139.627 47.4569L138.925 47.4738C131.138 46.2158 126.143 47.0881 124.077 50.0677C119.632 56.4767 128.237 72.0478 131.911 78.6986C132.85 80.3942 133.526 81.62 133.836 82.3775C135.043 85.3311 136.617 87.3159 137.881 88.9105C138.993 90.3138 139.958 91.5289 140.303 92.9582C140.462 93.2414 142.734 96.6295 156.208 93.8229C159.585 93.1205 161.61 93.7219 162.228 95.6103C163.446 99.3275 156.614 103.661 152.832 105.435C149.438 107.025 144.029 108.03 139.348 108.03V108.03ZM133.614 103.075C134.04 103.511 136.179 104.261 140.608 104.07C144.545 103.899 148.698 103.034 151.191 101.868C154.379 100.374 156.505 98.7046 157.608 97.5645L156.995 97.6778C148.38 99.4729 142.287 99.2341 138.885 96.9662C138.656 96.814 138.436 96.649 138.226 96.4719C137.857 96.6188 137.516 96.7152 137.273 96.7841C135.343 97.3304 133.347 97.8951 133.614 103.075V103.075ZM77.9646 114.062C75.8249 114.062 73.5729 113.769 71.2724 113.186C68.8901 112.585 64.8715 110.774 64.9336 107.801C65.0019 104.463 69.8106 103.462 71.6227 103.086C78.1617 101.727 78.5879 101.182 80.632 98.5639C81.228 97.8002 81.9696 96.8499 82.9795 95.7098C84.4808 94.0157 86.1216 93.1557 87.8565 93.1557C89.0636 93.1557 90.0553 93.5704 90.7089 93.8428C92.7956 94.7151 94.5365 96.8239 95.2522 99.3489C95.8983 101.626 95.5904 103.817 94.3848 105.519C90.4299 111.109 84.7523 114.062 77.9646 114.062V114.062ZM69.1433 107.971C69.7317 108.428 70.9085 109.04 72.2172 109.373C74.2098 109.875 76.1418 110.13 77.9646 110.13C83.5179 110.13 87.9748 107.809 91.2139 103.234C91.8887 102.279 91.687 101.069 91.5066 100.431C91.1275 99.0964 90.1873 97.8829 89.2182 97.4758C88.692 97.2554 88.2568 97.0871 87.8565 97.0871C87.6411 97.0871 86.9875 97.0871 85.8851 98.3312C84.954 99.381 84.2852 100.238 83.6923 100.996C81.1476 104.257 79.9815 105.363 72.4083 106.938C70.5612 107.323 69.6134 107.712 69.1433 107.971ZM84.129 98.899C83.6638 98.8983 83.2142 98.7298 82.8613 98.4239C82.5084 98.118 82.2755 97.6949 82.2046 97.2309C82.1548 96.9044 82.1224 96.5754 82.1076 96.2454C77.1427 96.1505 72.3537 94.0019 68.7187 90.173C64.1223 85.3326 62.0296 78.6267 62.9789 71.7754C64.0101 64.3349 63.6249 57.7668 63.4172 54.2378C63.3652 53.512 63.3333 52.7848 63.3216 52.0571C63.3247 51.4358 63.3368 49.7846 68.8036 46.9887C70.7478 45.9939 74.6466 44.2585 78.9048 43.8132C85.9624 43.0787 90.6134 46.2495 92.0055 52.7442C95.7633 70.2818 92.3027 78.0391 89.7763 83.7028C89.3047 84.7557 88.8604 85.7535 88.5055 86.7176L88.1916 87.57C86.8571 91.1815 85.7031 94.3019 86.0579 96.6341C86.1359 97.1497 86.0081 97.6754 85.7025 98.096C85.3969 98.5165 84.9384 98.7976 84.4277 98.8776L84.129 98.899V98.899ZM67.2311 52.6004L67.3084 54.0052C67.5238 57.6704 67.9241 64.4926 66.8383 72.3217C66.0558 77.9717 67.7664 83.4886 71.5318 87.4536C74.5071 90.5878 78.4256 92.317 82.4518 92.317H82.5352C82.9871 90.3995 83.7347 88.3764 84.54 86.1957L84.8524 85.3494C85.2542 84.2598 85.7243 83.2055 86.2217 82.0898C88.6541 76.6357 91.681 69.8472 88.1946 53.5752C87.5031 50.3538 85.829 48.4884 83.0766 47.8732C77.4232 46.6122 68.9993 50.9032 67.2311 52.6004V52.6004ZM78.9928 51.7663C78.8957 52.4611 80.256 54.3174 82.0272 54.5653C83.7969 54.8148 85.3118 53.364 85.4074 52.6692C85.5029 51.9729 84.1442 51.2078 82.3714 50.9583C80.6017 50.7089 79.0868 51.07 78.9928 51.7663V51.7663ZM82.4351 55.2509L81.9377 55.2157C80.8383 55.0611 79.7267 54.3618 78.967 53.3441C78.7001 52.9875 78.2633 52.2928 78.3498 51.6745C78.4741 50.767 79.569 50.2253 81.2811 50.2253C81.6648 50.2253 82.0621 50.2544 82.4639 50.3095C83.3981 50.4411 84.267 50.7135 84.9085 51.0746C86.02 51.7021 86.1019 52.3999 86.0519 52.7626C85.9139 53.7619 84.3337 55.2509 82.4351 55.2509V55.2509ZM79.6388 51.8826C79.6949 52.3111 80.7458 53.7267 82.1167 53.918L82.4336 53.9409C83.6983 53.9409 84.6446 52.9355 84.7553 52.6065C84.6385 52.3831 83.8257 51.8245 82.282 51.6103C81.9499 51.5621 81.615 51.5375 81.2796 51.5368C80.2908 51.5353 79.7616 51.7602 79.6388 51.8826V51.8826ZM132.898 50.3477C132.994 51.044 131.637 52.9003 129.864 53.1482C128.093 53.3961 126.578 51.9469 126.481 51.2506C126.387 50.5559 127.745 49.7892 129.517 49.5412C131.288 49.2903 132.801 49.6545 132.898 50.3477ZM129.456 53.5033C127.75 53.5033 126.281 52.1642 126.159 51.2965C126.02 50.2544 127.72 49.4617 129.473 49.2168C129.858 49.1617 130.24 49.1342 130.609 49.1342C132.12 49.1342 133.121 49.5826 133.221 50.3033C133.287 50.7716 132.932 51.4924 132.319 52.1413C131.916 52.5698 131.067 53.312 129.911 53.4727L129.456 53.5033ZM130.607 49.7892C130.269 49.7892 129.917 49.8152 129.561 49.8641C127.799 50.1105 126.751 50.8252 126.801 51.2078C126.86 51.6271 127.984 52.8483 129.455 52.8483L129.817 52.8223C130.778 52.6861 131.5 52.054 131.844 51.6883C132.384 51.1144 132.6 50.5757 132.574 50.3906C132.542 50.1503 131.893 49.7892 130.607 49.7892V49.7892ZM135.451 90.271C135.098 90.2708 134.751 90.1739 134.449 89.9905C134.146 89.8072 133.899 89.5444 133.732 89.2301C133.566 88.9159 133.488 88.562 133.505 88.2062C133.523 87.8505 133.636 87.5063 133.833 87.2103C137.982 80.9559 137.222 74.5759 136.488 68.4087C136.174 65.7796 135.851 63.0632 135.936 60.454C136.021 57.7714 136.357 55.5585 136.685 53.416C137.072 50.8803 137.437 48.4823 137.286 45.6389C137.274 45.1279 137.461 44.6325 137.805 44.2577C138.149 43.8828 138.625 43.6579 139.131 43.6304C139.636 43.603 140.133 43.7752 140.515 44.1107C140.897 44.4461 141.135 44.9184 141.178 45.4277C141.351 48.6781 140.937 51.3899 140.537 54.0144C140.227 56.039 139.907 58.1325 139.83 60.5795C139.756 62.8888 140.049 65.3419 140.358 67.9373C141.14 74.4979 142.024 81.9337 137.072 89.3972C136.696 89.9634 136.078 90.271 135.451 90.271Z" fill="white"/>
<path d="M3.84375 155.533C6.02107 155.177 8.224 155.004 10.4297 155.016C13.819 155.016 16.3045 155.812 17.8816 157.244C19.3405 158.518 20.2079 160.467 20.2079 162.856C20.2079 165.283 19.4967 167.193 18.1561 168.586C16.3424 170.535 13.3853 171.53 10.0339 171.53C9.00882 171.53 8.06254 171.49 7.2755 171.291V182.036H3.84375V155.533V155.533ZM7.2755 168.465C8.02463 168.664 8.9709 168.743 10.1143 168.743C14.2527 168.743 16.7776 166.714 16.7776 163.014C16.7776 159.473 14.2937 157.762 10.5086 157.762C9.01033 157.762 7.86692 157.881 7.2755 158.04V168.465V168.465ZM40.9864 172.245C40.9864 179.367 36.0958 182.472 31.4828 182.472C26.3177 182.472 22.3355 178.652 22.3355 172.563C22.3355 166.117 26.5148 162.337 31.7982 162.337C37.2802 162.336 40.9864 166.356 40.9864 172.245V172.245ZM25.8461 172.444C25.8461 176.661 28.2512 179.844 31.642 179.844C34.9539 179.844 37.4364 176.701 37.4364 172.364C37.4364 169.101 35.8214 164.963 31.7193 164.963C27.6173 164.963 25.8461 168.783 25.8461 172.444ZM44.8883 178.452C45.9134 179.128 47.7271 179.844 49.4619 179.844C51.9853 179.844 53.1682 178.571 53.1682 176.98C53.1682 175.308 52.184 174.393 49.6196 173.438C46.1894 172.205 44.5729 170.295 44.5729 167.987C44.5729 164.884 47.0568 162.337 51.1573 162.337C53.0893 162.337 54.7862 162.894 55.8508 163.531L54.9834 166.077C53.8099 165.348 52.4584 164.962 51.08 164.963C49.0297 164.963 47.8863 166.157 47.8863 167.589C47.8863 169.181 49.0313 169.897 51.5152 170.852C54.8272 172.125 56.5226 173.796 56.5226 176.661C56.5226 180.043 53.9203 182.431 49.3861 182.431C47.2964 182.431 45.3645 181.913 44.0239 181.118L44.8883 178.452V178.452ZM65.1558 157.243V162.773H70.1222V165.439H65.1558V175.824C65.1558 178.211 65.8245 179.564 67.758 179.564C68.4358 179.574 69.1119 179.494 69.7689 179.326L69.9266 181.952C69.2578 182.23 68.1917 182.429 66.8527 182.429C65.2362 182.429 63.9335 181.912 63.1055 180.957C62.1214 179.922 61.765 178.211 61.765 175.943V165.439H58.8079V162.773H61.765V158.158L65.1558 157.243V157.243ZM90.232 162.775C90.1516 164.168 90.0743 165.719 90.0743 168.067V179.247C90.0743 183.664 89.2069 186.37 87.3537 188.042C85.5006 189.793 82.8195 190.35 80.4144 190.35C78.1276 190.35 75.6042 189.793 74.065 188.758L74.9324 186.093C76.1941 186.888 78.1655 187.605 80.5312 187.605C84.0797 187.605 86.6819 185.735 86.6819 180.88V178.732H86.6031C85.5385 180.522 83.4883 181.955 80.5312 181.955C75.7998 181.955 72.409 177.896 72.409 172.563C72.409 166.038 76.6278 162.337 81.0043 162.337C84.3178 162.337 86.1315 164.088 86.9595 165.68H87.0383L87.196 162.775H90.232V162.775ZM86.644 170.375C86.644 169.778 86.6046 169.261 86.4469 168.783C85.8161 166.754 84.1207 165.083 81.5973 165.083C78.2838 165.083 75.9196 167.908 75.9196 172.364C75.9196 176.144 77.8122 179.287 81.5578 179.287C83.6869 179.287 85.6189 177.934 86.368 175.706C86.5652 175.109 86.6456 174.433 86.6456 173.836V170.375H86.644ZM95.5927 168.783C95.5927 166.515 95.5533 164.565 95.435 162.775H98.4724L98.5892 166.555H98.7469C99.6143 163.969 101.704 162.337 104.03 162.337C104.425 162.337 104.699 162.377 105.014 162.457V165.759C104.626 165.674 104.23 165.634 103.833 165.64C101.389 165.64 99.6522 167.51 99.1806 170.136C99.0833 170.674 99.0305 171.22 99.0229 171.767V182.033H95.5927V168.783ZM110.025 173.04C110.104 177.775 113.099 179.725 116.568 179.725C119.054 179.725 120.551 179.287 121.852 178.73L122.443 181.237C121.221 181.794 119.131 182.431 116.095 182.431C110.22 182.431 106.711 178.531 106.711 172.722C106.711 166.913 110.102 162.336 115.662 162.336C121.891 162.336 123.547 167.866 123.547 171.408C123.547 172.124 123.468 172.681 123.429 173.039H110.025V173.04ZM120.197 170.534C120.235 168.306 119.289 164.844 115.387 164.844C111.878 164.844 110.34 168.107 110.063 170.534H120.197V170.534Z" fill="black"/>
<path d="M127.49 177.815C129.349 178.942 131.473 179.547 133.641 179.566C137.15 179.566 139.2 177.696 139.2 174.99C139.2 172.484 137.781 171.051 134.193 169.659C129.856 168.107 127.175 165.839 127.175 162.059C127.175 157.881 130.605 154.778 135.77 154.778C138.49 154.778 140.462 155.414 141.645 156.091L140.698 158.916C139.147 158.074 137.413 157.637 135.652 157.643C132.024 157.643 130.644 159.831 130.644 161.661C130.644 164.168 132.259 165.401 135.928 166.834C140.422 168.586 142.709 170.773 142.709 174.712C142.709 178.85 139.673 182.431 133.404 182.431C130.841 182.431 128.042 181.675 126.621 180.72L127.49 177.815V177.815ZM169.323 185.972C165.896 185.064 162.502 184.029 159.151 182.869C158.599 182.67 158.047 182.471 157.534 182.471C151.226 182.232 145.824 177.537 145.824 168.903C145.824 160.308 151.029 154.778 158.204 154.778C165.42 154.778 170.113 160.428 170.113 168.346C170.113 175.229 166.959 179.646 162.543 181.197V181.357C165.185 182.033 168.063 182.67 170.31 183.068L169.323 185.972V185.972ZM166.484 168.505C166.484 163.133 163.726 157.601 158.086 157.601C152.29 157.601 149.451 163.013 149.491 168.823C149.451 174.513 152.566 179.646 157.928 179.646C163.41 179.646 166.484 174.632 166.484 168.505V168.505ZM174.566 155.215H177.997V179.128H189.353V182.033H174.566V155.215Z" fill="#336791"/>
</svg>
