<svg width="135" height="135" viewBox="0 0 135 135" fill="none" xmlns="http://www.w3.org/2000/svg">
<path d="M52.9472 0.00040421C42.303 0.00040421 33.6839 8.61951 33.6839 19.2637V30.5796H62.5789C65.2063 30.5796 67.3684 34.4259 67.3684 37.0533H19.2633C8.61911 37.0533 0 45.6724 0 56.3166V81.7899C0 92.4341 8.61911 101.053 19.2633 101.053H27.2108V83.0005C27.2108 72.3563 35.7773 63.7372 46.4215 63.7372H81.7899C92.4341 63.7372 101.053 55.1707 101.053 44.5265V19.2633C101.053 8.61911 92.4341 0 81.7899 0L52.9472 0.00040421ZM48.1051 10.8427C50.7999 10.8427 52.9472 11.6574 52.9472 15.6322C52.9472 19.6069 50.7999 21.6321 48.1051 21.6321C45.4778 21.6321 43.3156 19.6069 43.3156 15.6322C43.3156 11.6574 45.4778 10.8427 48.1051 10.8427Z" fill="#3C78AA"/>
<path d="M107.514 33.6846V51.7374C107.514 62.3817 98.9608 71.0008 88.3166 71.0008H52.948C42.3037 71.0008 33.6846 79.554 33.6846 90.1983V115.462C33.6822 120.572 35.7106 125.475 39.3234 129.09C42.9361 132.705 47.8371 134.737 52.948 134.738H81.7899C86.9008 134.737 91.8018 132.705 95.4145 129.09C99.0273 125.475 101.056 120.572 101.053 115.462V104.146H72.1454C69.518 104.146 67.3691 100.312 67.3691 97.6851H115.474C120.585 97.684 125.486 95.6524 129.099 92.0372C132.712 88.4221 134.74 83.5197 134.738 78.4088V52.9481C134.736 42.3102 126.112 33.6869 115.474 33.6847L107.514 33.6846ZM42.5793 64.0928L42.553 64.1191C42.6337 64.1029 42.7219 64.1083 42.803 64.0928H42.5793ZM86.6324 113.106C89.2597 113.106 91.4219 115.132 91.4219 119.106C91.4181 121.748 89.2738 123.886 86.6324 123.883C83.9376 123.883 81.7902 123.081 81.7902 119.106C81.7902 115.132 83.9376 113.106 86.6324 113.106Z" fill="#FDD835"/>
</svg>
