<svg width="390" height="128" viewBox="0 0 390 128" fill="none" xmlns="http://www.w3.org/2000/svg">
<path d="M72.1277 77.0698C79.4561 77.0698 85.397 71.129 85.397 63.8005C85.397 56.4721 79.4561 50.5312 72.1277 50.5312C64.7993 50.5312 58.8584 56.4721 58.8584 63.8005C58.8584 71.129 64.7993 77.0698 72.1277 77.0698Z" fill="#00D8FF"/>
<path fill-rule="evenodd" clip-rule="evenodd" d="M72.1274 36.8218C89.9432 36.8218 106.494 39.3782 118.973 43.6742C134.008 48.8506 143.252 56.6965 143.252 63.801C143.252 71.2044 133.455 79.5397 117.309 84.8893C105.102 88.9335 89.0391 91.0448 72.1274 91.0448C54.7882 91.0448 38.3689 89.0631 26.0246 84.8448C10.4068 79.5066 1 71.0635 1 63.801C1 56.7542 9.82645 48.9688 24.6505 43.8004C37.176 39.4335 54.1351 36.8218 72.125 36.8218H72.1274Z" stroke="#00D8FF" stroke-width="1.66272"/>
<path fill-rule="evenodd" clip-rule="evenodd" d="M48.641 50.3889C57.5415 34.9557 68.0237 21.8957 77.9796 13.2316C89.9748 2.79278 101.39 -1.29537 107.544 2.25346C113.958 5.95199 116.284 18.6034 112.852 35.2623C110.26 47.8574 104.061 62.8266 95.6126 77.4769C86.9502 92.4975 77.0313 105.731 67.2111 114.315C54.7848 125.177 42.7711 129.108 36.4799 125.48C30.3752 121.962 28.0407 110.425 30.9693 95.0007C33.4437 81.9687 39.6534 65.9729 48.638 50.3887L48.641 50.3889Z" stroke="#00D8FF" stroke-width="1.66272"/>
<path fill-rule="evenodd" clip-rule="evenodd" d="M48.6631 77.5163C39.7375 62.1006 33.6605 46.4936 31.124 33.5415C28.0706 17.9358 30.2294 6.00413 36.378 2.44498C42.7854 -1.2644 54.9078 3.03853 67.6264 14.3317C77.2426 22.8699 87.117 35.7133 95.5904 50.3498C104.278 65.3558 110.789 80.5586 113.322 93.3532C116.527 109.544 113.933 121.915 107.647 125.554C101.549 129.084 90.3884 125.346 78.4884 115.106C68.4339 106.454 57.6768 93.0852 48.6631 77.5161V77.5163Z" stroke="#00D8FF" stroke-width="1.66272"/>
<path fill-rule="evenodd" clip-rule="evenodd" d="M219.42 97.703L203.155 73.1312C211.375 72.4058 218.782 66.4499 218.782 55.569C218.782 44.4971 210.925 37.4111 199.903 37.4111H175.697V97.6572H183.196V73.7191H195.21L210.566 97.6572L219.42 97.703ZM199.005 67.1715H183.199V44.1382H199.005C206.145 44.1382 211.02 48.8342 211.02 55.6109C211.02 62.3877 206.141 67.1791 199.005 67.1791V67.1715ZM247.332 98.7835C254.472 98.7835 260.34 96.4355 264.677 92.1022L261.424 87.6735C257.988 91.1974 252.933 93.1827 247.966 93.1827C238.574 93.1827 232.79 86.3181 232.248 78.1021H267.563V76.384C267.563 63.2887 259.794 52.9881 246.603 52.9881C234.137 52.9881 225.108 63.1971 225.108 75.8419C225.108 89.4832 234.412 98.7491 247.328 98.7491L247.332 98.7835ZM260.886 73.1274H232.251C232.614 66.4461 237.215 58.5813 246.523 58.5813C256.461 58.5813 260.794 66.6217 260.886 73.1274ZM312.557 97.6992V67.7098C312.557 57.1419 304.883 52.9843 295.666 52.9843C288.527 52.9843 282.93 55.3322 278.234 60.2115L281.395 64.9075C285.278 60.7536 289.527 58.8561 294.765 58.8561C301.088 58.8561 305.788 62.1968 305.788 68.0687V75.9259C302.264 71.8598 297.297 69.9623 291.333 69.9623C283.926 69.9623 276.062 74.5705 276.062 84.3252C276.062 93.8088 283.919 98.7797 291.333 98.7797C297.205 98.7797 302.176 96.7027 305.788 92.7283V97.6916L312.557 97.6992ZM293.773 93.9042C287.45 93.9042 283.022 89.9337 283.022 84.4206C283.022 78.8198 287.45 74.8454 293.773 74.8454C298.56 74.8454 303.165 76.6513 305.788 80.2668V88.4867C303.169 92.0984 298.56 93.9081 293.773 93.9081V93.9042ZM345.314 98.7835C353.263 98.7835 357.959 95.5307 361.303 91.1974L356.787 87.0435C353.897 90.9263 350.193 92.7322 345.715 92.7322C336.411 92.7322 330.634 85.5049 330.634 75.8419C330.634 66.1788 336.415 59.0432 345.715 59.0432C350.231 59.0432 353.935 60.7613 356.787 64.7319L361.303 60.578C357.963 56.2409 353.263 52.9919 345.314 52.9919C332.307 52.9919 323.545 62.9298 323.545 75.8457C323.545 88.8532 332.307 98.753 345.314 98.753V98.7835ZM381.813 98.7835C385.784 98.7835 388.227 97.6076 389.945 95.985L387.96 90.9263C387.055 91.919 385.287 92.7322 383.352 92.7322C380.374 92.7322 378.923 90.3842 378.923 87.1313V60.0321H387.78V54.0723H378.923V42.1491H372.146V54.0723H364.919V60.0359H372.146V88.5821C372.146 95.0878 375.399 98.7911 381.813 98.7911V98.7835Z" fill="#00D8FF"/>
</svg>
