<svg width="116" height="126" viewBox="0 0 116 126" fill="none" xmlns="http://www.w3.org/2000/svg">
<path d="M114.118 50.6929C114.118 43.1529 104.676 36.0072 90.2003 31.5759C93.5409 16.8204 92.0563 5.08094 85.5141 1.32244C84.0061 0.440813 82.2435 0.0231893 80.3179 0.0231893V5.19694C81.385 5.19694 82.2435 5.40575 82.9624 5.80013C86.1174 7.60976 87.4863 14.5003 86.4188 23.3629C86.1641 25.5438 85.7465 27.8406 85.236 30.1839C80.6888 29.0702 75.7246 28.2119 70.5051 27.655C67.3735 23.3629 64.1257 19.4652 60.8546 16.0548C68.4172 9.02501 75.516 5.1737 80.3413 5.1737V0C73.9614 0 65.6103 4.54732 57.1664 12.4355C48.722 4.5937 40.3709 0.0928109 33.9915 0.0928109V5.26651C38.7934 5.26651 45.9151 9.09463 53.4777 16.078C50.2299 19.4885 46.9821 23.3629 43.8967 27.655C38.6539 28.2119 33.6896 29.0702 29.1429 30.2071C28.6091 27.887 28.2149 25.6365 27.9363 23.4789C26.8465 14.6163 28.1916 7.72576 31.3237 5.89294C32.0193 5.47532 32.924 5.28975 33.9915 5.28975V0.116C32.0426 0.116 30.2795 0.533623 28.7487 1.41525C22.2298 5.1737 20.7685 16.89 24.132 31.5991C9.70285 36.0536 0.307617 43.1762 0.307617 50.6929C0.307617 58.2335 9.74922 65.3793 24.2248 69.8102C20.8842 84.566 22.3688 96.3051 28.911 100.064C30.419 100.945 32.1817 101.363 34.1305 101.363C40.5099 101.363 48.8615 96.8156 57.3054 88.9275C65.7493 96.7695 74.1009 101.27 80.4803 101.27C82.4287 101.27 84.1918 100.853 85.7231 99.9709C92.2415 96.2123 93.7033 84.496 90.3393 69.7874C104.722 65.3559 114.118 58.2101 114.118 50.6929ZM83.9138 35.2184C83.0553 38.2115 81.9883 41.2967 80.7817 44.3824C79.8309 42.5267 78.8333 40.6705 77.743 38.8143C76.6759 36.9584 75.5389 35.1488 74.4023 33.3856C77.6963 33.8727 80.8745 34.476 83.9138 35.2184ZM73.2886 59.9268C71.4793 63.0592 69.6238 66.0288 67.6982 68.7898C64.2414 69.0912 60.7389 69.2536 57.2126 69.2536C53.7096 69.2536 50.2066 69.0912 46.7736 68.8126C44.8481 66.0516 42.9687 63.1054 41.1594 59.9963C39.3962 56.9573 37.7959 53.8715 36.3341 50.763C37.7725 47.6539 39.3962 44.5448 41.1365 41.5058C42.9459 38.3738 44.8014 35.404 46.7269 32.6431C50.1837 32.3415 53.6862 32.1791 57.2126 32.1791C60.7156 32.1791 64.2186 32.3415 67.6515 32.6199C69.5771 35.3808 71.4564 38.3272 73.2658 41.4362C75.0289 44.4753 76.6292 47.561 78.091 50.6701C76.6292 53.7787 75.0289 56.8878 73.2886 59.9268ZM80.7817 56.9111C81.9995 59.9346 83.068 63.0161 83.9833 66.1445C80.9441 66.8869 77.743 67.5135 74.4257 68.0007C75.5622 66.2145 76.6987 64.3816 77.7663 62.5021C78.8333 60.6464 79.8309 58.7668 80.7817 56.9111ZM57.2587 81.666C55.1013 79.4384 52.9439 76.956 50.8098 74.2417C52.8977 74.3345 55.0318 74.4041 57.1892 74.4041C59.37 74.4041 61.5274 74.3579 63.6386 74.2417C61.6473 76.8296 59.5176 79.308 57.2587 81.666ZM39.9995 68.0007C36.7055 67.5135 33.5272 66.9102 30.4885 66.1678C31.3465 63.1749 32.414 60.0892 33.6201 57.0034C34.5714 58.8597 35.569 60.7159 36.6588 62.5716C37.7492 64.4278 38.8629 66.2373 39.9995 68.0007ZM57.1431 19.7205C59.3005 21.9477 61.4579 24.4302 63.5919 27.1446C61.504 27.0518 59.37 26.9822 57.2126 26.9822C55.0318 26.9822 52.8744 27.0286 50.7637 27.1446C52.7548 24.5567 54.8844 22.0784 57.1431 19.7205ZM39.9761 33.3856C38.8396 35.172 37.703 37.0048 36.636 38.8838C35.569 40.74 34.5714 42.5962 33.6201 44.4519C32.4022 41.4285 31.3339 38.3469 30.419 35.2184C33.4577 34.4992 36.6588 33.8727 39.9761 33.3856ZM18.982 62.4326C10.77 58.9292 5.45759 54.3359 5.45759 50.6929C5.45759 47.0505 10.77 42.4339 18.982 38.9538C20.977 38.0952 23.1578 37.3296 25.408 36.6104C26.7303 41.1576 28.4701 45.8905 30.6275 50.7396C28.4935 55.5654 26.7765 60.2749 25.4775 64.7992C23.1811 64.0797 21.0004 63.2911 18.982 62.4326ZM31.4627 95.5861C28.3078 93.7766 26.9388 86.8861 28.0064 78.0231C28.2616 75.8427 28.6786 73.5455 29.1891 71.2021C33.7363 72.316 38.7006 73.1745 43.92 73.7312C47.0516 78.0231 50.2994 81.9208 53.5705 85.3313C46.0079 92.3613 38.9091 96.2123 34.0838 96.2123C33.0401 96.1895 32.1588 95.9804 31.4627 95.5861ZM86.4888 77.9074C87.5786 86.7699 86.2336 93.6604 83.1015 95.4932C82.4058 95.9109 81.5012 96.0966 80.4336 96.0966C75.6317 96.0966 68.51 92.2685 60.9474 85.2851C64.1952 81.8746 67.443 78.0003 70.5284 73.7078C75.7712 73.1512 80.7355 72.2926 85.2822 71.1559C85.816 73.4993 86.2336 75.7498 86.4888 77.9074ZM95.4198 62.4326C93.4248 63.2911 91.244 64.0569 88.9937 64.7759C87.6715 60.2287 85.9317 55.4959 83.7743 50.6468C85.9088 45.821 87.6253 41.1115 88.9242 36.5872C91.2212 37.3064 93.4014 38.0952 95.4431 38.9538C103.655 42.4567 108.968 47.0505 108.968 50.6929C108.944 54.3359 103.632 58.9525 95.4198 62.4326Z" fill="#61DAFB"/>
<path d="M57.1883 61.2957C63.0437 61.2957 67.7901 56.5488 67.7901 50.6928C67.7901 44.8372 63.0437 40.0903 57.1883 40.0903C51.3333 40.0903 46.5869 44.8372 46.5869 50.6928C46.5869 56.5488 51.3333 61.2957 57.1883 61.2957ZM5.47454 119.618H1.97492V125.646H0V110.745H4.93221C6.61036 110.745 7.89972 111.128 8.80019 111.892C9.7075 112.656 10.1612 113.768 10.1612 115.228C10.1612 116.156 9.90877 116.964 9.40394 117.654C8.90596 118.342 8.21013 118.858 7.31646 119.198L10.8161 125.523V125.646H8.70811L5.47454 119.618ZM1.97492 118.012H4.99363C5.96916 118.012 6.74341 117.759 7.31646 117.254C7.8963 116.749 8.18622 116.074 8.18622 115.228C8.18622 114.307 7.90994 113.601 7.35739 113.11C6.81163 112.618 6.0203 112.369 4.98336 112.362H1.97492V118.012ZM17.222 125.851C15.721 125.851 14.4999 125.36 13.5585 124.377C12.617 123.388 12.1463 122.067 12.1463 120.417V120.068C12.1463 118.97 12.3544 117.991 12.7705 117.132C13.1935 116.265 13.7802 115.589 14.5306 115.105C15.2878 114.614 16.1064 114.368 16.9865 114.368C18.426 114.368 19.5449 114.842 20.3427 115.791C21.141 116.739 21.5399 118.097 21.5399 119.864V120.652H14.0394C14.0667 121.744 14.3839 122.627 14.991 123.303C15.605 123.971 16.3827 124.305 17.3242 124.305C17.9928 124.305 18.5588 124.169 19.0225 123.896C19.4868 123.623 19.8924 123.262 20.2405 122.811L21.3968 123.712C20.4688 125.138 19.0775 125.851 17.222 125.851ZM16.9865 115.924C16.2224 115.924 15.5812 116.204 15.0627 116.763C14.5442 117.316 14.2236 118.093 14.1008 119.096H19.6471V118.953C19.5926 117.991 19.3333 117.247 18.8695 116.722C18.4052 116.19 17.7776 115.924 16.9865 115.924ZM30.5757 125.646C30.4663 125.428 30.3776 125.039 30.3096 124.479C29.4293 125.393 28.3789 125.851 27.1578 125.851C26.0664 125.851 25.1695 125.544 24.4666 124.93C23.771 124.309 23.4229 123.524 23.4229 122.576C23.4229 121.423 23.8597 120.529 24.7327 119.895C25.6125 119.253 26.8476 118.932 28.437 118.932H30.279V118.063C30.279 117.401 30.0809 116.875 29.6856 116.487C29.2898 116.091 28.7062 115.893 27.9354 115.893C27.26 115.893 26.6941 116.063 26.2371 116.405C25.7801 116.746 25.5513 117.159 25.5513 117.643H23.6481C23.6481 117.091 23.8426 116.558 24.2311 116.046C24.6269 115.528 25.1591 115.119 25.8278 114.818C26.5032 114.519 27.2429 114.368 28.048 114.368C29.324 114.368 30.3231 114.689 31.0462 115.33C31.7693 115.965 32.1444 116.842 32.1719 117.96V123.057C32.1719 124.074 32.3016 124.882 32.5609 125.482V125.646H30.5757ZM27.4343 124.203C28.0277 124.203 28.5906 124.05 29.1228 123.743C29.6545 123.435 30.0399 123.036 30.279 122.545V120.273H28.7949C26.4757 120.273 25.3158 120.952 25.3158 122.31C25.3158 122.903 25.514 123.367 25.9092 123.702C26.305 124.036 26.8134 124.203 27.4343 124.203ZM39.5804 124.305C40.2558 124.305 40.8461 124.101 41.3508 123.691C41.8556 123.282 42.1352 122.77 42.1896 122.156H43.9808C43.9466 122.791 43.7282 123.394 43.3257 123.968C42.9231 124.541 42.3842 124.998 41.7088 125.339C41.0401 125.68 40.331 125.851 39.5804 125.851C38.073 125.851 36.8721 125.349 35.9783 124.346C35.0918 123.336 34.6483 121.958 34.6483 120.212V119.895C34.6483 118.817 34.8459 117.858 35.2417 117.019C35.6375 116.18 36.2035 115.528 36.9406 115.064C37.6839 114.6 38.5606 114.368 39.57 114.368C40.8119 114.368 41.8421 114.74 42.6606 115.484C43.4859 116.227 43.9258 117.193 43.9808 118.38H42.1896C42.1352 117.663 41.8623 117.077 41.3711 116.62C40.8871 116.156 40.2864 115.924 39.57 115.924C38.6083 115.924 37.8613 116.271 37.3291 116.968C36.8042 117.657 36.5412 118.656 36.5412 119.966V120.324C36.5412 121.6 36.8042 122.583 37.3291 123.271C37.8546 123.961 38.6052 124.305 39.5804 124.305ZM48.6774 111.892V114.573H50.7446V116.036H48.6774V122.903C48.6774 123.347 48.7698 123.681 48.9539 123.906C49.1381 124.124 49.4519 124.234 49.8954 124.234C50.1133 124.234 50.4136 124.193 50.7954 124.111V125.646C50.2974 125.782 49.8134 125.851 49.3424 125.851C48.4969 125.851 47.8589 125.595 47.4288 125.083C46.9993 124.572 46.7846 123.845 46.7846 122.903V116.036H44.7683V114.573H46.7846V111.892H48.6774ZM69.9107 125.646H67.9354L60.435 114.164V125.646H58.4602V110.745H60.435L67.9561 122.279V110.745H69.9107V125.646ZM79.9388 125.646C79.8294 125.428 79.7407 125.039 79.6727 124.479C78.7924 125.393 77.742 125.851 76.5209 125.851C75.4295 125.851 74.5321 125.544 73.8297 124.93C73.1341 124.309 72.786 123.524 72.786 122.576C72.786 121.423 73.2223 120.529 74.0958 119.895C74.9756 119.253 76.2107 118.932 77.8001 118.932H79.6421V118.063C79.6421 117.401 79.4439 116.875 79.0482 116.487C78.6529 116.091 78.0693 115.893 77.2985 115.893C76.6231 115.893 76.0571 116.063 75.6001 116.405C75.1431 116.746 74.9144 117.159 74.9144 117.643H73.0112C73.0112 117.091 73.2057 116.558 73.5942 116.046C73.99 115.528 74.5222 115.119 75.1909 114.818C75.8663 114.519 76.606 114.368 77.411 114.368C78.6866 114.368 79.6862 114.689 80.4093 115.33C81.1324 115.965 81.5075 116.842 81.535 117.96V123.057C81.535 124.074 81.6646 124.882 81.924 125.482V125.646H79.9388ZM76.7974 124.203C77.3908 124.203 77.9536 124.05 78.4859 123.743C79.0176 123.435 79.403 123.036 79.6421 122.545V120.273H78.158C75.8388 120.273 74.6789 120.952 74.6789 122.31C74.6789 122.903 74.877 123.367 75.2723 123.702C75.6681 124.036 76.1765 124.203 76.7974 124.203ZM87.0709 111.892V114.573H89.138V116.036H87.0709V122.903C87.0709 123.347 87.1632 123.681 87.3474 123.906C87.5315 124.124 87.8453 124.234 88.2889 124.234C88.5067 124.234 88.8071 124.193 89.1894 124.111V125.646C88.6909 125.782 88.2069 125.851 87.7359 125.851C86.8904 125.851 86.2523 125.595 85.8223 125.083C85.3928 124.572 85.178 123.845 85.178 122.903V116.036H83.1622V114.573H85.178V111.892H87.0709ZM93.4155 125.646H91.5221V114.573H93.4155V125.646ZM91.3686 111.636C91.3686 111.329 91.4609 111.07 91.6451 110.858C91.8359 110.646 92.1155 110.541 92.4838 110.541C92.8527 110.541 93.1322 110.646 93.3231 110.858C93.514 111.07 93.6095 111.329 93.6095 111.636C93.6095 111.943 93.514 112.199 93.3231 112.403C93.1322 112.608 92.8527 112.711 92.4838 112.711C92.1155 112.711 91.8359 112.608 91.6451 112.403C91.4609 112.199 91.3686 111.943 91.3686 111.636ZM100.108 123.077L102.85 114.573H104.784L100.814 125.646H99.3705L95.3597 114.573H97.2935L100.108 123.077ZM111.057 125.851C109.556 125.851 108.335 125.36 107.393 124.377C106.452 123.388 105.981 122.067 105.981 120.417V120.068C105.981 118.97 106.189 117.991 106.605 117.132C107.028 116.265 107.615 115.589 108.365 115.105C109.123 114.614 109.941 114.368 110.821 114.368C112.26 114.368 113.379 114.842 114.178 115.791C114.976 116.739 115.375 118.097 115.375 119.864V120.652H107.874C107.902 121.744 108.219 122.627 108.826 123.303C109.44 123.971 110.218 124.305 111.159 124.305C111.827 124.305 112.394 124.169 112.858 123.896C113.321 123.623 113.727 123.262 114.076 122.811L115.232 123.712C114.304 125.138 112.912 125.851 111.057 125.851ZM110.821 115.924C110.057 115.924 109.416 116.204 108.898 116.763C108.379 117.316 108.058 118.093 107.936 119.096H113.482V118.953C113.427 117.991 113.168 117.247 112.704 116.722C112.24 116.19 111.613 115.924 110.821 115.924Z" fill="#61DAFB"/>
</svg>
